G04 #@! TF.GenerationSoftware,KiCad,Pcbnew,8.0.3*
G04 #@! TF.CreationDate,2024-06-11T21:40:31+02:00*
G04 #@! TF.ProjectId,project,70726f6a-6563-4742-9e6b-696361645f70,rev?*
G04 #@! TF.SameCoordinates,Original*
G04 #@! TF.FileFunction,Legend,Top*
G04 #@! TF.FilePolarity,Positive*
%FSLAX46Y46*%
G04 Gerber Fmt 4.6, Leading zero omitted, Abs format (unit mm)*
G04 Created by KiCad (PCBNEW 8.0.3) date 2024-06-11 21:40:31*
%MOMM*%
%LPD*%
G01*
G04 APERTURE LIST*
%ADD10C,0.150000*%
%ADD11C,0.120000*%
G04 APERTURE END LIST*
D10*
X166137318Y-74740118D02*
X166137318Y-74644880D01*
X166137318Y-74644880D02*
X166184937Y-74549642D01*
X166184937Y-74549642D02*
X166232556Y-74502023D01*
X166232556Y-74502023D02*
X166327794Y-74454404D01*
X166327794Y-74454404D02*
X166518270Y-74406785D01*
X166518270Y-74406785D02*
X166756365Y-74406785D01*
X166756365Y-74406785D02*
X166946841Y-74454404D01*
X166946841Y-74454404D02*
X167042079Y-74502023D01*
X167042079Y-74502023D02*
X167089699Y-74549642D01*
X167089699Y-74549642D02*
X167137318Y-74644880D01*
X167137318Y-74644880D02*
X167137318Y-74740118D01*
X167137318Y-74740118D02*
X167089699Y-74835356D01*
X167089699Y-74835356D02*
X167042079Y-74882975D01*
X167042079Y-74882975D02*
X166946841Y-74930594D01*
X166946841Y-74930594D02*
X166756365Y-74978213D01*
X166756365Y-74978213D02*
X166518270Y-74978213D01*
X166518270Y-74978213D02*
X166327794Y-74930594D01*
X166327794Y-74930594D02*
X166232556Y-74882975D01*
X166232556Y-74882975D02*
X166184937Y-74835356D01*
X166184937Y-74835356D02*
X166137318Y-74740118D01*
X163004819Y-74755118D02*
X163004819Y-74659880D01*
X163004819Y-74659880D02*
X163052438Y-74564642D01*
X163052438Y-74564642D02*
X163100057Y-74517023D01*
X163100057Y-74517023D02*
X163195295Y-74469404D01*
X163195295Y-74469404D02*
X163385771Y-74421785D01*
X163385771Y-74421785D02*
X163623866Y-74421785D01*
X163623866Y-74421785D02*
X163814342Y-74469404D01*
X163814342Y-74469404D02*
X163909580Y-74517023D01*
X163909580Y-74517023D02*
X163957200Y-74564642D01*
X163957200Y-74564642D02*
X164004819Y-74659880D01*
X164004819Y-74659880D02*
X164004819Y-74755118D01*
X164004819Y-74755118D02*
X163957200Y-74850356D01*
X163957200Y-74850356D02*
X163909580Y-74897975D01*
X163909580Y-74897975D02*
X163814342Y-74945594D01*
X163814342Y-74945594D02*
X163623866Y-74993213D01*
X163623866Y-74993213D02*
X163385771Y-74993213D01*
X163385771Y-74993213D02*
X163195295Y-74945594D01*
X163195295Y-74945594D02*
X163100057Y-74897975D01*
X163100057Y-74897975D02*
X163052438Y-74850356D01*
X163052438Y-74850356D02*
X163004819Y-74755118D01*
X159704819Y-74740118D02*
X159704819Y-74644880D01*
X159704819Y-74644880D02*
X159752438Y-74549642D01*
X159752438Y-74549642D02*
X159800057Y-74502023D01*
X159800057Y-74502023D02*
X159895295Y-74454404D01*
X159895295Y-74454404D02*
X160085771Y-74406785D01*
X160085771Y-74406785D02*
X160323866Y-74406785D01*
X160323866Y-74406785D02*
X160514342Y-74454404D01*
X160514342Y-74454404D02*
X160609580Y-74502023D01*
X160609580Y-74502023D02*
X160657200Y-74549642D01*
X160657200Y-74549642D02*
X160704819Y-74644880D01*
X160704819Y-74644880D02*
X160704819Y-74740118D01*
X160704819Y-74740118D02*
X160657200Y-74835356D01*
X160657200Y-74835356D02*
X160609580Y-74882975D01*
X160609580Y-74882975D02*
X160514342Y-74930594D01*
X160514342Y-74930594D02*
X160323866Y-74978213D01*
X160323866Y-74978213D02*
X160085771Y-74978213D01*
X160085771Y-74978213D02*
X159895295Y-74930594D01*
X159895295Y-74930594D02*
X159800057Y-74882975D01*
X159800057Y-74882975D02*
X159752438Y-74835356D01*
X159752438Y-74835356D02*
X159704819Y-74740118D01*
X128464286Y-59625866D02*
X129226191Y-59625866D01*
X128845238Y-60006819D02*
X128845238Y-59244914D01*
X130178571Y-59006819D02*
X129702381Y-59006819D01*
X129702381Y-59006819D02*
X129654762Y-59483009D01*
X129654762Y-59483009D02*
X129702381Y-59435390D01*
X129702381Y-59435390D02*
X129797619Y-59387771D01*
X129797619Y-59387771D02*
X130035714Y-59387771D01*
X130035714Y-59387771D02*
X130130952Y-59435390D01*
X130130952Y-59435390D02*
X130178571Y-59483009D01*
X130178571Y-59483009D02*
X130226190Y-59578247D01*
X130226190Y-59578247D02*
X130226190Y-59816342D01*
X130226190Y-59816342D02*
X130178571Y-59911580D01*
X130178571Y-59911580D02*
X130130952Y-59959200D01*
X130130952Y-59959200D02*
X130035714Y-60006819D01*
X130035714Y-60006819D02*
X129797619Y-60006819D01*
X129797619Y-60006819D02*
X129702381Y-59959200D01*
X129702381Y-59959200D02*
X129654762Y-59911580D01*
X130511905Y-59006819D02*
X130845238Y-60006819D01*
X130845238Y-60006819D02*
X131178571Y-59006819D01*
X132988095Y-59375866D02*
X133750000Y-59375866D01*
X133369047Y-59756819D02*
X133369047Y-58994914D01*
X134130952Y-58756819D02*
X134749999Y-58756819D01*
X134749999Y-58756819D02*
X134416666Y-59137771D01*
X134416666Y-59137771D02*
X134559523Y-59137771D01*
X134559523Y-59137771D02*
X134654761Y-59185390D01*
X134654761Y-59185390D02*
X134702380Y-59233009D01*
X134702380Y-59233009D02*
X134749999Y-59328247D01*
X134749999Y-59328247D02*
X134749999Y-59566342D01*
X134749999Y-59566342D02*
X134702380Y-59661580D01*
X134702380Y-59661580D02*
X134654761Y-59709200D01*
X134654761Y-59709200D02*
X134559523Y-59756819D01*
X134559523Y-59756819D02*
X134273809Y-59756819D01*
X134273809Y-59756819D02*
X134178571Y-59709200D01*
X134178571Y-59709200D02*
X134130952Y-59661580D01*
X135035714Y-58756819D02*
X135369047Y-59756819D01*
X135369047Y-59756819D02*
X135702380Y-58756819D01*
X135940476Y-58756819D02*
X136559523Y-58756819D01*
X136559523Y-58756819D02*
X136226190Y-59137771D01*
X136226190Y-59137771D02*
X136369047Y-59137771D01*
X136369047Y-59137771D02*
X136464285Y-59185390D01*
X136464285Y-59185390D02*
X136511904Y-59233009D01*
X136511904Y-59233009D02*
X136559523Y-59328247D01*
X136559523Y-59328247D02*
X136559523Y-59566342D01*
X136559523Y-59566342D02*
X136511904Y-59661580D01*
X136511904Y-59661580D02*
X136464285Y-59709200D01*
X136464285Y-59709200D02*
X136369047Y-59756819D01*
X136369047Y-59756819D02*
X136083333Y-59756819D01*
X136083333Y-59756819D02*
X135988095Y-59709200D01*
X135988095Y-59709200D02*
X135940476Y-59661580D01*
X177654819Y-74640118D02*
X177654819Y-74544880D01*
X177654819Y-74544880D02*
X177702438Y-74449642D01*
X177702438Y-74449642D02*
X177750057Y-74402023D01*
X177750057Y-74402023D02*
X177845295Y-74354404D01*
X177845295Y-74354404D02*
X178035771Y-74306785D01*
X178035771Y-74306785D02*
X178273866Y-74306785D01*
X178273866Y-74306785D02*
X178464342Y-74354404D01*
X178464342Y-74354404D02*
X178559580Y-74402023D01*
X178559580Y-74402023D02*
X178607200Y-74449642D01*
X178607200Y-74449642D02*
X178654819Y-74544880D01*
X178654819Y-74544880D02*
X178654819Y-74640118D01*
X178654819Y-74640118D02*
X178607200Y-74735356D01*
X178607200Y-74735356D02*
X178559580Y-74782975D01*
X178559580Y-74782975D02*
X178464342Y-74830594D01*
X178464342Y-74830594D02*
X178273866Y-74878213D01*
X178273866Y-74878213D02*
X178035771Y-74878213D01*
X178035771Y-74878213D02*
X177845295Y-74830594D01*
X177845295Y-74830594D02*
X177750057Y-74782975D01*
X177750057Y-74782975D02*
X177702438Y-74735356D01*
X177702438Y-74735356D02*
X177654819Y-74640118D01*
X180333333Y-102059580D02*
X180285714Y-102107200D01*
X180285714Y-102107200D02*
X180142857Y-102154819D01*
X180142857Y-102154819D02*
X180047619Y-102154819D01*
X180047619Y-102154819D02*
X179904762Y-102107200D01*
X179904762Y-102107200D02*
X179809524Y-102011961D01*
X179809524Y-102011961D02*
X179761905Y-101916723D01*
X179761905Y-101916723D02*
X179714286Y-101726247D01*
X179714286Y-101726247D02*
X179714286Y-101583390D01*
X179714286Y-101583390D02*
X179761905Y-101392914D01*
X179761905Y-101392914D02*
X179809524Y-101297676D01*
X179809524Y-101297676D02*
X179904762Y-101202438D01*
X179904762Y-101202438D02*
X180047619Y-101154819D01*
X180047619Y-101154819D02*
X180142857Y-101154819D01*
X180142857Y-101154819D02*
X180285714Y-101202438D01*
X180285714Y-101202438D02*
X180333333Y-101250057D01*
X181285714Y-102154819D02*
X180714286Y-102154819D01*
X181000000Y-102154819D02*
X181000000Y-101154819D01*
X181000000Y-101154819D02*
X180904762Y-101297676D01*
X180904762Y-101297676D02*
X180809524Y-101392914D01*
X180809524Y-101392914D02*
X180714286Y-101440533D01*
X175339048Y-100223866D02*
X176100953Y-100223866D01*
X175720000Y-100604819D02*
X175720000Y-99842914D01*
X128154819Y-79140118D02*
X128154819Y-79044880D01*
X128154819Y-79044880D02*
X128202438Y-78949642D01*
X128202438Y-78949642D02*
X128250057Y-78902023D01*
X128250057Y-78902023D02*
X128345295Y-78854404D01*
X128345295Y-78854404D02*
X128535771Y-78806785D01*
X128535771Y-78806785D02*
X128773866Y-78806785D01*
X128773866Y-78806785D02*
X128964342Y-78854404D01*
X128964342Y-78854404D02*
X129059580Y-78902023D01*
X129059580Y-78902023D02*
X129107200Y-78949642D01*
X129107200Y-78949642D02*
X129154819Y-79044880D01*
X129154819Y-79044880D02*
X129154819Y-79140118D01*
X129154819Y-79140118D02*
X129107200Y-79235356D01*
X129107200Y-79235356D02*
X129059580Y-79282975D01*
X129059580Y-79282975D02*
X128964342Y-79330594D01*
X128964342Y-79330594D02*
X128773866Y-79378213D01*
X128773866Y-79378213D02*
X128535771Y-79378213D01*
X128535771Y-79378213D02*
X128345295Y-79330594D01*
X128345295Y-79330594D02*
X128250057Y-79282975D01*
X128250057Y-79282975D02*
X128202438Y-79235356D01*
X128202438Y-79235356D02*
X128154819Y-79140118D01*
X185136666Y-77474819D02*
X185136666Y-78189104D01*
X185136666Y-78189104D02*
X185089047Y-78331961D01*
X185089047Y-78331961D02*
X184993809Y-78427200D01*
X184993809Y-78427200D02*
X184850952Y-78474819D01*
X184850952Y-78474819D02*
X184755714Y-78474819D01*
X185517619Y-77474819D02*
X186184285Y-77474819D01*
X186184285Y-77474819D02*
X185755714Y-78474819D01*
X125370833Y-85154819D02*
X125037500Y-84678628D01*
X124799405Y-85154819D02*
X124799405Y-84154819D01*
X124799405Y-84154819D02*
X125180357Y-84154819D01*
X125180357Y-84154819D02*
X125275595Y-84202438D01*
X125275595Y-84202438D02*
X125323214Y-84250057D01*
X125323214Y-84250057D02*
X125370833Y-84345295D01*
X125370833Y-84345295D02*
X125370833Y-84488152D01*
X125370833Y-84488152D02*
X125323214Y-84583390D01*
X125323214Y-84583390D02*
X125275595Y-84631009D01*
X125275595Y-84631009D02*
X125180357Y-84678628D01*
X125180357Y-84678628D02*
X124799405Y-84678628D01*
X125704167Y-84154819D02*
X126323214Y-84154819D01*
X126323214Y-84154819D02*
X125989881Y-84535771D01*
X125989881Y-84535771D02*
X126132738Y-84535771D01*
X126132738Y-84535771D02*
X126227976Y-84583390D01*
X126227976Y-84583390D02*
X126275595Y-84631009D01*
X126275595Y-84631009D02*
X126323214Y-84726247D01*
X126323214Y-84726247D02*
X126323214Y-84964342D01*
X126323214Y-84964342D02*
X126275595Y-85059580D01*
X126275595Y-85059580D02*
X126227976Y-85107200D01*
X126227976Y-85107200D02*
X126132738Y-85154819D01*
X126132738Y-85154819D02*
X125847024Y-85154819D01*
X125847024Y-85154819D02*
X125751786Y-85107200D01*
X125751786Y-85107200D02*
X125704167Y-85059580D01*
X124370833Y-97554819D02*
X124037500Y-97078628D01*
X123799405Y-97554819D02*
X123799405Y-96554819D01*
X123799405Y-96554819D02*
X124180357Y-96554819D01*
X124180357Y-96554819D02*
X124275595Y-96602438D01*
X124275595Y-96602438D02*
X124323214Y-96650057D01*
X124323214Y-96650057D02*
X124370833Y-96745295D01*
X124370833Y-96745295D02*
X124370833Y-96888152D01*
X124370833Y-96888152D02*
X124323214Y-96983390D01*
X124323214Y-96983390D02*
X124275595Y-97031009D01*
X124275595Y-97031009D02*
X124180357Y-97078628D01*
X124180357Y-97078628D02*
X123799405Y-97078628D01*
X125275595Y-96554819D02*
X124799405Y-96554819D01*
X124799405Y-96554819D02*
X124751786Y-97031009D01*
X124751786Y-97031009D02*
X124799405Y-96983390D01*
X124799405Y-96983390D02*
X124894643Y-96935771D01*
X124894643Y-96935771D02*
X125132738Y-96935771D01*
X125132738Y-96935771D02*
X125227976Y-96983390D01*
X125227976Y-96983390D02*
X125275595Y-97031009D01*
X125275595Y-97031009D02*
X125323214Y-97126247D01*
X125323214Y-97126247D02*
X125323214Y-97364342D01*
X125323214Y-97364342D02*
X125275595Y-97459580D01*
X125275595Y-97459580D02*
X125227976Y-97507200D01*
X125227976Y-97507200D02*
X125132738Y-97554819D01*
X125132738Y-97554819D02*
X124894643Y-97554819D01*
X124894643Y-97554819D02*
X124799405Y-97507200D01*
X124799405Y-97507200D02*
X124751786Y-97459580D01*
X124370833Y-101604819D02*
X124037500Y-101128628D01*
X123799405Y-101604819D02*
X123799405Y-100604819D01*
X123799405Y-100604819D02*
X124180357Y-100604819D01*
X124180357Y-100604819D02*
X124275595Y-100652438D01*
X124275595Y-100652438D02*
X124323214Y-100700057D01*
X124323214Y-100700057D02*
X124370833Y-100795295D01*
X124370833Y-100795295D02*
X124370833Y-100938152D01*
X124370833Y-100938152D02*
X124323214Y-101033390D01*
X124323214Y-101033390D02*
X124275595Y-101081009D01*
X124275595Y-101081009D02*
X124180357Y-101128628D01*
X124180357Y-101128628D02*
X123799405Y-101128628D01*
X125227976Y-100604819D02*
X125037500Y-100604819D01*
X125037500Y-100604819D02*
X124942262Y-100652438D01*
X124942262Y-100652438D02*
X124894643Y-100700057D01*
X124894643Y-100700057D02*
X124799405Y-100842914D01*
X124799405Y-100842914D02*
X124751786Y-101033390D01*
X124751786Y-101033390D02*
X124751786Y-101414342D01*
X124751786Y-101414342D02*
X124799405Y-101509580D01*
X124799405Y-101509580D02*
X124847024Y-101557200D01*
X124847024Y-101557200D02*
X124942262Y-101604819D01*
X124942262Y-101604819D02*
X125132738Y-101604819D01*
X125132738Y-101604819D02*
X125227976Y-101557200D01*
X125227976Y-101557200D02*
X125275595Y-101509580D01*
X125275595Y-101509580D02*
X125323214Y-101414342D01*
X125323214Y-101414342D02*
X125323214Y-101176247D01*
X125323214Y-101176247D02*
X125275595Y-101081009D01*
X125275595Y-101081009D02*
X125227976Y-101033390D01*
X125227976Y-101033390D02*
X125132738Y-100985771D01*
X125132738Y-100985771D02*
X124942262Y-100985771D01*
X124942262Y-100985771D02*
X124847024Y-101033390D01*
X124847024Y-101033390D02*
X124799405Y-101081009D01*
X124799405Y-101081009D02*
X124751786Y-101176247D01*
X140583333Y-97854819D02*
X140250000Y-97378628D01*
X140011905Y-97854819D02*
X140011905Y-96854819D01*
X140011905Y-96854819D02*
X140392857Y-96854819D01*
X140392857Y-96854819D02*
X140488095Y-96902438D01*
X140488095Y-96902438D02*
X140535714Y-96950057D01*
X140535714Y-96950057D02*
X140583333Y-97045295D01*
X140583333Y-97045295D02*
X140583333Y-97188152D01*
X140583333Y-97188152D02*
X140535714Y-97283390D01*
X140535714Y-97283390D02*
X140488095Y-97331009D01*
X140488095Y-97331009D02*
X140392857Y-97378628D01*
X140392857Y-97378628D02*
X140011905Y-97378628D01*
X140916667Y-96854819D02*
X141583333Y-96854819D01*
X141583333Y-96854819D02*
X141154762Y-97854819D01*
X131589104Y-75644285D02*
X131589104Y-75168095D01*
X131874819Y-75739523D02*
X130874819Y-75406190D01*
X130874819Y-75406190D02*
X131874819Y-75072857D01*
X131874819Y-74215714D02*
X131874819Y-74787142D01*
X131874819Y-74501428D02*
X130874819Y-74501428D01*
X130874819Y-74501428D02*
X131017676Y-74596666D01*
X131017676Y-74596666D02*
X131112914Y-74691904D01*
X131112914Y-74691904D02*
X131160533Y-74787142D01*
X128654819Y-69293094D02*
X127654819Y-69293094D01*
X127654819Y-69293094D02*
X127654819Y-69054999D01*
X127654819Y-69054999D02*
X127702438Y-68912142D01*
X127702438Y-68912142D02*
X127797676Y-68816904D01*
X127797676Y-68816904D02*
X127892914Y-68769285D01*
X127892914Y-68769285D02*
X128083390Y-68721666D01*
X128083390Y-68721666D02*
X128226247Y-68721666D01*
X128226247Y-68721666D02*
X128416723Y-68769285D01*
X128416723Y-68769285D02*
X128511961Y-68816904D01*
X128511961Y-68816904D02*
X128607200Y-68912142D01*
X128607200Y-68912142D02*
X128654819Y-69054999D01*
X128654819Y-69054999D02*
X128654819Y-69293094D01*
X128654819Y-67769285D02*
X128654819Y-68340713D01*
X128654819Y-68054999D02*
X127654819Y-68054999D01*
X127654819Y-68054999D02*
X127797676Y-68150237D01*
X127797676Y-68150237D02*
X127892914Y-68245475D01*
X127892914Y-68245475D02*
X127940533Y-68340713D01*
X106670813Y-67366729D02*
X107385098Y-67366729D01*
X107385098Y-67366729D02*
X107527955Y-67414348D01*
X107527955Y-67414348D02*
X107623194Y-67509586D01*
X107623194Y-67509586D02*
X107670813Y-67652443D01*
X107670813Y-67652443D02*
X107670813Y-67747681D01*
X107670813Y-66366729D02*
X107670813Y-66938157D01*
X107670813Y-66652443D02*
X106670813Y-66652443D01*
X106670813Y-66652443D02*
X106813670Y-66747681D01*
X106813670Y-66747681D02*
X106908908Y-66842919D01*
X106908908Y-66842919D02*
X106956527Y-66938157D01*
X106670813Y-85146729D02*
X107385098Y-85146729D01*
X107385098Y-85146729D02*
X107527955Y-85194348D01*
X107527955Y-85194348D02*
X107623194Y-85289586D01*
X107623194Y-85289586D02*
X107670813Y-85432443D01*
X107670813Y-85432443D02*
X107670813Y-85527681D01*
X106766051Y-84718157D02*
X106718432Y-84670538D01*
X106718432Y-84670538D02*
X106670813Y-84575300D01*
X106670813Y-84575300D02*
X106670813Y-84337205D01*
X106670813Y-84337205D02*
X106718432Y-84241967D01*
X106718432Y-84241967D02*
X106766051Y-84194348D01*
X106766051Y-84194348D02*
X106861289Y-84146729D01*
X106861289Y-84146729D02*
X106956527Y-84146729D01*
X106956527Y-84146729D02*
X107099384Y-84194348D01*
X107099384Y-84194348D02*
X107670813Y-84765776D01*
X107670813Y-84765776D02*
X107670813Y-84146729D01*
X106670813Y-102926729D02*
X107385098Y-102926729D01*
X107385098Y-102926729D02*
X107527955Y-102974348D01*
X107527955Y-102974348D02*
X107623194Y-103069586D01*
X107623194Y-103069586D02*
X107670813Y-103212443D01*
X107670813Y-103212443D02*
X107670813Y-103307681D01*
X106670813Y-102545776D02*
X106670813Y-101926729D01*
X106670813Y-101926729D02*
X107051765Y-102260062D01*
X107051765Y-102260062D02*
X107051765Y-102117205D01*
X107051765Y-102117205D02*
X107099384Y-102021967D01*
X107099384Y-102021967D02*
X107147003Y-101974348D01*
X107147003Y-101974348D02*
X107242241Y-101926729D01*
X107242241Y-101926729D02*
X107480336Y-101926729D01*
X107480336Y-101926729D02*
X107575574Y-101974348D01*
X107575574Y-101974348D02*
X107623194Y-102021967D01*
X107623194Y-102021967D02*
X107670813Y-102117205D01*
X107670813Y-102117205D02*
X107670813Y-102402919D01*
X107670813Y-102402919D02*
X107623194Y-102498157D01*
X107623194Y-102498157D02*
X107575574Y-102545776D01*
X117116666Y-66804819D02*
X117116666Y-67519104D01*
X117116666Y-67519104D02*
X117069047Y-67661961D01*
X117069047Y-67661961D02*
X116973809Y-67757200D01*
X116973809Y-67757200D02*
X116830952Y-67804819D01*
X116830952Y-67804819D02*
X116735714Y-67804819D01*
X118021428Y-67138152D02*
X118021428Y-67804819D01*
X117783333Y-66757200D02*
X117545238Y-67471485D01*
X117545238Y-67471485D02*
X118164285Y-67471485D01*
X153166666Y-100154819D02*
X153166666Y-100869104D01*
X153166666Y-100869104D02*
X153119047Y-101011961D01*
X153119047Y-101011961D02*
X153023809Y-101107200D01*
X153023809Y-101107200D02*
X152880952Y-101154819D01*
X152880952Y-101154819D02*
X152785714Y-101154819D01*
X154119047Y-100154819D02*
X153642857Y-100154819D01*
X153642857Y-100154819D02*
X153595238Y-100631009D01*
X153595238Y-100631009D02*
X153642857Y-100583390D01*
X153642857Y-100583390D02*
X153738095Y-100535771D01*
X153738095Y-100535771D02*
X153976190Y-100535771D01*
X153976190Y-100535771D02*
X154071428Y-100583390D01*
X154071428Y-100583390D02*
X154119047Y-100631009D01*
X154119047Y-100631009D02*
X154166666Y-100726247D01*
X154166666Y-100726247D02*
X154166666Y-100964342D01*
X154166666Y-100964342D02*
X154119047Y-101059580D01*
X154119047Y-101059580D02*
X154071428Y-101107200D01*
X154071428Y-101107200D02*
X153976190Y-101154819D01*
X153976190Y-101154819D02*
X153738095Y-101154819D01*
X153738095Y-101154819D02*
X153642857Y-101107200D01*
X153642857Y-101107200D02*
X153595238Y-101059580D01*
X173166666Y-100154819D02*
X173166666Y-100869104D01*
X173166666Y-100869104D02*
X173119047Y-101011961D01*
X173119047Y-101011961D02*
X173023809Y-101107200D01*
X173023809Y-101107200D02*
X172880952Y-101154819D01*
X172880952Y-101154819D02*
X172785714Y-101154819D01*
X174071428Y-100154819D02*
X173880952Y-100154819D01*
X173880952Y-100154819D02*
X173785714Y-100202438D01*
X173785714Y-100202438D02*
X173738095Y-100250057D01*
X173738095Y-100250057D02*
X173642857Y-100392914D01*
X173642857Y-100392914D02*
X173595238Y-100583390D01*
X173595238Y-100583390D02*
X173595238Y-100964342D01*
X173595238Y-100964342D02*
X173642857Y-101059580D01*
X173642857Y-101059580D02*
X173690476Y-101107200D01*
X173690476Y-101107200D02*
X173785714Y-101154819D01*
X173785714Y-101154819D02*
X173976190Y-101154819D01*
X173976190Y-101154819D02*
X174071428Y-101107200D01*
X174071428Y-101107200D02*
X174119047Y-101059580D01*
X174119047Y-101059580D02*
X174166666Y-100964342D01*
X174166666Y-100964342D02*
X174166666Y-100726247D01*
X174166666Y-100726247D02*
X174119047Y-100631009D01*
X174119047Y-100631009D02*
X174071428Y-100583390D01*
X174071428Y-100583390D02*
X173976190Y-100535771D01*
X173976190Y-100535771D02*
X173785714Y-100535771D01*
X173785714Y-100535771D02*
X173690476Y-100583390D01*
X173690476Y-100583390D02*
X173642857Y-100631009D01*
X173642857Y-100631009D02*
X173595238Y-100726247D01*
X116790755Y-77533453D02*
X116695517Y-77485834D01*
X116695517Y-77485834D02*
X116600279Y-77390596D01*
X116600279Y-77390596D02*
X116457422Y-77247738D01*
X116457422Y-77247738D02*
X116362184Y-77200119D01*
X116362184Y-77200119D02*
X116266946Y-77200119D01*
X116314565Y-77438215D02*
X116219327Y-77390596D01*
X116219327Y-77390596D02*
X116124089Y-77295357D01*
X116124089Y-77295357D02*
X116076470Y-77104881D01*
X116076470Y-77104881D02*
X116076470Y-76771548D01*
X116076470Y-76771548D02*
X116124089Y-76581072D01*
X116124089Y-76581072D02*
X116219327Y-76485834D01*
X116219327Y-76485834D02*
X116314565Y-76438215D01*
X116314565Y-76438215D02*
X116505041Y-76438215D01*
X116505041Y-76438215D02*
X116600279Y-76485834D01*
X116600279Y-76485834D02*
X116695517Y-76581072D01*
X116695517Y-76581072D02*
X116743136Y-76771548D01*
X116743136Y-76771548D02*
X116743136Y-77104881D01*
X116743136Y-77104881D02*
X116695517Y-77295357D01*
X116695517Y-77295357D02*
X116600279Y-77390596D01*
X116600279Y-77390596D02*
X116505041Y-77438215D01*
X116505041Y-77438215D02*
X116314565Y-77438215D01*
X117695517Y-77438215D02*
X117124089Y-77438215D01*
X117409803Y-77438215D02*
X117409803Y-76438215D01*
X117409803Y-76438215D02*
X117314565Y-76581072D01*
X117314565Y-76581072D02*
X117219327Y-76676310D01*
X117219327Y-76676310D02*
X117124089Y-76723929D01*
X116790755Y-82455119D02*
X116695517Y-82407500D01*
X116695517Y-82407500D02*
X116600279Y-82312262D01*
X116600279Y-82312262D02*
X116457422Y-82169404D01*
X116457422Y-82169404D02*
X116362184Y-82121785D01*
X116362184Y-82121785D02*
X116266946Y-82121785D01*
X116314565Y-82359881D02*
X116219327Y-82312262D01*
X116219327Y-82312262D02*
X116124089Y-82217023D01*
X116124089Y-82217023D02*
X116076470Y-82026547D01*
X116076470Y-82026547D02*
X116076470Y-81693214D01*
X116076470Y-81693214D02*
X116124089Y-81502738D01*
X116124089Y-81502738D02*
X116219327Y-81407500D01*
X116219327Y-81407500D02*
X116314565Y-81359881D01*
X116314565Y-81359881D02*
X116505041Y-81359881D01*
X116505041Y-81359881D02*
X116600279Y-81407500D01*
X116600279Y-81407500D02*
X116695517Y-81502738D01*
X116695517Y-81502738D02*
X116743136Y-81693214D01*
X116743136Y-81693214D02*
X116743136Y-82026547D01*
X116743136Y-82026547D02*
X116695517Y-82217023D01*
X116695517Y-82217023D02*
X116600279Y-82312262D01*
X116600279Y-82312262D02*
X116505041Y-82359881D01*
X116505041Y-82359881D02*
X116314565Y-82359881D01*
X117124089Y-81455119D02*
X117171708Y-81407500D01*
X117171708Y-81407500D02*
X117266946Y-81359881D01*
X117266946Y-81359881D02*
X117505041Y-81359881D01*
X117505041Y-81359881D02*
X117600279Y-81407500D01*
X117600279Y-81407500D02*
X117647898Y-81455119D01*
X117647898Y-81455119D02*
X117695517Y-81550357D01*
X117695517Y-81550357D02*
X117695517Y-81645595D01*
X117695517Y-81645595D02*
X117647898Y-81788452D01*
X117647898Y-81788452D02*
X117076470Y-82359881D01*
X117076470Y-82359881D02*
X117695517Y-82359881D01*
X116790755Y-88646785D02*
X116695517Y-88599166D01*
X116695517Y-88599166D02*
X116600279Y-88503928D01*
X116600279Y-88503928D02*
X116457422Y-88361070D01*
X116457422Y-88361070D02*
X116362184Y-88313451D01*
X116362184Y-88313451D02*
X116266946Y-88313451D01*
X116314565Y-88551547D02*
X116219327Y-88503928D01*
X116219327Y-88503928D02*
X116124089Y-88408689D01*
X116124089Y-88408689D02*
X116076470Y-88218213D01*
X116076470Y-88218213D02*
X116076470Y-87884880D01*
X116076470Y-87884880D02*
X116124089Y-87694404D01*
X116124089Y-87694404D02*
X116219327Y-87599166D01*
X116219327Y-87599166D02*
X116314565Y-87551547D01*
X116314565Y-87551547D02*
X116505041Y-87551547D01*
X116505041Y-87551547D02*
X116600279Y-87599166D01*
X116600279Y-87599166D02*
X116695517Y-87694404D01*
X116695517Y-87694404D02*
X116743136Y-87884880D01*
X116743136Y-87884880D02*
X116743136Y-88218213D01*
X116743136Y-88218213D02*
X116695517Y-88408689D01*
X116695517Y-88408689D02*
X116600279Y-88503928D01*
X116600279Y-88503928D02*
X116505041Y-88551547D01*
X116505041Y-88551547D02*
X116314565Y-88551547D01*
X117076470Y-87551547D02*
X117695517Y-87551547D01*
X117695517Y-87551547D02*
X117362184Y-87932499D01*
X117362184Y-87932499D02*
X117505041Y-87932499D01*
X117505041Y-87932499D02*
X117600279Y-87980118D01*
X117600279Y-87980118D02*
X117647898Y-88027737D01*
X117647898Y-88027737D02*
X117695517Y-88122975D01*
X117695517Y-88122975D02*
X117695517Y-88361070D01*
X117695517Y-88361070D02*
X117647898Y-88456308D01*
X117647898Y-88456308D02*
X117600279Y-88503928D01*
X117600279Y-88503928D02*
X117505041Y-88551547D01*
X117505041Y-88551547D02*
X117219327Y-88551547D01*
X117219327Y-88551547D02*
X117124089Y-88503928D01*
X117124089Y-88503928D02*
X117076470Y-88456308D01*
X116790755Y-94838451D02*
X116695517Y-94790832D01*
X116695517Y-94790832D02*
X116600279Y-94695594D01*
X116600279Y-94695594D02*
X116457422Y-94552736D01*
X116457422Y-94552736D02*
X116362184Y-94505117D01*
X116362184Y-94505117D02*
X116266946Y-94505117D01*
X116314565Y-94743213D02*
X116219327Y-94695594D01*
X116219327Y-94695594D02*
X116124089Y-94600355D01*
X116124089Y-94600355D02*
X116076470Y-94409879D01*
X116076470Y-94409879D02*
X116076470Y-94076546D01*
X116076470Y-94076546D02*
X116124089Y-93886070D01*
X116124089Y-93886070D02*
X116219327Y-93790832D01*
X116219327Y-93790832D02*
X116314565Y-93743213D01*
X116314565Y-93743213D02*
X116505041Y-93743213D01*
X116505041Y-93743213D02*
X116600279Y-93790832D01*
X116600279Y-93790832D02*
X116695517Y-93886070D01*
X116695517Y-93886070D02*
X116743136Y-94076546D01*
X116743136Y-94076546D02*
X116743136Y-94409879D01*
X116743136Y-94409879D02*
X116695517Y-94600355D01*
X116695517Y-94600355D02*
X116600279Y-94695594D01*
X116600279Y-94695594D02*
X116505041Y-94743213D01*
X116505041Y-94743213D02*
X116314565Y-94743213D01*
X117600279Y-94076546D02*
X117600279Y-94743213D01*
X117362184Y-93695594D02*
X117124089Y-94409879D01*
X117124089Y-94409879D02*
X117743136Y-94409879D01*
X116790755Y-101030117D02*
X116695517Y-100982498D01*
X116695517Y-100982498D02*
X116600279Y-100887260D01*
X116600279Y-100887260D02*
X116457422Y-100744402D01*
X116457422Y-100744402D02*
X116362184Y-100696783D01*
X116362184Y-100696783D02*
X116266946Y-100696783D01*
X116314565Y-100934879D02*
X116219327Y-100887260D01*
X116219327Y-100887260D02*
X116124089Y-100792021D01*
X116124089Y-100792021D02*
X116076470Y-100601545D01*
X116076470Y-100601545D02*
X116076470Y-100268212D01*
X116076470Y-100268212D02*
X116124089Y-100077736D01*
X116124089Y-100077736D02*
X116219327Y-99982498D01*
X116219327Y-99982498D02*
X116314565Y-99934879D01*
X116314565Y-99934879D02*
X116505041Y-99934879D01*
X116505041Y-99934879D02*
X116600279Y-99982498D01*
X116600279Y-99982498D02*
X116695517Y-100077736D01*
X116695517Y-100077736D02*
X116743136Y-100268212D01*
X116743136Y-100268212D02*
X116743136Y-100601545D01*
X116743136Y-100601545D02*
X116695517Y-100792021D01*
X116695517Y-100792021D02*
X116600279Y-100887260D01*
X116600279Y-100887260D02*
X116505041Y-100934879D01*
X116505041Y-100934879D02*
X116314565Y-100934879D01*
X117647898Y-99934879D02*
X117171708Y-99934879D01*
X117171708Y-99934879D02*
X117124089Y-100411069D01*
X117124089Y-100411069D02*
X117171708Y-100363450D01*
X117171708Y-100363450D02*
X117266946Y-100315831D01*
X117266946Y-100315831D02*
X117505041Y-100315831D01*
X117505041Y-100315831D02*
X117600279Y-100363450D01*
X117600279Y-100363450D02*
X117647898Y-100411069D01*
X117647898Y-100411069D02*
X117695517Y-100506307D01*
X117695517Y-100506307D02*
X117695517Y-100744402D01*
X117695517Y-100744402D02*
X117647898Y-100839640D01*
X117647898Y-100839640D02*
X117600279Y-100887260D01*
X117600279Y-100887260D02*
X117505041Y-100934879D01*
X117505041Y-100934879D02*
X117266946Y-100934879D01*
X117266946Y-100934879D02*
X117171708Y-100887260D01*
X117171708Y-100887260D02*
X117124089Y-100839640D01*
X116790755Y-107221783D02*
X116695517Y-107174164D01*
X116695517Y-107174164D02*
X116600279Y-107078926D01*
X116600279Y-107078926D02*
X116457422Y-106936068D01*
X116457422Y-106936068D02*
X116362184Y-106888449D01*
X116362184Y-106888449D02*
X116266946Y-106888449D01*
X116314565Y-107126545D02*
X116219327Y-107078926D01*
X116219327Y-107078926D02*
X116124089Y-106983687D01*
X116124089Y-106983687D02*
X116076470Y-106793211D01*
X116076470Y-106793211D02*
X116076470Y-106459878D01*
X116076470Y-106459878D02*
X116124089Y-106269402D01*
X116124089Y-106269402D02*
X116219327Y-106174164D01*
X116219327Y-106174164D02*
X116314565Y-106126545D01*
X116314565Y-106126545D02*
X116505041Y-106126545D01*
X116505041Y-106126545D02*
X116600279Y-106174164D01*
X116600279Y-106174164D02*
X116695517Y-106269402D01*
X116695517Y-106269402D02*
X116743136Y-106459878D01*
X116743136Y-106459878D02*
X116743136Y-106793211D01*
X116743136Y-106793211D02*
X116695517Y-106983687D01*
X116695517Y-106983687D02*
X116600279Y-107078926D01*
X116600279Y-107078926D02*
X116505041Y-107126545D01*
X116505041Y-107126545D02*
X116314565Y-107126545D01*
X117600279Y-106126545D02*
X117409803Y-106126545D01*
X117409803Y-106126545D02*
X117314565Y-106174164D01*
X117314565Y-106174164D02*
X117266946Y-106221783D01*
X117266946Y-106221783D02*
X117171708Y-106364640D01*
X117171708Y-106364640D02*
X117124089Y-106555116D01*
X117124089Y-106555116D02*
X117124089Y-106936068D01*
X117124089Y-106936068D02*
X117171708Y-107031306D01*
X117171708Y-107031306D02*
X117219327Y-107078926D01*
X117219327Y-107078926D02*
X117314565Y-107126545D01*
X117314565Y-107126545D02*
X117505041Y-107126545D01*
X117505041Y-107126545D02*
X117600279Y-107078926D01*
X117600279Y-107078926D02*
X117647898Y-107031306D01*
X117647898Y-107031306D02*
X117695517Y-106936068D01*
X117695517Y-106936068D02*
X117695517Y-106697973D01*
X117695517Y-106697973D02*
X117647898Y-106602735D01*
X117647898Y-106602735D02*
X117600279Y-106555116D01*
X117600279Y-106555116D02*
X117505041Y-106507497D01*
X117505041Y-106507497D02*
X117314565Y-106507497D01*
X117314565Y-106507497D02*
X117219327Y-106555116D01*
X117219327Y-106555116D02*
X117171708Y-106602735D01*
X117171708Y-106602735D02*
X117124089Y-106697973D01*
X139550057Y-101095238D02*
X139502438Y-101190476D01*
X139502438Y-101190476D02*
X139407200Y-101285714D01*
X139407200Y-101285714D02*
X139264342Y-101428571D01*
X139264342Y-101428571D02*
X139216723Y-101523809D01*
X139216723Y-101523809D02*
X139216723Y-101619047D01*
X139454819Y-101571428D02*
X139407200Y-101666666D01*
X139407200Y-101666666D02*
X139311961Y-101761904D01*
X139311961Y-101761904D02*
X139121485Y-101809523D01*
X139121485Y-101809523D02*
X138788152Y-101809523D01*
X138788152Y-101809523D02*
X138597676Y-101761904D01*
X138597676Y-101761904D02*
X138502438Y-101666666D01*
X138502438Y-101666666D02*
X138454819Y-101571428D01*
X138454819Y-101571428D02*
X138454819Y-101380952D01*
X138454819Y-101380952D02*
X138502438Y-101285714D01*
X138502438Y-101285714D02*
X138597676Y-101190476D01*
X138597676Y-101190476D02*
X138788152Y-101142857D01*
X138788152Y-101142857D02*
X139121485Y-101142857D01*
X139121485Y-101142857D02*
X139311961Y-101190476D01*
X139311961Y-101190476D02*
X139407200Y-101285714D01*
X139407200Y-101285714D02*
X139454819Y-101380952D01*
X139454819Y-101380952D02*
X139454819Y-101571428D01*
X138454819Y-100809523D02*
X138454819Y-100142857D01*
X138454819Y-100142857D02*
X139454819Y-100571428D01*
X187300057Y-70095238D02*
X187252438Y-70190476D01*
X187252438Y-70190476D02*
X187157200Y-70285714D01*
X187157200Y-70285714D02*
X187014342Y-70428571D01*
X187014342Y-70428571D02*
X186966723Y-70523809D01*
X186966723Y-70523809D02*
X186966723Y-70619047D01*
X187204819Y-70571428D02*
X187157200Y-70666666D01*
X187157200Y-70666666D02*
X187061961Y-70761904D01*
X187061961Y-70761904D02*
X186871485Y-70809523D01*
X186871485Y-70809523D02*
X186538152Y-70809523D01*
X186538152Y-70809523D02*
X186347676Y-70761904D01*
X186347676Y-70761904D02*
X186252438Y-70666666D01*
X186252438Y-70666666D02*
X186204819Y-70571428D01*
X186204819Y-70571428D02*
X186204819Y-70380952D01*
X186204819Y-70380952D02*
X186252438Y-70285714D01*
X186252438Y-70285714D02*
X186347676Y-70190476D01*
X186347676Y-70190476D02*
X186538152Y-70142857D01*
X186538152Y-70142857D02*
X186871485Y-70142857D01*
X186871485Y-70142857D02*
X187061961Y-70190476D01*
X187061961Y-70190476D02*
X187157200Y-70285714D01*
X187157200Y-70285714D02*
X187204819Y-70380952D01*
X187204819Y-70380952D02*
X187204819Y-70571428D01*
X186633390Y-69571428D02*
X186585771Y-69666666D01*
X186585771Y-69666666D02*
X186538152Y-69714285D01*
X186538152Y-69714285D02*
X186442914Y-69761904D01*
X186442914Y-69761904D02*
X186395295Y-69761904D01*
X186395295Y-69761904D02*
X186300057Y-69714285D01*
X186300057Y-69714285D02*
X186252438Y-69666666D01*
X186252438Y-69666666D02*
X186204819Y-69571428D01*
X186204819Y-69571428D02*
X186204819Y-69380952D01*
X186204819Y-69380952D02*
X186252438Y-69285714D01*
X186252438Y-69285714D02*
X186300057Y-69238095D01*
X186300057Y-69238095D02*
X186395295Y-69190476D01*
X186395295Y-69190476D02*
X186442914Y-69190476D01*
X186442914Y-69190476D02*
X186538152Y-69238095D01*
X186538152Y-69238095D02*
X186585771Y-69285714D01*
X186585771Y-69285714D02*
X186633390Y-69380952D01*
X186633390Y-69380952D02*
X186633390Y-69571428D01*
X186633390Y-69571428D02*
X186681009Y-69666666D01*
X186681009Y-69666666D02*
X186728628Y-69714285D01*
X186728628Y-69714285D02*
X186823866Y-69761904D01*
X186823866Y-69761904D02*
X187014342Y-69761904D01*
X187014342Y-69761904D02*
X187109580Y-69714285D01*
X187109580Y-69714285D02*
X187157200Y-69666666D01*
X187157200Y-69666666D02*
X187204819Y-69571428D01*
X187204819Y-69571428D02*
X187204819Y-69380952D01*
X187204819Y-69380952D02*
X187157200Y-69285714D01*
X187157200Y-69285714D02*
X187109580Y-69238095D01*
X187109580Y-69238095D02*
X187014342Y-69190476D01*
X187014342Y-69190476D02*
X186823866Y-69190476D01*
X186823866Y-69190476D02*
X186728628Y-69238095D01*
X186728628Y-69238095D02*
X186681009Y-69285714D01*
X186681009Y-69285714D02*
X186633390Y-69380952D01*
X193800057Y-70095238D02*
X193752438Y-70190476D01*
X193752438Y-70190476D02*
X193657200Y-70285714D01*
X193657200Y-70285714D02*
X193514342Y-70428571D01*
X193514342Y-70428571D02*
X193466723Y-70523809D01*
X193466723Y-70523809D02*
X193466723Y-70619047D01*
X193704819Y-70571428D02*
X193657200Y-70666666D01*
X193657200Y-70666666D02*
X193561961Y-70761904D01*
X193561961Y-70761904D02*
X193371485Y-70809523D01*
X193371485Y-70809523D02*
X193038152Y-70809523D01*
X193038152Y-70809523D02*
X192847676Y-70761904D01*
X192847676Y-70761904D02*
X192752438Y-70666666D01*
X192752438Y-70666666D02*
X192704819Y-70571428D01*
X192704819Y-70571428D02*
X192704819Y-70380952D01*
X192704819Y-70380952D02*
X192752438Y-70285714D01*
X192752438Y-70285714D02*
X192847676Y-70190476D01*
X192847676Y-70190476D02*
X193038152Y-70142857D01*
X193038152Y-70142857D02*
X193371485Y-70142857D01*
X193371485Y-70142857D02*
X193561961Y-70190476D01*
X193561961Y-70190476D02*
X193657200Y-70285714D01*
X193657200Y-70285714D02*
X193704819Y-70380952D01*
X193704819Y-70380952D02*
X193704819Y-70571428D01*
X193704819Y-69666666D02*
X193704819Y-69476190D01*
X193704819Y-69476190D02*
X193657200Y-69380952D01*
X193657200Y-69380952D02*
X193609580Y-69333333D01*
X193609580Y-69333333D02*
X193466723Y-69238095D01*
X193466723Y-69238095D02*
X193276247Y-69190476D01*
X193276247Y-69190476D02*
X192895295Y-69190476D01*
X192895295Y-69190476D02*
X192800057Y-69238095D01*
X192800057Y-69238095D02*
X192752438Y-69285714D01*
X192752438Y-69285714D02*
X192704819Y-69380952D01*
X192704819Y-69380952D02*
X192704819Y-69571428D01*
X192704819Y-69571428D02*
X192752438Y-69666666D01*
X192752438Y-69666666D02*
X192800057Y-69714285D01*
X192800057Y-69714285D02*
X192895295Y-69761904D01*
X192895295Y-69761904D02*
X193133390Y-69761904D01*
X193133390Y-69761904D02*
X193228628Y-69714285D01*
X193228628Y-69714285D02*
X193276247Y-69666666D01*
X193276247Y-69666666D02*
X193323866Y-69571428D01*
X193323866Y-69571428D02*
X193323866Y-69380952D01*
X193323866Y-69380952D02*
X193276247Y-69285714D01*
X193276247Y-69285714D02*
X193228628Y-69238095D01*
X193228628Y-69238095D02*
X193133390Y-69190476D01*
X123333333Y-73654819D02*
X123000000Y-73178628D01*
X122761905Y-73654819D02*
X122761905Y-72654819D01*
X122761905Y-72654819D02*
X123142857Y-72654819D01*
X123142857Y-72654819D02*
X123238095Y-72702438D01*
X123238095Y-72702438D02*
X123285714Y-72750057D01*
X123285714Y-72750057D02*
X123333333Y-72845295D01*
X123333333Y-72845295D02*
X123333333Y-72988152D01*
X123333333Y-72988152D02*
X123285714Y-73083390D01*
X123285714Y-73083390D02*
X123238095Y-73131009D01*
X123238095Y-73131009D02*
X123142857Y-73178628D01*
X123142857Y-73178628D02*
X122761905Y-73178628D01*
X124285714Y-73654819D02*
X123714286Y-73654819D01*
X124000000Y-73654819D02*
X124000000Y-72654819D01*
X124000000Y-72654819D02*
X123904762Y-72797676D01*
X123904762Y-72797676D02*
X123809524Y-72892914D01*
X123809524Y-72892914D02*
X123714286Y-72940533D01*
X123333333Y-77654819D02*
X123000000Y-77178628D01*
X122761905Y-77654819D02*
X122761905Y-76654819D01*
X122761905Y-76654819D02*
X123142857Y-76654819D01*
X123142857Y-76654819D02*
X123238095Y-76702438D01*
X123238095Y-76702438D02*
X123285714Y-76750057D01*
X123285714Y-76750057D02*
X123333333Y-76845295D01*
X123333333Y-76845295D02*
X123333333Y-76988152D01*
X123333333Y-76988152D02*
X123285714Y-77083390D01*
X123285714Y-77083390D02*
X123238095Y-77131009D01*
X123238095Y-77131009D02*
X123142857Y-77178628D01*
X123142857Y-77178628D02*
X122761905Y-77178628D01*
X123714286Y-76750057D02*
X123761905Y-76702438D01*
X123761905Y-76702438D02*
X123857143Y-76654819D01*
X123857143Y-76654819D02*
X124095238Y-76654819D01*
X124095238Y-76654819D02*
X124190476Y-76702438D01*
X124190476Y-76702438D02*
X124238095Y-76750057D01*
X124238095Y-76750057D02*
X124285714Y-76845295D01*
X124285714Y-76845295D02*
X124285714Y-76940533D01*
X124285714Y-76940533D02*
X124238095Y-77083390D01*
X124238095Y-77083390D02*
X123666667Y-77654819D01*
X123666667Y-77654819D02*
X124285714Y-77654819D01*
X125333333Y-91114819D02*
X125000000Y-90638628D01*
X124761905Y-91114819D02*
X124761905Y-90114819D01*
X124761905Y-90114819D02*
X125142857Y-90114819D01*
X125142857Y-90114819D02*
X125238095Y-90162438D01*
X125238095Y-90162438D02*
X125285714Y-90210057D01*
X125285714Y-90210057D02*
X125333333Y-90305295D01*
X125333333Y-90305295D02*
X125333333Y-90448152D01*
X125333333Y-90448152D02*
X125285714Y-90543390D01*
X125285714Y-90543390D02*
X125238095Y-90591009D01*
X125238095Y-90591009D02*
X125142857Y-90638628D01*
X125142857Y-90638628D02*
X124761905Y-90638628D01*
X126190476Y-90448152D02*
X126190476Y-91114819D01*
X125952381Y-90067200D02*
X125714286Y-90781485D01*
X125714286Y-90781485D02*
X126333333Y-90781485D01*
X170584819Y-90166666D02*
X170108628Y-90499999D01*
X170584819Y-90738094D02*
X169584819Y-90738094D01*
X169584819Y-90738094D02*
X169584819Y-90357142D01*
X169584819Y-90357142D02*
X169632438Y-90261904D01*
X169632438Y-90261904D02*
X169680057Y-90214285D01*
X169680057Y-90214285D02*
X169775295Y-90166666D01*
X169775295Y-90166666D02*
X169918152Y-90166666D01*
X169918152Y-90166666D02*
X170013390Y-90214285D01*
X170013390Y-90214285D02*
X170061009Y-90261904D01*
X170061009Y-90261904D02*
X170108628Y-90357142D01*
X170108628Y-90357142D02*
X170108628Y-90738094D01*
X170013390Y-89595237D02*
X169965771Y-89690475D01*
X169965771Y-89690475D02*
X169918152Y-89738094D01*
X169918152Y-89738094D02*
X169822914Y-89785713D01*
X169822914Y-89785713D02*
X169775295Y-89785713D01*
X169775295Y-89785713D02*
X169680057Y-89738094D01*
X169680057Y-89738094D02*
X169632438Y-89690475D01*
X169632438Y-89690475D02*
X169584819Y-89595237D01*
X169584819Y-89595237D02*
X169584819Y-89404761D01*
X169584819Y-89404761D02*
X169632438Y-89309523D01*
X169632438Y-89309523D02*
X169680057Y-89261904D01*
X169680057Y-89261904D02*
X169775295Y-89214285D01*
X169775295Y-89214285D02*
X169822914Y-89214285D01*
X169822914Y-89214285D02*
X169918152Y-89261904D01*
X169918152Y-89261904D02*
X169965771Y-89309523D01*
X169965771Y-89309523D02*
X170013390Y-89404761D01*
X170013390Y-89404761D02*
X170013390Y-89595237D01*
X170013390Y-89595237D02*
X170061009Y-89690475D01*
X170061009Y-89690475D02*
X170108628Y-89738094D01*
X170108628Y-89738094D02*
X170203866Y-89785713D01*
X170203866Y-89785713D02*
X170394342Y-89785713D01*
X170394342Y-89785713D02*
X170489580Y-89738094D01*
X170489580Y-89738094D02*
X170537200Y-89690475D01*
X170537200Y-89690475D02*
X170584819Y-89595237D01*
X170584819Y-89595237D02*
X170584819Y-89404761D01*
X170584819Y-89404761D02*
X170537200Y-89309523D01*
X170537200Y-89309523D02*
X170489580Y-89261904D01*
X170489580Y-89261904D02*
X170394342Y-89214285D01*
X170394342Y-89214285D02*
X170203866Y-89214285D01*
X170203866Y-89214285D02*
X170108628Y-89261904D01*
X170108628Y-89261904D02*
X170061009Y-89309523D01*
X170061009Y-89309523D02*
X170013390Y-89404761D01*
X186554819Y-75129166D02*
X186078628Y-75462499D01*
X186554819Y-75700594D02*
X185554819Y-75700594D01*
X185554819Y-75700594D02*
X185554819Y-75319642D01*
X185554819Y-75319642D02*
X185602438Y-75224404D01*
X185602438Y-75224404D02*
X185650057Y-75176785D01*
X185650057Y-75176785D02*
X185745295Y-75129166D01*
X185745295Y-75129166D02*
X185888152Y-75129166D01*
X185888152Y-75129166D02*
X185983390Y-75176785D01*
X185983390Y-75176785D02*
X186031009Y-75224404D01*
X186031009Y-75224404D02*
X186078628Y-75319642D01*
X186078628Y-75319642D02*
X186078628Y-75700594D01*
X186554819Y-74652975D02*
X186554819Y-74462499D01*
X186554819Y-74462499D02*
X186507200Y-74367261D01*
X186507200Y-74367261D02*
X186459580Y-74319642D01*
X186459580Y-74319642D02*
X186316723Y-74224404D01*
X186316723Y-74224404D02*
X186126247Y-74176785D01*
X186126247Y-74176785D02*
X185745295Y-74176785D01*
X185745295Y-74176785D02*
X185650057Y-74224404D01*
X185650057Y-74224404D02*
X185602438Y-74272023D01*
X185602438Y-74272023D02*
X185554819Y-74367261D01*
X185554819Y-74367261D02*
X185554819Y-74557737D01*
X185554819Y-74557737D02*
X185602438Y-74652975D01*
X185602438Y-74652975D02*
X185650057Y-74700594D01*
X185650057Y-74700594D02*
X185745295Y-74748213D01*
X185745295Y-74748213D02*
X185983390Y-74748213D01*
X185983390Y-74748213D02*
X186078628Y-74700594D01*
X186078628Y-74700594D02*
X186126247Y-74652975D01*
X186126247Y-74652975D02*
X186173866Y-74557737D01*
X186173866Y-74557737D02*
X186173866Y-74367261D01*
X186173866Y-74367261D02*
X186126247Y-74272023D01*
X186126247Y-74272023D02*
X186078628Y-74224404D01*
X186078628Y-74224404D02*
X185983390Y-74176785D01*
X183607142Y-64604819D02*
X183273809Y-64128628D01*
X183035714Y-64604819D02*
X183035714Y-63604819D01*
X183035714Y-63604819D02*
X183416666Y-63604819D01*
X183416666Y-63604819D02*
X183511904Y-63652438D01*
X183511904Y-63652438D02*
X183559523Y-63700057D01*
X183559523Y-63700057D02*
X183607142Y-63795295D01*
X183607142Y-63795295D02*
X183607142Y-63938152D01*
X183607142Y-63938152D02*
X183559523Y-64033390D01*
X183559523Y-64033390D02*
X183511904Y-64081009D01*
X183511904Y-64081009D02*
X183416666Y-64128628D01*
X183416666Y-64128628D02*
X183035714Y-64128628D01*
X184559523Y-64604819D02*
X183988095Y-64604819D01*
X184273809Y-64604819D02*
X184273809Y-63604819D01*
X184273809Y-63604819D02*
X184178571Y-63747676D01*
X184178571Y-63747676D02*
X184083333Y-63842914D01*
X184083333Y-63842914D02*
X183988095Y-63890533D01*
X185178571Y-63604819D02*
X185273809Y-63604819D01*
X185273809Y-63604819D02*
X185369047Y-63652438D01*
X185369047Y-63652438D02*
X185416666Y-63700057D01*
X185416666Y-63700057D02*
X185464285Y-63795295D01*
X185464285Y-63795295D02*
X185511904Y-63985771D01*
X185511904Y-63985771D02*
X185511904Y-64223866D01*
X185511904Y-64223866D02*
X185464285Y-64414342D01*
X185464285Y-64414342D02*
X185416666Y-64509580D01*
X185416666Y-64509580D02*
X185369047Y-64557200D01*
X185369047Y-64557200D02*
X185273809Y-64604819D01*
X185273809Y-64604819D02*
X185178571Y-64604819D01*
X185178571Y-64604819D02*
X185083333Y-64557200D01*
X185083333Y-64557200D02*
X185035714Y-64509580D01*
X185035714Y-64509580D02*
X184988095Y-64414342D01*
X184988095Y-64414342D02*
X184940476Y-64223866D01*
X184940476Y-64223866D02*
X184940476Y-63985771D01*
X184940476Y-63985771D02*
X184988095Y-63795295D01*
X184988095Y-63795295D02*
X185035714Y-63700057D01*
X185035714Y-63700057D02*
X185083333Y-63652438D01*
X185083333Y-63652438D02*
X185178571Y-63604819D01*
X193054819Y-75605357D02*
X192578628Y-75938690D01*
X193054819Y-76176785D02*
X192054819Y-76176785D01*
X192054819Y-76176785D02*
X192054819Y-75795833D01*
X192054819Y-75795833D02*
X192102438Y-75700595D01*
X192102438Y-75700595D02*
X192150057Y-75652976D01*
X192150057Y-75652976D02*
X192245295Y-75605357D01*
X192245295Y-75605357D02*
X192388152Y-75605357D01*
X192388152Y-75605357D02*
X192483390Y-75652976D01*
X192483390Y-75652976D02*
X192531009Y-75700595D01*
X192531009Y-75700595D02*
X192578628Y-75795833D01*
X192578628Y-75795833D02*
X192578628Y-76176785D01*
X193054819Y-74652976D02*
X193054819Y-75224404D01*
X193054819Y-74938690D02*
X192054819Y-74938690D01*
X192054819Y-74938690D02*
X192197676Y-75033928D01*
X192197676Y-75033928D02*
X192292914Y-75129166D01*
X192292914Y-75129166D02*
X192340533Y-75224404D01*
X193054819Y-73700595D02*
X193054819Y-74272023D01*
X193054819Y-73986309D02*
X192054819Y-73986309D01*
X192054819Y-73986309D02*
X192197676Y-74081547D01*
X192197676Y-74081547D02*
X192292914Y-74176785D01*
X192292914Y-74176785D02*
X192340533Y-74272023D01*
X190107142Y-64604819D02*
X189773809Y-64128628D01*
X189535714Y-64604819D02*
X189535714Y-63604819D01*
X189535714Y-63604819D02*
X189916666Y-63604819D01*
X189916666Y-63604819D02*
X190011904Y-63652438D01*
X190011904Y-63652438D02*
X190059523Y-63700057D01*
X190059523Y-63700057D02*
X190107142Y-63795295D01*
X190107142Y-63795295D02*
X190107142Y-63938152D01*
X190107142Y-63938152D02*
X190059523Y-64033390D01*
X190059523Y-64033390D02*
X190011904Y-64081009D01*
X190011904Y-64081009D02*
X189916666Y-64128628D01*
X189916666Y-64128628D02*
X189535714Y-64128628D01*
X191059523Y-64604819D02*
X190488095Y-64604819D01*
X190773809Y-64604819D02*
X190773809Y-63604819D01*
X190773809Y-63604819D02*
X190678571Y-63747676D01*
X190678571Y-63747676D02*
X190583333Y-63842914D01*
X190583333Y-63842914D02*
X190488095Y-63890533D01*
X191440476Y-63700057D02*
X191488095Y-63652438D01*
X191488095Y-63652438D02*
X191583333Y-63604819D01*
X191583333Y-63604819D02*
X191821428Y-63604819D01*
X191821428Y-63604819D02*
X191916666Y-63652438D01*
X191916666Y-63652438D02*
X191964285Y-63700057D01*
X191964285Y-63700057D02*
X192011904Y-63795295D01*
X192011904Y-63795295D02*
X192011904Y-63890533D01*
X192011904Y-63890533D02*
X191964285Y-64033390D01*
X191964285Y-64033390D02*
X191392857Y-64604819D01*
X191392857Y-64604819D02*
X192011904Y-64604819D01*
X131854819Y-65392857D02*
X131378628Y-65726190D01*
X131854819Y-65964285D02*
X130854819Y-65964285D01*
X130854819Y-65964285D02*
X130854819Y-65583333D01*
X130854819Y-65583333D02*
X130902438Y-65488095D01*
X130902438Y-65488095D02*
X130950057Y-65440476D01*
X130950057Y-65440476D02*
X131045295Y-65392857D01*
X131045295Y-65392857D02*
X131188152Y-65392857D01*
X131188152Y-65392857D02*
X131283390Y-65440476D01*
X131283390Y-65440476D02*
X131331009Y-65488095D01*
X131331009Y-65488095D02*
X131378628Y-65583333D01*
X131378628Y-65583333D02*
X131378628Y-65964285D01*
X131854819Y-64440476D02*
X131854819Y-65011904D01*
X131854819Y-64726190D02*
X130854819Y-64726190D01*
X130854819Y-64726190D02*
X130997676Y-64821428D01*
X130997676Y-64821428D02*
X131092914Y-64916666D01*
X131092914Y-64916666D02*
X131140533Y-65011904D01*
X130854819Y-64107142D02*
X130854819Y-63488095D01*
X130854819Y-63488095D02*
X131235771Y-63821428D01*
X131235771Y-63821428D02*
X131235771Y-63678571D01*
X131235771Y-63678571D02*
X131283390Y-63583333D01*
X131283390Y-63583333D02*
X131331009Y-63535714D01*
X131331009Y-63535714D02*
X131426247Y-63488095D01*
X131426247Y-63488095D02*
X131664342Y-63488095D01*
X131664342Y-63488095D02*
X131759580Y-63535714D01*
X131759580Y-63535714D02*
X131807200Y-63583333D01*
X131807200Y-63583333D02*
X131854819Y-63678571D01*
X131854819Y-63678571D02*
X131854819Y-63964285D01*
X131854819Y-63964285D02*
X131807200Y-64059523D01*
X131807200Y-64059523D02*
X131759580Y-64107142D01*
D11*
X169710000Y-75342500D02*
X169710000Y-74042500D01*
X167890000Y-75342500D02*
X167890000Y-74042500D01*
X164690000Y-75357500D02*
X164690000Y-74057500D01*
X166510000Y-75357500D02*
X166510000Y-74057500D01*
X163210000Y-75342500D02*
X163210000Y-74042500D01*
X161390000Y-75342500D02*
X161390000Y-74042500D01*
X130450000Y-61000000D02*
G75*
G02*
X129050000Y-61000000I-700000J0D01*
G01*
X129050000Y-61000000D02*
G75*
G02*
X130450000Y-61000000I700000J0D01*
G01*
X135450000Y-60750000D02*
G75*
G02*
X134050000Y-60750000I-700000J0D01*
G01*
X134050000Y-60750000D02*
G75*
G02*
X135450000Y-60750000I700000J0D01*
G01*
X191850000Y-64250000D02*
G75*
G02*
X190450000Y-64250000I-700000J0D01*
G01*
X190450000Y-64250000D02*
G75*
G02*
X191850000Y-64250000I700000J0D01*
G01*
X179340000Y-75242500D02*
X179340000Y-73942500D01*
X181160000Y-75242500D02*
X181160000Y-73942500D01*
X177070000Y-92060000D02*
X184690000Y-92060000D01*
X176310000Y-92820000D02*
X177070000Y-92060000D01*
X177070000Y-100440000D02*
X176310000Y-99680000D01*
X184690000Y-100440000D02*
X177070000Y-100440000D01*
X176310000Y-99680000D02*
X176310000Y-97760000D01*
X176310000Y-92820000D02*
X176310000Y-94740000D01*
X184690000Y-92060000D02*
X184690000Y-94740000D01*
X184690000Y-100440000D02*
X184690000Y-97760000D01*
X131660000Y-79742500D02*
X131660000Y-78442500D01*
X129840000Y-79742500D02*
X129840000Y-78442500D01*
X188200000Y-66000000D02*
G75*
G02*
X186800000Y-66000000I-700000J0D01*
G01*
X186800000Y-66000000D02*
G75*
G02*
X188200000Y-66000000I700000J0D01*
G01*
X182870000Y-89300000D02*
X188070000Y-89300000D01*
X182870000Y-81620000D02*
X182870000Y-89300000D01*
X188070000Y-79020000D02*
X188070000Y-89300000D01*
X182870000Y-81620000D02*
X185470000Y-81620000D01*
X185470000Y-81620000D02*
X185470000Y-79020000D01*
X185470000Y-79020000D02*
X188070000Y-79020000D01*
X182870000Y-80350000D02*
X182870000Y-79020000D01*
X182870000Y-79020000D02*
X184200000Y-79020000D01*
X125387500Y-85840000D02*
X125687500Y-85840000D01*
X125387500Y-87260000D02*
X125687500Y-87260000D01*
X124387500Y-99660000D02*
X124687500Y-99660000D01*
X124387500Y-98240000D02*
X124687500Y-98240000D01*
X124387500Y-102290000D02*
X124687500Y-102290000D01*
X124387500Y-103710000D02*
X124687500Y-103710000D01*
X140600000Y-99960000D02*
X140900000Y-99960000D01*
X140600000Y-98540000D02*
X140900000Y-98540000D01*
X137770000Y-81280000D02*
X135230000Y-81280000D01*
X135230000Y-81280000D02*
X135230000Y-83950000D01*
X137770000Y-83950000D02*
X176000000Y-83950000D01*
X132560000Y-83950000D02*
X135230000Y-83950000D01*
X135230000Y-68580000D02*
X135230000Y-65910000D01*
X135230000Y-68580000D02*
X173330000Y-68580000D01*
X173330000Y-68580000D02*
X173330000Y-65910000D01*
X137770000Y-81280000D02*
X137770000Y-83950000D01*
X137770000Y-81280000D02*
X173330000Y-81280000D01*
X173330000Y-81280000D02*
X173330000Y-83950000D01*
X176000000Y-83950000D02*
X176000000Y-65910000D01*
X176000000Y-65910000D02*
X132560000Y-65910000D01*
X132560000Y-65910000D02*
X132560000Y-83950000D01*
X129090000Y-67755000D02*
X129090000Y-70025000D01*
X129090000Y-70025000D02*
X130610000Y-70025000D01*
X130610000Y-70025000D02*
X130610000Y-67755000D01*
X105695994Y-59253396D02*
X96335994Y-59253396D01*
X96335994Y-59253396D02*
X96335994Y-74813396D01*
X96335994Y-74813396D02*
X105695994Y-74813396D01*
X105695994Y-59253396D02*
X105695994Y-60733396D01*
X105695994Y-74813396D02*
X105695994Y-73333396D01*
X105695994Y-62833396D02*
X105695994Y-64233396D01*
X105695994Y-66333396D02*
X105695994Y-67733396D01*
X105695994Y-69833396D02*
X105695994Y-71233396D01*
X99615994Y-59253396D02*
X99615994Y-74813396D01*
X107015994Y-62083396D02*
X106415994Y-61783396D01*
X106415994Y-61783396D02*
X107015994Y-61483396D01*
X107015994Y-61483396D02*
X107015994Y-62083396D01*
X107015994Y-79263396D02*
X107015994Y-79863396D01*
X106415994Y-79563396D02*
X107015994Y-79263396D01*
X107015994Y-79863396D02*
X106415994Y-79563396D01*
X99615994Y-77033396D02*
X99615994Y-92593396D01*
X105695994Y-87613396D02*
X105695994Y-89013396D01*
X105695994Y-84113396D02*
X105695994Y-85513396D01*
X105695994Y-80613396D02*
X105695994Y-82013396D01*
X105695994Y-92593396D02*
X105695994Y-91113396D01*
X105695994Y-77033396D02*
X105695994Y-78513396D01*
X96335994Y-92593396D02*
X105695994Y-92593396D01*
X96335994Y-77033396D02*
X96335994Y-92593396D01*
X105695994Y-77033396D02*
X96335994Y-77033396D01*
X105695994Y-94813396D02*
X96335994Y-94813396D01*
X96335994Y-94813396D02*
X96335994Y-110373396D01*
X96335994Y-110373396D02*
X105695994Y-110373396D01*
X105695994Y-94813396D02*
X105695994Y-96293396D01*
X105695994Y-110373396D02*
X105695994Y-108893396D01*
X105695994Y-98393396D02*
X105695994Y-99793396D01*
X105695994Y-101893396D02*
X105695994Y-103293396D01*
X105695994Y-105393396D02*
X105695994Y-106793396D01*
X99615994Y-94813396D02*
X99615994Y-110373396D01*
X107015994Y-97643396D02*
X106415994Y-97343396D01*
X106415994Y-97343396D02*
X107015994Y-97043396D01*
X107015994Y-97043396D02*
X107015994Y-97643396D01*
X123000000Y-67150000D02*
X122400000Y-67150000D01*
X122700000Y-66550000D02*
X123000000Y-67150000D01*
X122400000Y-67150000D02*
X122700000Y-66550000D01*
X125230000Y-59750000D02*
X109670000Y-59750000D01*
X114650000Y-65830000D02*
X113250000Y-65830000D01*
X118150000Y-65830000D02*
X116750000Y-65830000D01*
X121650000Y-65830000D02*
X120250000Y-65830000D01*
X109670000Y-65830000D02*
X111150000Y-65830000D01*
X125230000Y-65830000D02*
X123750000Y-65830000D01*
X109670000Y-56470000D02*
X109670000Y-65830000D01*
X125230000Y-56470000D02*
X109670000Y-56470000D01*
X125230000Y-65830000D02*
X125230000Y-56470000D01*
X142220000Y-102220000D02*
X142220000Y-111580000D01*
X142220000Y-111580000D02*
X164780000Y-111580000D01*
X164780000Y-111580000D02*
X164780000Y-102220000D01*
X142220000Y-102220000D02*
X143700000Y-102220000D01*
X164780000Y-102220000D02*
X163300000Y-102220000D01*
X145800000Y-102220000D02*
X147200000Y-102220000D01*
X149300000Y-102220000D02*
X150700000Y-102220000D01*
X152800000Y-102220000D02*
X154200000Y-102220000D01*
X156300000Y-102220000D02*
X157700000Y-102220000D01*
X159800000Y-102220000D02*
X161200000Y-102220000D01*
X142220000Y-108300000D02*
X164780000Y-108300000D01*
X145050000Y-100900000D02*
X144750000Y-101500000D01*
X144750000Y-101500000D02*
X144450000Y-100900000D01*
X144450000Y-100900000D02*
X145050000Y-100900000D01*
X165720000Y-102220000D02*
X165720000Y-111580000D01*
X165720000Y-111580000D02*
X181280000Y-111580000D01*
X181280000Y-111580000D02*
X181280000Y-102220000D01*
X165720000Y-102220000D02*
X167200000Y-102220000D01*
X181280000Y-102220000D02*
X179800000Y-102220000D01*
X169300000Y-102220000D02*
X170700000Y-102220000D01*
X172800000Y-102220000D02*
X174200000Y-102220000D01*
X176300000Y-102220000D02*
X177700000Y-102220000D01*
X165720000Y-108300000D02*
X181280000Y-108300000D01*
X168550000Y-100900000D02*
X168250000Y-101500000D01*
X168250000Y-101500000D02*
X167950000Y-100900000D01*
X167950000Y-100900000D02*
X168550000Y-100900000D01*
X116125994Y-72903396D02*
X116125994Y-73833396D01*
X116125994Y-76063396D02*
X116125994Y-75133396D01*
X116125994Y-76063396D02*
X119285994Y-76063396D01*
X116125994Y-72903396D02*
X117585994Y-72903396D01*
X116125994Y-77825062D02*
X117585994Y-77825062D01*
X116125994Y-80985062D02*
X119285994Y-80985062D01*
X116125994Y-80985062D02*
X116125994Y-80055062D01*
X116125994Y-77825062D02*
X116125994Y-78755062D01*
X116125994Y-84016728D02*
X116125994Y-84946728D01*
X116125994Y-87176728D02*
X116125994Y-86246728D01*
X116125994Y-87176728D02*
X119285994Y-87176728D01*
X116125994Y-84016728D02*
X117585994Y-84016728D01*
X116125994Y-90208394D02*
X117585994Y-90208394D01*
X116125994Y-93368394D02*
X119285994Y-93368394D01*
X116125994Y-93368394D02*
X116125994Y-92438394D01*
X116125994Y-90208394D02*
X116125994Y-91138394D01*
X116125994Y-96400060D02*
X116125994Y-97330060D01*
X116125994Y-99560060D02*
X116125994Y-98630060D01*
X116125994Y-99560060D02*
X119285994Y-99560060D01*
X116125994Y-96400060D02*
X117585994Y-96400060D01*
X116125994Y-102591726D02*
X116125994Y-103521726D01*
X116125994Y-105751726D02*
X116125994Y-104821726D01*
X116125994Y-105751726D02*
X119285994Y-105751726D01*
X116125994Y-102591726D02*
X117585994Y-102591726D01*
X134920000Y-101760000D02*
X135850000Y-101760000D01*
X138080000Y-101760000D02*
X137150000Y-101760000D01*
X138080000Y-101760000D02*
X138080000Y-98600000D01*
X134920000Y-101760000D02*
X134920000Y-100300000D01*
X182670000Y-70760000D02*
X182670000Y-69300000D01*
X185830000Y-70760000D02*
X185830000Y-67600000D01*
X185830000Y-70760000D02*
X184900000Y-70760000D01*
X182670000Y-70760000D02*
X183600000Y-70760000D01*
X189170000Y-70760000D02*
X189170000Y-69300000D01*
X192330000Y-70760000D02*
X192330000Y-67600000D01*
X192330000Y-70760000D02*
X191400000Y-70760000D01*
X189170000Y-70760000D02*
X190100000Y-70760000D01*
X122850000Y-74340000D02*
X124150000Y-74340000D01*
X122850000Y-76160000D02*
X124150000Y-76160000D01*
X122850000Y-78340000D02*
X124150000Y-78340000D01*
X122850000Y-80160000D02*
X124150000Y-80160000D01*
X124850000Y-93620000D02*
X126150000Y-93620000D01*
X124850000Y-91800000D02*
X126150000Y-91800000D01*
X173090000Y-90650000D02*
X173090000Y-89350000D01*
X171270000Y-90650000D02*
X171270000Y-89350000D01*
X183540000Y-74812500D02*
X183540000Y-75112500D01*
X184960000Y-74812500D02*
X184960000Y-75112500D01*
X184100000Y-65290000D02*
X184400000Y-65290000D01*
X184100000Y-66710000D02*
X184400000Y-66710000D01*
X190040000Y-74812500D02*
X190040000Y-75112500D01*
X191460000Y-74812500D02*
X191460000Y-75112500D01*
X190600000Y-65290000D02*
X190900000Y-65290000D01*
X190600000Y-66710000D02*
X190900000Y-66710000D01*
X130260000Y-64530000D02*
X130260000Y-64970000D01*
X129240000Y-64530000D02*
X129240000Y-64970000D01*
M02*
