G04 #@! TF.GenerationSoftware,KiCad,Pcbnew,8.0.3*
G04 #@! TF.CreationDate,2024-06-11T22:00:58+02:00*
G04 #@! TF.ProjectId,project,70726f6a-6563-4742-9e6b-696361645f70,rev?*
G04 #@! TF.SameCoordinates,Original*
G04 #@! TF.FileFunction,Soldermask,Top*
G04 #@! TF.FilePolarity,Negative*
%FSLAX46Y46*%
G04 Gerber Fmt 4.6, Leading zero omitted, Abs format (unit mm)*
G04 Created by KiCad (PCBNEW 8.0.3) date 2024-06-11 22:00:58*
%MOMM*%
%LPD*%
G01*
G04 APERTURE LIST*
G04 Aperture macros list*
%AMRoundRect*
0 Rectangle with rounded corners*
0 $1 Rounding radius*
0 $2 $3 $4 $5 $6 $7 $8 $9 X,Y pos of 4 corners*
0 Add a 4 corners polygon primitive as box body*
4,1,4,$2,$3,$4,$5,$6,$7,$8,$9,$2,$3,0*
0 Add four circle primitives for the rounded corners*
1,1,$1+$1,$2,$3*
1,1,$1+$1,$4,$5*
1,1,$1+$1,$6,$7*
1,1,$1+$1,$8,$9*
0 Add four rect primitives between the rounded corners*
20,1,$1+$1,$2,$3,$4,$5,0*
20,1,$1+$1,$4,$5,$6,$7,0*
20,1,$1+$1,$6,$7,$8,$9,0*
20,1,$1+$1,$8,$9,$2,$3,0*%
G04 Aperture macros list end*
%ADD10RoundRect,0.200000X2.000000X1.250000X-2.000000X1.250000X-2.000000X-1.250000X2.000000X-1.250000X0*%
%ADD11C,6.200000*%
%ADD12RoundRect,0.200000X0.900000X-0.622500X0.900000X0.622500X-0.900000X0.622500X-0.900000X-0.622500X0*%
%ADD13C,1.400000*%
%ADD14RoundRect,0.200000X-0.850000X-0.850000X0.850000X-0.850000X0.850000X0.850000X-0.850000X0.850000X0*%
%ADD15O,2.100000X2.100000*%
%ADD16RoundRect,0.200000X-0.572500X-0.750000X0.572500X-0.750000X0.572500X0.750000X-0.572500X0.750000X0*%
%ADD17C,2.180000*%
%ADD18RoundRect,0.200000X0.800000X-0.800000X0.800000X0.800000X-0.800000X0.800000X-0.800000X-0.800000X0*%
%ADD19O,2.000000X2.000000*%
%ADD20RoundRect,0.200000X0.500000X-0.335000X0.500000X0.335000X-0.500000X0.335000X-0.500000X-0.335000X0*%
%ADD21RoundRect,0.200000X-1.800000X0.900000X-1.800000X-0.900000X1.800000X-0.900000X1.800000X0.900000X0*%
%ADD22O,4.000000X2.200000*%
%ADD23RoundRect,0.200000X0.900000X1.800000X-0.900000X1.800000X-0.900000X-1.800000X0.900000X-1.800000X0*%
%ADD24O,2.200000X4.000000*%
%ADD25RoundRect,0.200000X-0.900000X-1.800000X0.900000X-1.800000X0.900000X1.800000X-0.900000X1.800000X0*%
%ADD26RoundRect,0.200000X0.950000X0.400000X-0.950000X0.400000X-0.950000X-0.400000X0.950000X-0.400000X0*%
%ADD27RoundRect,0.200000X-0.400000X0.950000X-0.400000X-0.950000X0.400000X-0.950000X0.400000X0.950000X0*%
%ADD28RoundRect,0.200000X-0.622500X-0.900000X0.622500X-0.900000X0.622500X0.900000X-0.622500X0.900000X0*%
%ADD29RoundRect,0.200000X-0.750000X0.572500X-0.750000X-0.572500X0.750000X-0.572500X0.750000X0.572500X0*%
%ADD30RoundRect,0.200000X-0.500000X0.422500X-0.500000X-0.422500X0.500000X-0.422500X0.500000X0.422500X0*%
%ADD31RoundRect,0.200000X-0.850000X0.850000X-0.850000X-0.850000X0.850000X-0.850000X0.850000X0.850000X0*%
G04 APERTURE END LIST*
D10*
X177450000Y-96250000D03*
X183550000Y-96250000D03*
D11*
X133000000Y-108500000D03*
X191000000Y-108500000D03*
X191000000Y-59500000D03*
D12*
X130750000Y-80685000D03*
X130750000Y-77500000D03*
X180250000Y-76185000D03*
X180250000Y-73000000D03*
D13*
X187500000Y-66000000D03*
X191150000Y-64250000D03*
X134750000Y-60750000D03*
X129750000Y-61000000D03*
D14*
X184200000Y-80350000D03*
D15*
X186740000Y-80350000D03*
X184200000Y-82890000D03*
X186740000Y-82890000D03*
X184200000Y-85430000D03*
X186740000Y-85430000D03*
X184200000Y-87970000D03*
X186740000Y-87970000D03*
D12*
X162300000Y-76285000D03*
X162300000Y-73100000D03*
X165600000Y-76300000D03*
X165600000Y-73115000D03*
X168800000Y-76285000D03*
X168800000Y-73100000D03*
D16*
X124495000Y-86550000D03*
X126580000Y-86550000D03*
X123495000Y-98950000D03*
X125580000Y-98950000D03*
X123495000Y-103000000D03*
X125580000Y-103000000D03*
X139707500Y-99250000D03*
X141792500Y-99250000D03*
D17*
X133960000Y-82550000D03*
X174600000Y-82550000D03*
X133960000Y-67310000D03*
X174600000Y-67310000D03*
D18*
X136500000Y-82550000D03*
D19*
X139040000Y-82550000D03*
X141580000Y-82550000D03*
X144120000Y-82550000D03*
X146660000Y-82550000D03*
X149200000Y-82550000D03*
X151740000Y-82550000D03*
X154280000Y-82550000D03*
X156820000Y-82550000D03*
X159360000Y-82550000D03*
X161900000Y-82550000D03*
X164440000Y-82550000D03*
X166980000Y-82550000D03*
X169520000Y-82550000D03*
X172060000Y-82550000D03*
X172060000Y-67310000D03*
X169520000Y-67310000D03*
X166980000Y-67310000D03*
X164440000Y-67310000D03*
X161900000Y-67310000D03*
X159360000Y-67310000D03*
X156820000Y-67310000D03*
X154280000Y-67310000D03*
X151740000Y-67310000D03*
X149200000Y-67310000D03*
X146660000Y-67310000D03*
X144120000Y-67310000D03*
X141580000Y-67310000D03*
X139040000Y-67310000D03*
X136500000Y-67310000D03*
D20*
X129850000Y-69430000D03*
X129850000Y-67680000D03*
D21*
X104415994Y-61783396D03*
D22*
X104415994Y-65283396D03*
X104415994Y-68783396D03*
X104415994Y-72283396D03*
D21*
X104415994Y-79563396D03*
D22*
X104415994Y-83063396D03*
X104415994Y-86563396D03*
X104415994Y-90063396D03*
D21*
X104415994Y-97343396D03*
D22*
X104415994Y-100843396D03*
X104415994Y-104343396D03*
X104415994Y-107843396D03*
D23*
X122700000Y-64550000D03*
D24*
X119200000Y-64550000D03*
X115700000Y-64550000D03*
X112200000Y-64550000D03*
D25*
X144750000Y-103500000D03*
D24*
X148250000Y-103500000D03*
X151750000Y-103500000D03*
X155250000Y-103500000D03*
X158750000Y-103500000D03*
X162250000Y-103500000D03*
D25*
X168250000Y-103500000D03*
D24*
X171750000Y-103500000D03*
X175250000Y-103500000D03*
X178750000Y-103500000D03*
D26*
X118385994Y-75433396D03*
X118385994Y-73533396D03*
X115385994Y-74483396D03*
X118385994Y-80355062D03*
X118385994Y-78455062D03*
X115385994Y-79405062D03*
X118385994Y-86546728D03*
X118385994Y-84646728D03*
X115385994Y-85596728D03*
X118385994Y-92738394D03*
X118385994Y-90838394D03*
X115385994Y-91788394D03*
X118385994Y-98930060D03*
X118385994Y-97030060D03*
X115385994Y-97980060D03*
X118385994Y-105121726D03*
X118385994Y-103221726D03*
X115385994Y-104171726D03*
D27*
X137450000Y-99500000D03*
X135550000Y-99500000D03*
X136500000Y-102500000D03*
X185200000Y-68500000D03*
X183300000Y-68500000D03*
X184250000Y-71500000D03*
X191700000Y-68500000D03*
X189800000Y-68500000D03*
X190750000Y-71500000D03*
D28*
X121907500Y-75250000D03*
X125092500Y-75250000D03*
X121907500Y-79250000D03*
X125092500Y-79250000D03*
X123907500Y-92710000D03*
X127092500Y-92710000D03*
D12*
X172180000Y-91592500D03*
X172180000Y-88407500D03*
D29*
X184250000Y-73920000D03*
X184250000Y-76005000D03*
D16*
X183207500Y-66000000D03*
X185292500Y-66000000D03*
D29*
X190750000Y-73920000D03*
X190750000Y-76005000D03*
D16*
X189707500Y-66000000D03*
X191792500Y-66000000D03*
D30*
X129750000Y-63787500D03*
X129750000Y-65712500D03*
D31*
X137802500Y-60770000D03*
D15*
X137802500Y-58230000D03*
X140342500Y-60770000D03*
X140342500Y-58230000D03*
X142882500Y-60770000D03*
X142882500Y-58230000D03*
X145422500Y-60770000D03*
X145422500Y-58230000D03*
X147962500Y-60770000D03*
X147962500Y-58230000D03*
X150502500Y-60770000D03*
X150502500Y-58230000D03*
X153042500Y-60770000D03*
X153042500Y-58230000D03*
X155582500Y-60770000D03*
X155582500Y-58230000D03*
X158122500Y-60770000D03*
X158122500Y-58230000D03*
X160662500Y-60770000D03*
X160662500Y-58230000D03*
X163202500Y-60770000D03*
X163202500Y-58230000D03*
X165742500Y-60770000D03*
X165742500Y-58230000D03*
X168282500Y-60770000D03*
X168282500Y-58230000D03*
X170822500Y-60770000D03*
X170822500Y-58230000D03*
X173362500Y-60770000D03*
X173362500Y-58230000D03*
X175902500Y-60770000D03*
X175902500Y-58230000D03*
X178442500Y-60770000D03*
X178442500Y-58230000D03*
X180982500Y-60770000D03*
X180982500Y-58230000D03*
X183522500Y-60770000D03*
X183522500Y-58230000D03*
X186062500Y-60770000D03*
X186062500Y-58230000D03*
M02*
