M48
; DRILL file {KiCad 8.0.3} date 2024-06-11T23:45:34+0200
; FORMAT={-:-/ absolute / inch / decimal}
; #@! TF.CreationDate,2024-06-11T23:45:34+02:00
; #@! TF.GenerationSoftware,Kicad,Pcbnew,8.0.3
; #@! TF.FileFunction,Plated,1,2,PTH
FMAT,2
INCH
; #@! TA.AperFunction,Plated,PTH,ViaDrill
T1C0.0157
; #@! TA.AperFunction,Plated,PTH,ComponentDrill
T2C0.0315
; #@! TA.AperFunction,Plated,PTH,ComponentDrill
T3C0.0394
; #@! TA.AperFunction,Plated,PTH,ComponentDrill
T4C0.0472
%
G90
G05
T1
X1.3091Y1.3583
X1.435Y1.2329
X2.6102Y1.5925
X2.6336Y1.3386
X2.7402Y1.5925
X2.7579Y1.3504
X2.8661Y1.5878
X2.8661Y1.3718
X3.3169Y1.6063
X3.3839Y1.4173
X3.6024Y1.811
X3.7461Y1.8799
T2
X1.5945Y1.7594
X1.5945Y1.1594
X1.6945Y1.7594
X1.6945Y1.1594
X1.7945Y1.7594
X1.7945Y1.1594
X1.8945Y1.7594
X1.8945Y1.1594
X1.9945Y1.7594
X1.9945Y1.1594
X2.0945Y1.7594
X2.0945Y1.1594
X2.1945Y1.7594
X2.1945Y1.1594
X2.2945Y1.7594
X2.2945Y1.1594
X2.3945Y1.7594
X2.3945Y1.1594
X2.4945Y1.7594
X2.4945Y1.1594
X2.5945Y1.7594
X2.5945Y1.1594
X2.6945Y1.7594
X2.6945Y1.1594
X2.7945Y1.7594
X2.7945Y1.1594
X2.8945Y1.7594
X2.8945Y1.1594
X2.9945Y1.7594
X2.9945Y1.1594
T3
X1.6458Y2.1169
X1.6458Y2.0169
X1.7458Y2.1169
X1.7458Y2.0169
X1.8458Y2.1169
X1.8458Y2.0169
X1.9458Y2.1169
X1.9458Y2.0169
X2.0458Y2.1169
X2.0458Y2.0169
X2.1458Y2.1169
X2.1458Y2.0169
X2.2458Y2.1169
X2.2458Y2.0169
X2.3458Y2.1169
X2.3458Y2.0169
X2.4458Y2.1169
X2.4458Y2.0169
X2.5458Y2.1169
X2.5458Y2.0169
X2.6458Y2.1169
X2.6458Y2.0169
X2.7458Y2.1169
X2.7458Y2.0169
X2.8458Y2.1169
X2.8458Y2.0169
X2.9458Y2.1169
X2.9458Y2.0169
X3.0458Y2.1169
X3.0458Y2.0169
X3.1458Y2.1169
X3.1458Y2.0169
X3.2458Y2.1169
X3.2458Y2.0169
X3.3458Y2.1169
X3.3458Y2.0169
X3.4458Y2.1169
X3.4458Y2.0169
X3.4724Y1.2461
X3.4724Y1.1461
X3.4724Y1.0461
X3.4724Y0.9461
X3.5458Y2.1169
X3.5458Y2.0169
X3.5724Y1.2461
X3.5724Y1.1461
X3.5724Y1.0461
X3.5724Y0.9461
T4
X0.3313Y1.977
X0.3313Y1.8392
X0.3313Y1.7014
X0.3313Y1.5636
X0.3313Y1.277
X0.3313Y1.1392
X0.3313Y1.0014
X0.3313Y0.8636
X0.3313Y0.577
X0.3313Y0.4392
X0.3313Y0.3014
X0.3313Y0.1636
X0.6378Y1.8681
X0.7756Y1.8681
X0.9134Y1.8681
X1.0512Y1.8681
X1.9193Y0.3346
X2.0571Y0.3346
X2.1949Y0.3346
X2.3327Y0.3346
X2.4705Y0.3346
X2.6083Y0.3346
X2.8445Y0.3346
X2.9823Y0.3346
X3.1201Y0.3346
X3.2579Y0.3346
M30
