M48
; DRILL file {KiCad 8.0.3} date 2024-06-11T23:18:11+0200
; FORMAT={-:-/ absolute / inch / decimal}
; #@! TF.CreationDate,2024-06-11T23:18:11+02:00
; #@! TF.GenerationSoftware,Kicad,Pcbnew,8.0.3
; #@! TF.FileFunction,Plated,1,2,PTH
FMAT,2
INCH
; #@! TA.AperFunction,Plated,PTH,ViaDrill
T1C0.0157
; #@! TA.AperFunction,Plated,PTH,ComponentDrill
T2C0.0315
; #@! TA.AperFunction,Plated,PTH,ComponentDrill
T3C0.0394
; #@! TA.AperFunction,Plated,PTH,ComponentDrill
T4C0.0472
%
G90
G05
T1
X5.0886Y-3.0512
X5.2146Y-3.1766
X6.3898Y-2.8169
X6.4131Y-3.0709
X6.5197Y-2.8169
X6.5374Y-3.0591
X6.6457Y-2.8217
X6.6457Y-3.0377
X7.0965Y-2.8031
X7.1634Y-2.9921
X7.3819Y-2.5984
X7.5256Y-2.5295
T2
X5.374Y-2.65
X5.374Y-3.25
X5.474Y-2.65
X5.474Y-3.25
X5.574Y-2.65
X5.574Y-3.25
X5.674Y-2.65
X5.674Y-3.25
X5.774Y-2.65
X5.774Y-3.25
X5.874Y-2.65
X5.874Y-3.25
X5.974Y-2.65
X5.974Y-3.25
X6.074Y-2.65
X6.074Y-3.25
X6.174Y-2.65
X6.174Y-3.25
X6.274Y-2.65
X6.274Y-3.25
X6.374Y-2.65
X6.374Y-3.25
X6.474Y-2.65
X6.474Y-3.25
X6.574Y-2.65
X6.574Y-3.25
X6.674Y-2.65
X6.674Y-3.25
X6.774Y-2.65
X6.774Y-3.25
T3
X5.4253Y-2.2925
X5.4253Y-2.3925
X5.5253Y-2.2925
X5.5253Y-2.3925
X5.6253Y-2.2925
X5.6253Y-2.3925
X5.7253Y-2.2925
X5.7253Y-2.3925
X5.8253Y-2.2925
X5.8253Y-2.3925
X5.9253Y-2.2925
X5.9253Y-2.3925
X6.0253Y-2.2925
X6.0253Y-2.3925
X6.1253Y-2.2925
X6.1253Y-2.3925
X6.2253Y-2.2925
X6.2253Y-2.3925
X6.3253Y-2.2925
X6.3253Y-2.3925
X6.4253Y-2.2925
X6.4253Y-2.3925
X6.5253Y-2.2925
X6.5253Y-2.3925
X6.6253Y-2.2925
X6.6253Y-2.3925
X6.7253Y-2.2925
X6.7253Y-2.3925
X6.8253Y-2.2925
X6.8253Y-2.3925
X6.9253Y-2.2925
X6.9253Y-2.3925
X7.0253Y-2.2925
X7.0253Y-2.3925
X7.1253Y-2.2925
X7.1253Y-2.3925
X7.2253Y-2.2925
X7.2253Y-2.3925
X7.252Y-3.1634
X7.252Y-3.2634
X7.252Y-3.3634
X7.252Y-3.4634
X7.3253Y-2.2925
X7.3253Y-2.3925
X7.352Y-3.1634
X7.352Y-3.2634
X7.352Y-3.3634
X7.352Y-3.4634
T4
X4.1109Y-2.4324
X4.1109Y-2.5702
X4.1109Y-2.708
X4.1109Y-2.8458
X4.1109Y-3.1324
X4.1109Y-3.2702
X4.1109Y-3.408
X4.1109Y-3.5458
X4.1109Y-3.8324
X4.1109Y-3.9702
X4.1109Y-4.108
X4.1109Y-4.2458
X4.4173Y-2.5413
X4.5551Y-2.5413
X4.6929Y-2.5413
X4.8307Y-2.5413
X5.6988Y-4.0748
X5.8366Y-4.0748
X5.9744Y-4.0748
X6.1122Y-4.0748
X6.25Y-4.0748
X6.3878Y-4.0748
X6.624Y-4.0748
X6.7618Y-4.0748
X6.8996Y-4.0748
X7.0374Y-4.0748
M30
