%TF.GenerationSoftware,KiCad,Pcbnew,8.0.3*%
%TF.CreationDate,2024-06-11T23:45:37+02:00*%
%TF.ProjectId,project,70726f6a-6563-4742-9e6b-696361645f70,rev?*%
%TF.SameCoordinates,PX5b8d800PY6acfc00*%
%TF.FileFunction,Drillmap*%
%TF.FilePolarity,Positive*%
%FSLAX45Y45*%
G04 Gerber Fmt 4.5, Leading zero omitted, Abs format (unit mm)*
G04 Created by KiCad (PCBNEW 8.0.3) date 2024-06-11 23:45:37*
%MOMM*%
%LPD*%
G01*
G04 APERTURE LIST*
%ADD10C,0.150000*%
%ADD11C,0.200000*%
%ADD12C,0.100000*%
%ADD13C,0.120000*%
G04 APERTURE END LIST*
D10*
X9500000Y0D02*
X3700000Y0D01*
X9850000Y350000D02*
G75*
G02*
X9500000Y0I-350000J0D01*
G01*
X9500000Y5600000D02*
G75*
G02*
X9850000Y5250000I0J-350000D01*
G01*
D11*
X0Y5600000D02*
X0Y0D01*
X0Y0D02*
X3700000Y0D01*
D10*
X0Y5600000D02*
X9500000Y5600000D01*
X9850000Y5250000D02*
X9850000Y350000D01*
D11*
D12*
X3305000Y3470000D02*
X3345000Y3430000D01*
X3345000Y3470000D02*
X3305000Y3430000D01*
X3625000Y3151500D02*
X3665000Y3111500D01*
X3665000Y3151500D02*
X3625000Y3111500D01*
X6610000Y4065000D02*
X6650000Y4025000D01*
X6650000Y4065000D02*
X6610000Y4025000D01*
X6669250Y3420000D02*
X6709250Y3380000D01*
X6709250Y3420000D02*
X6669250Y3380000D01*
X6940000Y4065000D02*
X6980000Y4025000D01*
X6980000Y4065000D02*
X6940000Y4025000D01*
X6985000Y3450000D02*
X7025000Y3410000D01*
X7025000Y3450000D02*
X6985000Y3410000D01*
X7260000Y4053000D02*
X7300000Y4013000D01*
X7300000Y4053000D02*
X7260000Y4013000D01*
X7260000Y3504250D02*
X7300000Y3464250D01*
X7300000Y3504250D02*
X7260000Y3464250D01*
X8405000Y4100000D02*
X8445000Y4060000D01*
X8445000Y4100000D02*
X8405000Y4060000D01*
X8575000Y3620000D02*
X8615000Y3580000D01*
X8615000Y3620000D02*
X8575000Y3580000D01*
X9130000Y4620000D02*
X9170000Y4580000D01*
X9170000Y4620000D02*
X9130000Y4580000D01*
X9495000Y4795000D02*
X9535000Y4755000D01*
X9535000Y4795000D02*
X9495000Y4755000D01*
X4090000Y4469000D02*
G75*
G02*
X4010000Y4469000I-40000J0D01*
G01*
X4010000Y4469000D02*
G75*
G02*
X4090000Y4469000I40000J0D01*
G01*
X4090000Y2945000D02*
G75*
G02*
X4010000Y2945000I-40000J0D01*
G01*
X4010000Y2945000D02*
G75*
G02*
X4090000Y2945000I40000J0D01*
G01*
X4344000Y4469000D02*
G75*
G02*
X4264000Y4469000I-40000J0D01*
G01*
X4264000Y4469000D02*
G75*
G02*
X4344000Y4469000I40000J0D01*
G01*
X4344000Y2945000D02*
G75*
G02*
X4264000Y2945000I-40000J0D01*
G01*
X4264000Y2945000D02*
G75*
G02*
X4344000Y2945000I40000J0D01*
G01*
X4598000Y4469000D02*
G75*
G02*
X4518000Y4469000I-40000J0D01*
G01*
X4518000Y4469000D02*
G75*
G02*
X4598000Y4469000I40000J0D01*
G01*
X4598000Y2945000D02*
G75*
G02*
X4518000Y2945000I-40000J0D01*
G01*
X4518000Y2945000D02*
G75*
G02*
X4598000Y2945000I40000J0D01*
G01*
X4852000Y4469000D02*
G75*
G02*
X4772000Y4469000I-40000J0D01*
G01*
X4772000Y4469000D02*
G75*
G02*
X4852000Y4469000I40000J0D01*
G01*
X4852000Y2945000D02*
G75*
G02*
X4772000Y2945000I-40000J0D01*
G01*
X4772000Y2945000D02*
G75*
G02*
X4852000Y2945000I40000J0D01*
G01*
X5106000Y4469000D02*
G75*
G02*
X5026000Y4469000I-40000J0D01*
G01*
X5026000Y4469000D02*
G75*
G02*
X5106000Y4469000I40000J0D01*
G01*
X5106000Y2945000D02*
G75*
G02*
X5026000Y2945000I-40000J0D01*
G01*
X5026000Y2945000D02*
G75*
G02*
X5106000Y2945000I40000J0D01*
G01*
X5360000Y4469000D02*
G75*
G02*
X5280000Y4469000I-40000J0D01*
G01*
X5280000Y4469000D02*
G75*
G02*
X5360000Y4469000I40000J0D01*
G01*
X5360000Y2945000D02*
G75*
G02*
X5280000Y2945000I-40000J0D01*
G01*
X5280000Y2945000D02*
G75*
G02*
X5360000Y2945000I40000J0D01*
G01*
X5614000Y4469000D02*
G75*
G02*
X5534000Y4469000I-40000J0D01*
G01*
X5534000Y4469000D02*
G75*
G02*
X5614000Y4469000I40000J0D01*
G01*
X5614000Y2945000D02*
G75*
G02*
X5534000Y2945000I-40000J0D01*
G01*
X5534000Y2945000D02*
G75*
G02*
X5614000Y2945000I40000J0D01*
G01*
X5868000Y4469000D02*
G75*
G02*
X5788000Y4469000I-40000J0D01*
G01*
X5788000Y4469000D02*
G75*
G02*
X5868000Y4469000I40000J0D01*
G01*
X5868000Y2945000D02*
G75*
G02*
X5788000Y2945000I-40000J0D01*
G01*
X5788000Y2945000D02*
G75*
G02*
X5868000Y2945000I40000J0D01*
G01*
X6122000Y4469000D02*
G75*
G02*
X6042000Y4469000I-40000J0D01*
G01*
X6042000Y4469000D02*
G75*
G02*
X6122000Y4469000I40000J0D01*
G01*
X6122000Y2945000D02*
G75*
G02*
X6042000Y2945000I-40000J0D01*
G01*
X6042000Y2945000D02*
G75*
G02*
X6122000Y2945000I40000J0D01*
G01*
X6376000Y4469000D02*
G75*
G02*
X6296000Y4469000I-40000J0D01*
G01*
X6296000Y4469000D02*
G75*
G02*
X6376000Y4469000I40000J0D01*
G01*
X6376000Y2945000D02*
G75*
G02*
X6296000Y2945000I-40000J0D01*
G01*
X6296000Y2945000D02*
G75*
G02*
X6376000Y2945000I40000J0D01*
G01*
X6630000Y4469000D02*
G75*
G02*
X6550000Y4469000I-40000J0D01*
G01*
X6550000Y4469000D02*
G75*
G02*
X6630000Y4469000I40000J0D01*
G01*
X6630000Y2945000D02*
G75*
G02*
X6550000Y2945000I-40000J0D01*
G01*
X6550000Y2945000D02*
G75*
G02*
X6630000Y2945000I40000J0D01*
G01*
X6884000Y4469000D02*
G75*
G02*
X6804000Y4469000I-40000J0D01*
G01*
X6804000Y4469000D02*
G75*
G02*
X6884000Y4469000I40000J0D01*
G01*
X6884000Y2945000D02*
G75*
G02*
X6804000Y2945000I-40000J0D01*
G01*
X6804000Y2945000D02*
G75*
G02*
X6884000Y2945000I40000J0D01*
G01*
X7138000Y4469000D02*
G75*
G02*
X7058000Y4469000I-40000J0D01*
G01*
X7058000Y4469000D02*
G75*
G02*
X7138000Y4469000I40000J0D01*
G01*
X7138000Y2945000D02*
G75*
G02*
X7058000Y2945000I-40000J0D01*
G01*
X7058000Y2945000D02*
G75*
G02*
X7138000Y2945000I40000J0D01*
G01*
X7392000Y4469000D02*
G75*
G02*
X7312000Y4469000I-40000J0D01*
G01*
X7312000Y4469000D02*
G75*
G02*
X7392000Y4469000I40000J0D01*
G01*
X7392000Y2945000D02*
G75*
G02*
X7312000Y2945000I-40000J0D01*
G01*
X7312000Y2945000D02*
G75*
G02*
X7392000Y2945000I40000J0D01*
G01*
X7646000Y4469000D02*
G75*
G02*
X7566000Y4469000I-40000J0D01*
G01*
X7566000Y4469000D02*
G75*
G02*
X7646000Y4469000I40000J0D01*
G01*
X7646000Y2945000D02*
G75*
G02*
X7566000Y2945000I-40000J0D01*
G01*
X7566000Y2945000D02*
G75*
G02*
X7646000Y2945000I40000J0D01*
G01*
X4180250Y5427000D02*
X4180250Y5327000D01*
X4130250Y5377000D02*
X4230250Y5377000D01*
X4180250Y5173000D02*
X4180250Y5073000D01*
X4130250Y5123000D02*
X4230250Y5123000D01*
X4434250Y5427000D02*
X4434250Y5327000D01*
X4384250Y5377000D02*
X4484250Y5377000D01*
X4434250Y5173000D02*
X4434250Y5073000D01*
X4384250Y5123000D02*
X4484250Y5123000D01*
X4688250Y5427000D02*
X4688250Y5327000D01*
X4638250Y5377000D02*
X4738250Y5377000D01*
X4688250Y5173000D02*
X4688250Y5073000D01*
X4638250Y5123000D02*
X4738250Y5123000D01*
X4942250Y5427000D02*
X4942250Y5327000D01*
X4892250Y5377000D02*
X4992250Y5377000D01*
X4942250Y5173000D02*
X4942250Y5073000D01*
X4892250Y5123000D02*
X4992250Y5123000D01*
X5196250Y5427000D02*
X5196250Y5327000D01*
X5146250Y5377000D02*
X5246250Y5377000D01*
X5196250Y5173000D02*
X5196250Y5073000D01*
X5146250Y5123000D02*
X5246250Y5123000D01*
X5450250Y5427000D02*
X5450250Y5327000D01*
X5400250Y5377000D02*
X5500250Y5377000D01*
X5450250Y5173000D02*
X5450250Y5073000D01*
X5400250Y5123000D02*
X5500250Y5123000D01*
X5704250Y5427000D02*
X5704250Y5327000D01*
X5654250Y5377000D02*
X5754250Y5377000D01*
X5704250Y5173000D02*
X5704250Y5073000D01*
X5654250Y5123000D02*
X5754250Y5123000D01*
X5958250Y5427000D02*
X5958250Y5327000D01*
X5908250Y5377000D02*
X6008250Y5377000D01*
X5958250Y5173000D02*
X5958250Y5073000D01*
X5908250Y5123000D02*
X6008250Y5123000D01*
X6212250Y5427000D02*
X6212250Y5327000D01*
X6162250Y5377000D02*
X6262250Y5377000D01*
X6212250Y5173000D02*
X6212250Y5073000D01*
X6162250Y5123000D02*
X6262250Y5123000D01*
X6466250Y5427000D02*
X6466250Y5327000D01*
X6416250Y5377000D02*
X6516250Y5377000D01*
X6466250Y5173000D02*
X6466250Y5073000D01*
X6416250Y5123000D02*
X6516250Y5123000D01*
X6720250Y5427000D02*
X6720250Y5327000D01*
X6670250Y5377000D02*
X6770250Y5377000D01*
X6720250Y5173000D02*
X6720250Y5073000D01*
X6670250Y5123000D02*
X6770250Y5123000D01*
X6974250Y5427000D02*
X6974250Y5327000D01*
X6924250Y5377000D02*
X7024250Y5377000D01*
X6974250Y5173000D02*
X6974250Y5073000D01*
X6924250Y5123000D02*
X7024250Y5123000D01*
X7228250Y5427000D02*
X7228250Y5327000D01*
X7178250Y5377000D02*
X7278250Y5377000D01*
X7228250Y5173000D02*
X7228250Y5073000D01*
X7178250Y5123000D02*
X7278250Y5123000D01*
X7482250Y5427000D02*
X7482250Y5327000D01*
X7432250Y5377000D02*
X7532250Y5377000D01*
X7482250Y5173000D02*
X7482250Y5073000D01*
X7432250Y5123000D02*
X7532250Y5123000D01*
X7736250Y5427000D02*
X7736250Y5327000D01*
X7686250Y5377000D02*
X7786250Y5377000D01*
X7736250Y5173000D02*
X7736250Y5073000D01*
X7686250Y5123000D02*
X7786250Y5123000D01*
X7990250Y5427000D02*
X7990250Y5327000D01*
X7940250Y5377000D02*
X8040250Y5377000D01*
X7990250Y5173000D02*
X7990250Y5073000D01*
X7940250Y5123000D02*
X8040250Y5123000D01*
X8244250Y5427000D02*
X8244250Y5327000D01*
X8194250Y5377000D02*
X8294250Y5377000D01*
X8244250Y5173000D02*
X8244250Y5073000D01*
X8194250Y5123000D02*
X8294250Y5123000D01*
X8498250Y5427000D02*
X8498250Y5327000D01*
X8448250Y5377000D02*
X8548250Y5377000D01*
X8498250Y5173000D02*
X8498250Y5073000D01*
X8448250Y5123000D02*
X8548250Y5123000D01*
X8752250Y5427000D02*
X8752250Y5327000D01*
X8702250Y5377000D02*
X8802250Y5377000D01*
X8752250Y5173000D02*
X8752250Y5073000D01*
X8702250Y5123000D02*
X8802250Y5123000D01*
X8820000Y3215000D02*
X8820000Y3115000D01*
X8770000Y3165000D02*
X8870000Y3165000D01*
X8820000Y2961000D02*
X8820000Y2861000D01*
X8770000Y2911000D02*
X8870000Y2911000D01*
X8820000Y2707000D02*
X8820000Y2607000D01*
X8770000Y2657000D02*
X8870000Y2657000D01*
X8820000Y2453000D02*
X8820000Y2353000D01*
X8770000Y2403000D02*
X8870000Y2403000D01*
X9006250Y5427000D02*
X9006250Y5327000D01*
X8956250Y5377000D02*
X9056250Y5377000D01*
X9006250Y5173000D02*
X9006250Y5073000D01*
X8956250Y5123000D02*
X9056250Y5123000D01*
X9074000Y3215000D02*
X9074000Y3115000D01*
X9024000Y3165000D02*
X9124000Y3165000D01*
X9074000Y2961000D02*
X9074000Y2861000D01*
X9024000Y2911000D02*
X9124000Y2911000D01*
X9074000Y2707000D02*
X9074000Y2607000D01*
X9024000Y2657000D02*
X9124000Y2657000D01*
X9074000Y2453000D02*
X9074000Y2353000D01*
X9024000Y2403000D02*
X9124000Y2403000D01*
D13*
X884026Y4979234D02*
X884026Y5064087D01*
X799173Y5064087D01*
X799173Y4979234D01*
X884026Y4979234D01*
X884026Y4629234D02*
X884026Y4714087D01*
X799173Y4714087D01*
X799173Y4629234D01*
X884026Y4629234D01*
X884026Y4279234D02*
X884026Y4364087D01*
X799173Y4364087D01*
X799173Y4279234D01*
X884026Y4279234D01*
X884026Y3929234D02*
X884026Y4014087D01*
X799173Y4014087D01*
X799173Y3929234D01*
X884026Y3929234D01*
X884026Y3201234D02*
X884026Y3286087D01*
X799173Y3286087D01*
X799173Y3201234D01*
X884026Y3201234D01*
X884026Y2851234D02*
X884026Y2936087D01*
X799173Y2936087D01*
X799173Y2851234D01*
X884026Y2851234D01*
X884026Y2501234D02*
X884026Y2586087D01*
X799173Y2586087D01*
X799173Y2501234D01*
X884026Y2501234D01*
X884026Y2151234D02*
X884026Y2236087D01*
X799173Y2236087D01*
X799173Y2151234D01*
X884026Y2151234D01*
X884026Y1423234D02*
X884026Y1508087D01*
X799173Y1508087D01*
X799173Y1423234D01*
X884026Y1423234D01*
X884026Y1073234D02*
X884026Y1158087D01*
X799173Y1158087D01*
X799173Y1073234D01*
X884026Y1073234D01*
X884026Y723234D02*
X884026Y808087D01*
X799173Y808087D01*
X799173Y723234D01*
X884026Y723234D01*
X884026Y373234D02*
X884026Y458087D01*
X799173Y458087D01*
X799173Y373234D01*
X884026Y373234D01*
X1662427Y4702573D02*
X1662427Y4787427D01*
X1577573Y4787427D01*
X1577573Y4702573D01*
X1662427Y4702573D01*
X2012427Y4702573D02*
X2012427Y4787427D01*
X1927573Y4787427D01*
X1927573Y4702573D01*
X2012427Y4702573D01*
X2362427Y4702573D02*
X2362427Y4787427D01*
X2277573Y4787427D01*
X2277573Y4702573D01*
X2362427Y4702573D01*
X2712427Y4702573D02*
X2712427Y4787427D01*
X2627573Y4787427D01*
X2627573Y4702573D01*
X2712427Y4702573D01*
X4917427Y807573D02*
X4917427Y892427D01*
X4832573Y892427D01*
X4832573Y807573D01*
X4917427Y807573D01*
X5267427Y807573D02*
X5267427Y892427D01*
X5182573Y892427D01*
X5182573Y807573D01*
X5267427Y807573D01*
X5617427Y807573D02*
X5617427Y892427D01*
X5532573Y892427D01*
X5532573Y807573D01*
X5617427Y807573D01*
X5967427Y807573D02*
X5967427Y892427D01*
X5882573Y892427D01*
X5882573Y807573D01*
X5967427Y807573D01*
X6317427Y807573D02*
X6317427Y892427D01*
X6232573Y892427D01*
X6232573Y807573D01*
X6317427Y807573D01*
X6667427Y807573D02*
X6667427Y892427D01*
X6582573Y892427D01*
X6582573Y807573D01*
X6667427Y807573D01*
X7267427Y807573D02*
X7267427Y892427D01*
X7182573Y892427D01*
X7182573Y807573D01*
X7267427Y807573D01*
X7617427Y807573D02*
X7617427Y892427D01*
X7532573Y892427D01*
X7532573Y807573D01*
X7617427Y807573D01*
X7967427Y807573D02*
X7967427Y892427D01*
X7882573Y892427D01*
X7882573Y807573D01*
X7967427Y807573D01*
X8317427Y807573D02*
X8317427Y892427D01*
X8232573Y892427D01*
X8232573Y807573D01*
X8317427Y807573D01*
D11*
X250777Y-321484D02*
X250777Y-121484D01*
X250777Y-121484D02*
X298396Y-121484D01*
X298396Y-121484D02*
X326967Y-131008D01*
X326967Y-131008D02*
X346015Y-150055D01*
X346015Y-150055D02*
X355539Y-169103D01*
X355539Y-169103D02*
X365062Y-207198D01*
X365062Y-207198D02*
X365062Y-235769D01*
X365062Y-235769D02*
X355539Y-273865D01*
X355539Y-273865D02*
X346015Y-292912D01*
X346015Y-292912D02*
X326967Y-311960D01*
X326967Y-311960D02*
X298396Y-321484D01*
X298396Y-321484D02*
X250777Y-321484D01*
X450777Y-321484D02*
X450777Y-188150D01*
X450777Y-226246D02*
X460301Y-207198D01*
X460301Y-207198D02*
X469824Y-197674D01*
X469824Y-197674D02*
X488872Y-188150D01*
X488872Y-188150D02*
X507920Y-188150D01*
X574586Y-321484D02*
X574586Y-188150D01*
X574586Y-121484D02*
X565063Y-131008D01*
X565063Y-131008D02*
X574586Y-140531D01*
X574586Y-140531D02*
X584110Y-131008D01*
X584110Y-131008D02*
X574586Y-121484D01*
X574586Y-121484D02*
X574586Y-140531D01*
X698396Y-321484D02*
X679348Y-311960D01*
X679348Y-311960D02*
X669824Y-292912D01*
X669824Y-292912D02*
X669824Y-121484D01*
X803158Y-321484D02*
X784110Y-311960D01*
X784110Y-311960D02*
X774586Y-292912D01*
X774586Y-292912D02*
X774586Y-121484D01*
X1031729Y-321484D02*
X1031729Y-121484D01*
X1031729Y-121484D02*
X1098396Y-264341D01*
X1098396Y-264341D02*
X1165063Y-121484D01*
X1165063Y-121484D02*
X1165063Y-321484D01*
X1346015Y-321484D02*
X1346015Y-216722D01*
X1346015Y-216722D02*
X1336491Y-197674D01*
X1336491Y-197674D02*
X1317444Y-188150D01*
X1317444Y-188150D02*
X1279348Y-188150D01*
X1279348Y-188150D02*
X1260301Y-197674D01*
X1346015Y-311960D02*
X1326967Y-321484D01*
X1326967Y-321484D02*
X1279348Y-321484D01*
X1279348Y-321484D02*
X1260301Y-311960D01*
X1260301Y-311960D02*
X1250777Y-292912D01*
X1250777Y-292912D02*
X1250777Y-273865D01*
X1250777Y-273865D02*
X1260301Y-254817D01*
X1260301Y-254817D02*
X1279348Y-245293D01*
X1279348Y-245293D02*
X1326967Y-245293D01*
X1326967Y-245293D02*
X1346015Y-235769D01*
X1441253Y-188150D02*
X1441253Y-388150D01*
X1441253Y-197674D02*
X1460301Y-188150D01*
X1460301Y-188150D02*
X1498396Y-188150D01*
X1498396Y-188150D02*
X1517443Y-197674D01*
X1517443Y-197674D02*
X1526967Y-207198D01*
X1526967Y-207198D02*
X1536491Y-226246D01*
X1536491Y-226246D02*
X1536491Y-283389D01*
X1536491Y-283389D02*
X1526967Y-302436D01*
X1526967Y-302436D02*
X1517443Y-311960D01*
X1517443Y-311960D02*
X1498396Y-321484D01*
X1498396Y-321484D02*
X1460301Y-321484D01*
X1460301Y-321484D02*
X1441253Y-311960D01*
X1622205Y-302436D02*
X1631729Y-311960D01*
X1631729Y-311960D02*
X1622205Y-321484D01*
X1622205Y-321484D02*
X1612682Y-311960D01*
X1612682Y-311960D02*
X1622205Y-302436D01*
X1622205Y-302436D02*
X1622205Y-321484D01*
X1622205Y-197674D02*
X1631729Y-207198D01*
X1631729Y-207198D02*
X1622205Y-216722D01*
X1622205Y-216722D02*
X1612682Y-207198D01*
X1612682Y-207198D02*
X1622205Y-197674D01*
X1622205Y-197674D02*
X1622205Y-216722D01*
D12*
X-50000Y-630000D02*
X-10000Y-670000D01*
X-10000Y-630000D02*
X-50000Y-670000D01*
D11*
X288872Y-541484D02*
X307920Y-541484D01*
X307920Y-541484D02*
X326967Y-551008D01*
X326967Y-551008D02*
X336491Y-560531D01*
X336491Y-560531D02*
X346015Y-579579D01*
X346015Y-579579D02*
X355539Y-617674D01*
X355539Y-617674D02*
X355539Y-665293D01*
X355539Y-665293D02*
X346015Y-703388D01*
X346015Y-703388D02*
X336491Y-722436D01*
X336491Y-722436D02*
X326967Y-731960D01*
X326967Y-731960D02*
X307920Y-741484D01*
X307920Y-741484D02*
X288872Y-741484D01*
X288872Y-741484D02*
X269824Y-731960D01*
X269824Y-731960D02*
X260301Y-722436D01*
X260301Y-722436D02*
X250777Y-703388D01*
X250777Y-703388D02*
X241253Y-665293D01*
X241253Y-665293D02*
X241253Y-617674D01*
X241253Y-617674D02*
X250777Y-579579D01*
X250777Y-579579D02*
X260301Y-560531D01*
X260301Y-560531D02*
X269824Y-551008D01*
X269824Y-551008D02*
X288872Y-541484D01*
X441253Y-722436D02*
X450777Y-731960D01*
X450777Y-731960D02*
X441253Y-741484D01*
X441253Y-741484D02*
X431729Y-731960D01*
X431729Y-731960D02*
X441253Y-722436D01*
X441253Y-722436D02*
X441253Y-741484D01*
X622205Y-608150D02*
X622205Y-741484D01*
X574586Y-531960D02*
X526967Y-674817D01*
X526967Y-674817D02*
X650777Y-674817D01*
X765062Y-541484D02*
X784110Y-541484D01*
X784110Y-541484D02*
X803158Y-551008D01*
X803158Y-551008D02*
X812682Y-560531D01*
X812682Y-560531D02*
X822205Y-579579D01*
X822205Y-579579D02*
X831729Y-617674D01*
X831729Y-617674D02*
X831729Y-665293D01*
X831729Y-665293D02*
X822205Y-703388D01*
X822205Y-703388D02*
X812682Y-722436D01*
X812682Y-722436D02*
X803158Y-731960D01*
X803158Y-731960D02*
X784110Y-741484D01*
X784110Y-741484D02*
X765062Y-741484D01*
X765062Y-741484D02*
X746015Y-731960D01*
X746015Y-731960D02*
X736491Y-722436D01*
X736491Y-722436D02*
X726967Y-703388D01*
X726967Y-703388D02*
X717443Y-665293D01*
X717443Y-665293D02*
X717443Y-617674D01*
X717443Y-617674D02*
X726967Y-579579D01*
X726967Y-579579D02*
X736491Y-560531D01*
X736491Y-560531D02*
X746015Y-551008D01*
X746015Y-551008D02*
X765062Y-541484D01*
X955539Y-541484D02*
X974586Y-541484D01*
X974586Y-541484D02*
X993634Y-551008D01*
X993634Y-551008D02*
X1003158Y-560531D01*
X1003158Y-560531D02*
X1012682Y-579579D01*
X1012682Y-579579D02*
X1022205Y-617674D01*
X1022205Y-617674D02*
X1022205Y-665293D01*
X1022205Y-665293D02*
X1012682Y-703388D01*
X1012682Y-703388D02*
X1003158Y-722436D01*
X1003158Y-722436D02*
X993634Y-731960D01*
X993634Y-731960D02*
X974586Y-741484D01*
X974586Y-741484D02*
X955539Y-741484D01*
X955539Y-741484D02*
X936491Y-731960D01*
X936491Y-731960D02*
X926967Y-722436D01*
X926967Y-722436D02*
X917443Y-703388D01*
X917443Y-703388D02*
X907920Y-665293D01*
X907920Y-665293D02*
X907920Y-617674D01*
X907920Y-617674D02*
X917443Y-579579D01*
X917443Y-579579D02*
X926967Y-560531D01*
X926967Y-560531D02*
X936491Y-551008D01*
X936491Y-551008D02*
X955539Y-541484D01*
X1107920Y-741484D02*
X1107920Y-608150D01*
X1107920Y-627198D02*
X1117444Y-617674D01*
X1117444Y-617674D02*
X1136491Y-608150D01*
X1136491Y-608150D02*
X1165063Y-608150D01*
X1165063Y-608150D02*
X1184110Y-617674D01*
X1184110Y-617674D02*
X1193634Y-636722D01*
X1193634Y-636722D02*
X1193634Y-741484D01*
X1193634Y-636722D02*
X1203158Y-617674D01*
X1203158Y-617674D02*
X1222205Y-608150D01*
X1222205Y-608150D02*
X1250777Y-608150D01*
X1250777Y-608150D02*
X1269825Y-617674D01*
X1269825Y-617674D02*
X1279348Y-636722D01*
X1279348Y-636722D02*
X1279348Y-741484D01*
X1374586Y-741484D02*
X1374586Y-608150D01*
X1374586Y-627198D02*
X1384110Y-617674D01*
X1384110Y-617674D02*
X1403158Y-608150D01*
X1403158Y-608150D02*
X1431729Y-608150D01*
X1431729Y-608150D02*
X1450777Y-617674D01*
X1450777Y-617674D02*
X1460301Y-636722D01*
X1460301Y-636722D02*
X1460301Y-741484D01*
X1460301Y-636722D02*
X1469824Y-617674D01*
X1469824Y-617674D02*
X1488872Y-608150D01*
X1488872Y-608150D02*
X1517443Y-608150D01*
X1517443Y-608150D02*
X1536491Y-617674D01*
X1536491Y-617674D02*
X1546015Y-636722D01*
X1546015Y-636722D02*
X1546015Y-741484D01*
X1936491Y-531960D02*
X1765063Y-789103D01*
X2193634Y-541484D02*
X2212682Y-541484D01*
X2212682Y-541484D02*
X2231729Y-551008D01*
X2231729Y-551008D02*
X2241253Y-560531D01*
X2241253Y-560531D02*
X2250777Y-579579D01*
X2250777Y-579579D02*
X2260301Y-617674D01*
X2260301Y-617674D02*
X2260301Y-665293D01*
X2260301Y-665293D02*
X2250777Y-703388D01*
X2250777Y-703388D02*
X2241253Y-722436D01*
X2241253Y-722436D02*
X2231729Y-731960D01*
X2231729Y-731960D02*
X2212682Y-741484D01*
X2212682Y-741484D02*
X2193634Y-741484D01*
X2193634Y-741484D02*
X2174587Y-731960D01*
X2174587Y-731960D02*
X2165063Y-722436D01*
X2165063Y-722436D02*
X2155539Y-703388D01*
X2155539Y-703388D02*
X2146015Y-665293D01*
X2146015Y-665293D02*
X2146015Y-617674D01*
X2146015Y-617674D02*
X2155539Y-579579D01*
X2155539Y-579579D02*
X2165063Y-560531D01*
X2165063Y-560531D02*
X2174587Y-551008D01*
X2174587Y-551008D02*
X2193634Y-541484D01*
X2346015Y-722436D02*
X2355539Y-731960D01*
X2355539Y-731960D02*
X2346015Y-741484D01*
X2346015Y-741484D02*
X2336491Y-731960D01*
X2336491Y-731960D02*
X2346015Y-722436D01*
X2346015Y-722436D02*
X2346015Y-741484D01*
X2479348Y-541484D02*
X2498396Y-541484D01*
X2498396Y-541484D02*
X2517444Y-551008D01*
X2517444Y-551008D02*
X2526968Y-560531D01*
X2526968Y-560531D02*
X2536491Y-579579D01*
X2536491Y-579579D02*
X2546015Y-617674D01*
X2546015Y-617674D02*
X2546015Y-665293D01*
X2546015Y-665293D02*
X2536491Y-703388D01*
X2536491Y-703388D02*
X2526968Y-722436D01*
X2526968Y-722436D02*
X2517444Y-731960D01*
X2517444Y-731960D02*
X2498396Y-741484D01*
X2498396Y-741484D02*
X2479348Y-741484D01*
X2479348Y-741484D02*
X2460301Y-731960D01*
X2460301Y-731960D02*
X2450777Y-722436D01*
X2450777Y-722436D02*
X2441253Y-703388D01*
X2441253Y-703388D02*
X2431729Y-665293D01*
X2431729Y-665293D02*
X2431729Y-617674D01*
X2431729Y-617674D02*
X2441253Y-579579D01*
X2441253Y-579579D02*
X2450777Y-560531D01*
X2450777Y-560531D02*
X2460301Y-551008D01*
X2460301Y-551008D02*
X2479348Y-541484D01*
X2736491Y-741484D02*
X2622206Y-741484D01*
X2679348Y-741484D02*
X2679348Y-541484D01*
X2679348Y-541484D02*
X2660301Y-570055D01*
X2660301Y-570055D02*
X2641253Y-589103D01*
X2641253Y-589103D02*
X2622206Y-598627D01*
X2917444Y-541484D02*
X2822206Y-541484D01*
X2822206Y-541484D02*
X2812682Y-636722D01*
X2812682Y-636722D02*
X2822206Y-627198D01*
X2822206Y-627198D02*
X2841253Y-617674D01*
X2841253Y-617674D02*
X2888872Y-617674D01*
X2888872Y-617674D02*
X2907920Y-627198D01*
X2907920Y-627198D02*
X2917444Y-636722D01*
X2917444Y-636722D02*
X2926967Y-655770D01*
X2926967Y-655770D02*
X2926967Y-703388D01*
X2926967Y-703388D02*
X2917444Y-722436D01*
X2917444Y-722436D02*
X2907920Y-731960D01*
X2907920Y-731960D02*
X2888872Y-741484D01*
X2888872Y-741484D02*
X2841253Y-741484D01*
X2841253Y-741484D02*
X2822206Y-731960D01*
X2822206Y-731960D02*
X2812682Y-722436D01*
X2993634Y-541484D02*
X3126967Y-541484D01*
X3126967Y-541484D02*
X3041253Y-741484D01*
X3193634Y-541484D02*
X3193634Y-579579D01*
X3269825Y-541484D02*
X3269825Y-579579D01*
X3565063Y-817674D02*
X3555539Y-808150D01*
X3555539Y-808150D02*
X3536491Y-779579D01*
X3536491Y-779579D02*
X3526968Y-760531D01*
X3526968Y-760531D02*
X3517444Y-731960D01*
X3517444Y-731960D02*
X3507920Y-684341D01*
X3507920Y-684341D02*
X3507920Y-646246D01*
X3507920Y-646246D02*
X3517444Y-598627D01*
X3517444Y-598627D02*
X3526968Y-570055D01*
X3526968Y-570055D02*
X3536491Y-551008D01*
X3536491Y-551008D02*
X3555539Y-522436D01*
X3555539Y-522436D02*
X3565063Y-512912D01*
X3746015Y-741484D02*
X3631729Y-741484D01*
X3688872Y-741484D02*
X3688872Y-541484D01*
X3688872Y-541484D02*
X3669825Y-570055D01*
X3669825Y-570055D02*
X3650777Y-589103D01*
X3650777Y-589103D02*
X3631729Y-598627D01*
X3822206Y-560531D02*
X3831729Y-551008D01*
X3831729Y-551008D02*
X3850777Y-541484D01*
X3850777Y-541484D02*
X3898396Y-541484D01*
X3898396Y-541484D02*
X3917444Y-551008D01*
X3917444Y-551008D02*
X3926968Y-560531D01*
X3926968Y-560531D02*
X3936491Y-579579D01*
X3936491Y-579579D02*
X3936491Y-598627D01*
X3936491Y-598627D02*
X3926968Y-627198D01*
X3926968Y-627198D02*
X3812682Y-741484D01*
X3812682Y-741484D02*
X3936491Y-741484D01*
X4174587Y-741484D02*
X4174587Y-541484D01*
X4260301Y-741484D02*
X4260301Y-636722D01*
X4260301Y-636722D02*
X4250777Y-617674D01*
X4250777Y-617674D02*
X4231730Y-608150D01*
X4231730Y-608150D02*
X4203158Y-608150D01*
X4203158Y-608150D02*
X4184110Y-617674D01*
X4184110Y-617674D02*
X4174587Y-627198D01*
X4384111Y-741484D02*
X4365063Y-731960D01*
X4365063Y-731960D02*
X4355539Y-722436D01*
X4355539Y-722436D02*
X4346015Y-703388D01*
X4346015Y-703388D02*
X4346015Y-646246D01*
X4346015Y-646246D02*
X4355539Y-627198D01*
X4355539Y-627198D02*
X4365063Y-617674D01*
X4365063Y-617674D02*
X4384111Y-608150D01*
X4384111Y-608150D02*
X4412682Y-608150D01*
X4412682Y-608150D02*
X4431730Y-617674D01*
X4431730Y-617674D02*
X4441253Y-627198D01*
X4441253Y-627198D02*
X4450777Y-646246D01*
X4450777Y-646246D02*
X4450777Y-703388D01*
X4450777Y-703388D02*
X4441253Y-722436D01*
X4441253Y-722436D02*
X4431730Y-731960D01*
X4431730Y-731960D02*
X4412682Y-741484D01*
X4412682Y-741484D02*
X4384111Y-741484D01*
X4565063Y-741484D02*
X4546015Y-731960D01*
X4546015Y-731960D02*
X4536492Y-712912D01*
X4536492Y-712912D02*
X4536492Y-541484D01*
X4717444Y-731960D02*
X4698396Y-741484D01*
X4698396Y-741484D02*
X4660301Y-741484D01*
X4660301Y-741484D02*
X4641253Y-731960D01*
X4641253Y-731960D02*
X4631730Y-712912D01*
X4631730Y-712912D02*
X4631730Y-636722D01*
X4631730Y-636722D02*
X4641253Y-617674D01*
X4641253Y-617674D02*
X4660301Y-608150D01*
X4660301Y-608150D02*
X4698396Y-608150D01*
X4698396Y-608150D02*
X4717444Y-617674D01*
X4717444Y-617674D02*
X4726968Y-636722D01*
X4726968Y-636722D02*
X4726968Y-655770D01*
X4726968Y-655770D02*
X4631730Y-674817D01*
X4803158Y-731960D02*
X4822206Y-741484D01*
X4822206Y-741484D02*
X4860301Y-741484D01*
X4860301Y-741484D02*
X4879349Y-731960D01*
X4879349Y-731960D02*
X4888873Y-712912D01*
X4888873Y-712912D02*
X4888873Y-703388D01*
X4888873Y-703388D02*
X4879349Y-684341D01*
X4879349Y-684341D02*
X4860301Y-674817D01*
X4860301Y-674817D02*
X4831730Y-674817D01*
X4831730Y-674817D02*
X4812682Y-665293D01*
X4812682Y-665293D02*
X4803158Y-646246D01*
X4803158Y-646246D02*
X4803158Y-636722D01*
X4803158Y-636722D02*
X4812682Y-617674D01*
X4812682Y-617674D02*
X4831730Y-608150D01*
X4831730Y-608150D02*
X4860301Y-608150D01*
X4860301Y-608150D02*
X4879349Y-617674D01*
X4955539Y-817674D02*
X4965063Y-808150D01*
X4965063Y-808150D02*
X4984111Y-779579D01*
X4984111Y-779579D02*
X4993634Y-760531D01*
X4993634Y-760531D02*
X5003158Y-731960D01*
X5003158Y-731960D02*
X5012682Y-684341D01*
X5012682Y-684341D02*
X5012682Y-646246D01*
X5012682Y-646246D02*
X5003158Y-598627D01*
X5003158Y-598627D02*
X4993634Y-570055D01*
X4993634Y-570055D02*
X4984111Y-551008D01*
X4984111Y-551008D02*
X4965063Y-522436D01*
X4965063Y-522436D02*
X4955539Y-512912D01*
D12*
X-10000Y-914000D02*
G75*
G02*
X-90000Y-914000I-40000J0D01*
G01*
X-90000Y-914000D02*
G75*
G02*
X-10000Y-914000I40000J0D01*
G01*
D11*
X288872Y-805484D02*
X307920Y-805484D01*
X307920Y-805484D02*
X326967Y-815008D01*
X326967Y-815008D02*
X336491Y-824531D01*
X336491Y-824531D02*
X346015Y-843579D01*
X346015Y-843579D02*
X355539Y-881674D01*
X355539Y-881674D02*
X355539Y-929293D01*
X355539Y-929293D02*
X346015Y-967388D01*
X346015Y-967388D02*
X336491Y-986436D01*
X336491Y-986436D02*
X326967Y-995960D01*
X326967Y-995960D02*
X307920Y-1005484D01*
X307920Y-1005484D02*
X288872Y-1005484D01*
X288872Y-1005484D02*
X269824Y-995960D01*
X269824Y-995960D02*
X260301Y-986436D01*
X260301Y-986436D02*
X250777Y-967388D01*
X250777Y-967388D02*
X241253Y-929293D01*
X241253Y-929293D02*
X241253Y-881674D01*
X241253Y-881674D02*
X250777Y-843579D01*
X250777Y-843579D02*
X260301Y-824531D01*
X260301Y-824531D02*
X269824Y-815008D01*
X269824Y-815008D02*
X288872Y-805484D01*
X441253Y-986436D02*
X450777Y-995960D01*
X450777Y-995960D02*
X441253Y-1005484D01*
X441253Y-1005484D02*
X431729Y-995960D01*
X431729Y-995960D02*
X441253Y-986436D01*
X441253Y-986436D02*
X441253Y-1005484D01*
X565063Y-891198D02*
X546015Y-881674D01*
X546015Y-881674D02*
X536491Y-872150D01*
X536491Y-872150D02*
X526967Y-853103D01*
X526967Y-853103D02*
X526967Y-843579D01*
X526967Y-843579D02*
X536491Y-824531D01*
X536491Y-824531D02*
X546015Y-815008D01*
X546015Y-815008D02*
X565063Y-805484D01*
X565063Y-805484D02*
X603158Y-805484D01*
X603158Y-805484D02*
X622205Y-815008D01*
X622205Y-815008D02*
X631729Y-824531D01*
X631729Y-824531D02*
X641253Y-843579D01*
X641253Y-843579D02*
X641253Y-853103D01*
X641253Y-853103D02*
X631729Y-872150D01*
X631729Y-872150D02*
X622205Y-881674D01*
X622205Y-881674D02*
X603158Y-891198D01*
X603158Y-891198D02*
X565063Y-891198D01*
X565063Y-891198D02*
X546015Y-900722D01*
X546015Y-900722D02*
X536491Y-910246D01*
X536491Y-910246D02*
X526967Y-929293D01*
X526967Y-929293D02*
X526967Y-967388D01*
X526967Y-967388D02*
X536491Y-986436D01*
X536491Y-986436D02*
X546015Y-995960D01*
X546015Y-995960D02*
X565063Y-1005484D01*
X565063Y-1005484D02*
X603158Y-1005484D01*
X603158Y-1005484D02*
X622205Y-995960D01*
X622205Y-995960D02*
X631729Y-986436D01*
X631729Y-986436D02*
X641253Y-967388D01*
X641253Y-967388D02*
X641253Y-929293D01*
X641253Y-929293D02*
X631729Y-910246D01*
X631729Y-910246D02*
X622205Y-900722D01*
X622205Y-900722D02*
X603158Y-891198D01*
X765062Y-805484D02*
X784110Y-805484D01*
X784110Y-805484D02*
X803158Y-815008D01*
X803158Y-815008D02*
X812682Y-824531D01*
X812682Y-824531D02*
X822205Y-843579D01*
X822205Y-843579D02*
X831729Y-881674D01*
X831729Y-881674D02*
X831729Y-929293D01*
X831729Y-929293D02*
X822205Y-967388D01*
X822205Y-967388D02*
X812682Y-986436D01*
X812682Y-986436D02*
X803158Y-995960D01*
X803158Y-995960D02*
X784110Y-1005484D01*
X784110Y-1005484D02*
X765062Y-1005484D01*
X765062Y-1005484D02*
X746015Y-995960D01*
X746015Y-995960D02*
X736491Y-986436D01*
X736491Y-986436D02*
X726967Y-967388D01*
X726967Y-967388D02*
X717443Y-929293D01*
X717443Y-929293D02*
X717443Y-881674D01*
X717443Y-881674D02*
X726967Y-843579D01*
X726967Y-843579D02*
X736491Y-824531D01*
X736491Y-824531D02*
X746015Y-815008D01*
X746015Y-815008D02*
X765062Y-805484D01*
X955539Y-805484D02*
X974586Y-805484D01*
X974586Y-805484D02*
X993634Y-815008D01*
X993634Y-815008D02*
X1003158Y-824531D01*
X1003158Y-824531D02*
X1012682Y-843579D01*
X1012682Y-843579D02*
X1022205Y-881674D01*
X1022205Y-881674D02*
X1022205Y-929293D01*
X1022205Y-929293D02*
X1012682Y-967388D01*
X1012682Y-967388D02*
X1003158Y-986436D01*
X1003158Y-986436D02*
X993634Y-995960D01*
X993634Y-995960D02*
X974586Y-1005484D01*
X974586Y-1005484D02*
X955539Y-1005484D01*
X955539Y-1005484D02*
X936491Y-995960D01*
X936491Y-995960D02*
X926967Y-986436D01*
X926967Y-986436D02*
X917443Y-967388D01*
X917443Y-967388D02*
X907920Y-929293D01*
X907920Y-929293D02*
X907920Y-881674D01*
X907920Y-881674D02*
X917443Y-843579D01*
X917443Y-843579D02*
X926967Y-824531D01*
X926967Y-824531D02*
X936491Y-815008D01*
X936491Y-815008D02*
X955539Y-805484D01*
X1107920Y-1005484D02*
X1107920Y-872150D01*
X1107920Y-891198D02*
X1117444Y-881674D01*
X1117444Y-881674D02*
X1136491Y-872150D01*
X1136491Y-872150D02*
X1165063Y-872150D01*
X1165063Y-872150D02*
X1184110Y-881674D01*
X1184110Y-881674D02*
X1193634Y-900722D01*
X1193634Y-900722D02*
X1193634Y-1005484D01*
X1193634Y-900722D02*
X1203158Y-881674D01*
X1203158Y-881674D02*
X1222205Y-872150D01*
X1222205Y-872150D02*
X1250777Y-872150D01*
X1250777Y-872150D02*
X1269825Y-881674D01*
X1269825Y-881674D02*
X1279348Y-900722D01*
X1279348Y-900722D02*
X1279348Y-1005484D01*
X1374586Y-1005484D02*
X1374586Y-872150D01*
X1374586Y-891198D02*
X1384110Y-881674D01*
X1384110Y-881674D02*
X1403158Y-872150D01*
X1403158Y-872150D02*
X1431729Y-872150D01*
X1431729Y-872150D02*
X1450777Y-881674D01*
X1450777Y-881674D02*
X1460301Y-900722D01*
X1460301Y-900722D02*
X1460301Y-1005484D01*
X1460301Y-900722D02*
X1469824Y-881674D01*
X1469824Y-881674D02*
X1488872Y-872150D01*
X1488872Y-872150D02*
X1517443Y-872150D01*
X1517443Y-872150D02*
X1536491Y-881674D01*
X1536491Y-881674D02*
X1546015Y-900722D01*
X1546015Y-900722D02*
X1546015Y-1005484D01*
X1936491Y-795960D02*
X1765063Y-1053103D01*
X2193634Y-805484D02*
X2212682Y-805484D01*
X2212682Y-805484D02*
X2231729Y-815008D01*
X2231729Y-815008D02*
X2241253Y-824531D01*
X2241253Y-824531D02*
X2250777Y-843579D01*
X2250777Y-843579D02*
X2260301Y-881674D01*
X2260301Y-881674D02*
X2260301Y-929293D01*
X2260301Y-929293D02*
X2250777Y-967388D01*
X2250777Y-967388D02*
X2241253Y-986436D01*
X2241253Y-986436D02*
X2231729Y-995960D01*
X2231729Y-995960D02*
X2212682Y-1005484D01*
X2212682Y-1005484D02*
X2193634Y-1005484D01*
X2193634Y-1005484D02*
X2174587Y-995960D01*
X2174587Y-995960D02*
X2165063Y-986436D01*
X2165063Y-986436D02*
X2155539Y-967388D01*
X2155539Y-967388D02*
X2146015Y-929293D01*
X2146015Y-929293D02*
X2146015Y-881674D01*
X2146015Y-881674D02*
X2155539Y-843579D01*
X2155539Y-843579D02*
X2165063Y-824531D01*
X2165063Y-824531D02*
X2174587Y-815008D01*
X2174587Y-815008D02*
X2193634Y-805484D01*
X2346015Y-986436D02*
X2355539Y-995960D01*
X2355539Y-995960D02*
X2346015Y-1005484D01*
X2346015Y-1005484D02*
X2336491Y-995960D01*
X2336491Y-995960D02*
X2346015Y-986436D01*
X2346015Y-986436D02*
X2346015Y-1005484D01*
X2479348Y-805484D02*
X2498396Y-805484D01*
X2498396Y-805484D02*
X2517444Y-815008D01*
X2517444Y-815008D02*
X2526968Y-824531D01*
X2526968Y-824531D02*
X2536491Y-843579D01*
X2536491Y-843579D02*
X2546015Y-881674D01*
X2546015Y-881674D02*
X2546015Y-929293D01*
X2546015Y-929293D02*
X2536491Y-967388D01*
X2536491Y-967388D02*
X2526968Y-986436D01*
X2526968Y-986436D02*
X2517444Y-995960D01*
X2517444Y-995960D02*
X2498396Y-1005484D01*
X2498396Y-1005484D02*
X2479348Y-1005484D01*
X2479348Y-1005484D02*
X2460301Y-995960D01*
X2460301Y-995960D02*
X2450777Y-986436D01*
X2450777Y-986436D02*
X2441253Y-967388D01*
X2441253Y-967388D02*
X2431729Y-929293D01*
X2431729Y-929293D02*
X2431729Y-881674D01*
X2431729Y-881674D02*
X2441253Y-843579D01*
X2441253Y-843579D02*
X2450777Y-824531D01*
X2450777Y-824531D02*
X2460301Y-815008D01*
X2460301Y-815008D02*
X2479348Y-805484D01*
X2612682Y-805484D02*
X2736491Y-805484D01*
X2736491Y-805484D02*
X2669825Y-881674D01*
X2669825Y-881674D02*
X2698396Y-881674D01*
X2698396Y-881674D02*
X2717444Y-891198D01*
X2717444Y-891198D02*
X2726968Y-900722D01*
X2726968Y-900722D02*
X2736491Y-919769D01*
X2736491Y-919769D02*
X2736491Y-967388D01*
X2736491Y-967388D02*
X2726968Y-986436D01*
X2726968Y-986436D02*
X2717444Y-995960D01*
X2717444Y-995960D02*
X2698396Y-1005484D01*
X2698396Y-1005484D02*
X2641253Y-1005484D01*
X2641253Y-1005484D02*
X2622206Y-995960D01*
X2622206Y-995960D02*
X2612682Y-986436D01*
X2926967Y-1005484D02*
X2812682Y-1005484D01*
X2869825Y-1005484D02*
X2869825Y-805484D01*
X2869825Y-805484D02*
X2850777Y-834055D01*
X2850777Y-834055D02*
X2831729Y-853103D01*
X2831729Y-853103D02*
X2812682Y-862627D01*
X3107920Y-805484D02*
X3012682Y-805484D01*
X3012682Y-805484D02*
X3003158Y-900722D01*
X3003158Y-900722D02*
X3012682Y-891198D01*
X3012682Y-891198D02*
X3031729Y-881674D01*
X3031729Y-881674D02*
X3079348Y-881674D01*
X3079348Y-881674D02*
X3098396Y-891198D01*
X3098396Y-891198D02*
X3107920Y-900722D01*
X3107920Y-900722D02*
X3117444Y-919769D01*
X3117444Y-919769D02*
X3117444Y-967388D01*
X3117444Y-967388D02*
X3107920Y-986436D01*
X3107920Y-986436D02*
X3098396Y-995960D01*
X3098396Y-995960D02*
X3079348Y-1005484D01*
X3079348Y-1005484D02*
X3031729Y-1005484D01*
X3031729Y-1005484D02*
X3012682Y-995960D01*
X3012682Y-995960D02*
X3003158Y-986436D01*
X3193634Y-805484D02*
X3193634Y-843579D01*
X3269825Y-805484D02*
X3269825Y-843579D01*
X3565063Y-1081674D02*
X3555539Y-1072150D01*
X3555539Y-1072150D02*
X3536491Y-1043579D01*
X3536491Y-1043579D02*
X3526968Y-1024531D01*
X3526968Y-1024531D02*
X3517444Y-995960D01*
X3517444Y-995960D02*
X3507920Y-948341D01*
X3507920Y-948341D02*
X3507920Y-910246D01*
X3507920Y-910246D02*
X3517444Y-862627D01*
X3517444Y-862627D02*
X3526968Y-834055D01*
X3526968Y-834055D02*
X3536491Y-815008D01*
X3536491Y-815008D02*
X3555539Y-786436D01*
X3555539Y-786436D02*
X3565063Y-776912D01*
X3622206Y-805484D02*
X3746015Y-805484D01*
X3746015Y-805484D02*
X3679348Y-881674D01*
X3679348Y-881674D02*
X3707920Y-881674D01*
X3707920Y-881674D02*
X3726968Y-891198D01*
X3726968Y-891198D02*
X3736491Y-900722D01*
X3736491Y-900722D02*
X3746015Y-919769D01*
X3746015Y-919769D02*
X3746015Y-967388D01*
X3746015Y-967388D02*
X3736491Y-986436D01*
X3736491Y-986436D02*
X3726968Y-995960D01*
X3726968Y-995960D02*
X3707920Y-1005484D01*
X3707920Y-1005484D02*
X3650777Y-1005484D01*
X3650777Y-1005484D02*
X3631729Y-995960D01*
X3631729Y-995960D02*
X3622206Y-986436D01*
X3869825Y-805484D02*
X3888872Y-805484D01*
X3888872Y-805484D02*
X3907920Y-815008D01*
X3907920Y-815008D02*
X3917444Y-824531D01*
X3917444Y-824531D02*
X3926968Y-843579D01*
X3926968Y-843579D02*
X3936491Y-881674D01*
X3936491Y-881674D02*
X3936491Y-929293D01*
X3936491Y-929293D02*
X3926968Y-967388D01*
X3926968Y-967388D02*
X3917444Y-986436D01*
X3917444Y-986436D02*
X3907920Y-995960D01*
X3907920Y-995960D02*
X3888872Y-1005484D01*
X3888872Y-1005484D02*
X3869825Y-1005484D01*
X3869825Y-1005484D02*
X3850777Y-995960D01*
X3850777Y-995960D02*
X3841253Y-986436D01*
X3841253Y-986436D02*
X3831729Y-967388D01*
X3831729Y-967388D02*
X3822206Y-929293D01*
X3822206Y-929293D02*
X3822206Y-881674D01*
X3822206Y-881674D02*
X3831729Y-843579D01*
X3831729Y-843579D02*
X3841253Y-824531D01*
X3841253Y-824531D02*
X3850777Y-815008D01*
X3850777Y-815008D02*
X3869825Y-805484D01*
X4174587Y-1005484D02*
X4174587Y-805484D01*
X4260301Y-1005484D02*
X4260301Y-900722D01*
X4260301Y-900722D02*
X4250777Y-881674D01*
X4250777Y-881674D02*
X4231730Y-872150D01*
X4231730Y-872150D02*
X4203158Y-872150D01*
X4203158Y-872150D02*
X4184110Y-881674D01*
X4184110Y-881674D02*
X4174587Y-891198D01*
X4384111Y-1005484D02*
X4365063Y-995960D01*
X4365063Y-995960D02*
X4355539Y-986436D01*
X4355539Y-986436D02*
X4346015Y-967388D01*
X4346015Y-967388D02*
X4346015Y-910246D01*
X4346015Y-910246D02*
X4355539Y-891198D01*
X4355539Y-891198D02*
X4365063Y-881674D01*
X4365063Y-881674D02*
X4384111Y-872150D01*
X4384111Y-872150D02*
X4412682Y-872150D01*
X4412682Y-872150D02*
X4431730Y-881674D01*
X4431730Y-881674D02*
X4441253Y-891198D01*
X4441253Y-891198D02*
X4450777Y-910246D01*
X4450777Y-910246D02*
X4450777Y-967388D01*
X4450777Y-967388D02*
X4441253Y-986436D01*
X4441253Y-986436D02*
X4431730Y-995960D01*
X4431730Y-995960D02*
X4412682Y-1005484D01*
X4412682Y-1005484D02*
X4384111Y-1005484D01*
X4565063Y-1005484D02*
X4546015Y-995960D01*
X4546015Y-995960D02*
X4536492Y-976912D01*
X4536492Y-976912D02*
X4536492Y-805484D01*
X4717444Y-995960D02*
X4698396Y-1005484D01*
X4698396Y-1005484D02*
X4660301Y-1005484D01*
X4660301Y-1005484D02*
X4641253Y-995960D01*
X4641253Y-995960D02*
X4631730Y-976912D01*
X4631730Y-976912D02*
X4631730Y-900722D01*
X4631730Y-900722D02*
X4641253Y-881674D01*
X4641253Y-881674D02*
X4660301Y-872150D01*
X4660301Y-872150D02*
X4698396Y-872150D01*
X4698396Y-872150D02*
X4717444Y-881674D01*
X4717444Y-881674D02*
X4726968Y-900722D01*
X4726968Y-900722D02*
X4726968Y-919769D01*
X4726968Y-919769D02*
X4631730Y-938817D01*
X4803158Y-995960D02*
X4822206Y-1005484D01*
X4822206Y-1005484D02*
X4860301Y-1005484D01*
X4860301Y-1005484D02*
X4879349Y-995960D01*
X4879349Y-995960D02*
X4888873Y-976912D01*
X4888873Y-976912D02*
X4888873Y-967388D01*
X4888873Y-967388D02*
X4879349Y-948341D01*
X4879349Y-948341D02*
X4860301Y-938817D01*
X4860301Y-938817D02*
X4831730Y-938817D01*
X4831730Y-938817D02*
X4812682Y-929293D01*
X4812682Y-929293D02*
X4803158Y-910246D01*
X4803158Y-910246D02*
X4803158Y-900722D01*
X4803158Y-900722D02*
X4812682Y-881674D01*
X4812682Y-881674D02*
X4831730Y-872150D01*
X4831730Y-872150D02*
X4860301Y-872150D01*
X4860301Y-872150D02*
X4879349Y-881674D01*
X4955539Y-1081674D02*
X4965063Y-1072150D01*
X4965063Y-1072150D02*
X4984111Y-1043579D01*
X4984111Y-1043579D02*
X4993634Y-1024531D01*
X4993634Y-1024531D02*
X5003158Y-995960D01*
X5003158Y-995960D02*
X5012682Y-948341D01*
X5012682Y-948341D02*
X5012682Y-910246D01*
X5012682Y-910246D02*
X5003158Y-862627D01*
X5003158Y-862627D02*
X4993634Y-834055D01*
X4993634Y-834055D02*
X4984111Y-815008D01*
X4984111Y-815008D02*
X4965063Y-786436D01*
X4965063Y-786436D02*
X4955539Y-776912D01*
D12*
X-60000Y-1128000D02*
X-60000Y-1228000D01*
X-110000Y-1178000D02*
X-10000Y-1178000D01*
D11*
X355539Y-1269484D02*
X241253Y-1269484D01*
X298396Y-1269484D02*
X298396Y-1069484D01*
X298396Y-1069484D02*
X279348Y-1098055D01*
X279348Y-1098055D02*
X260301Y-1117103D01*
X260301Y-1117103D02*
X241253Y-1126627D01*
X441253Y-1250436D02*
X450777Y-1259960D01*
X450777Y-1259960D02*
X441253Y-1269484D01*
X441253Y-1269484D02*
X431729Y-1259960D01*
X431729Y-1259960D02*
X441253Y-1250436D01*
X441253Y-1250436D02*
X441253Y-1269484D01*
X574586Y-1069484D02*
X593634Y-1069484D01*
X593634Y-1069484D02*
X612682Y-1079008D01*
X612682Y-1079008D02*
X622205Y-1088531D01*
X622205Y-1088531D02*
X631729Y-1107579D01*
X631729Y-1107579D02*
X641253Y-1145674D01*
X641253Y-1145674D02*
X641253Y-1193293D01*
X641253Y-1193293D02*
X631729Y-1231389D01*
X631729Y-1231389D02*
X622205Y-1250436D01*
X622205Y-1250436D02*
X612682Y-1259960D01*
X612682Y-1259960D02*
X593634Y-1269484D01*
X593634Y-1269484D02*
X574586Y-1269484D01*
X574586Y-1269484D02*
X555539Y-1259960D01*
X555539Y-1259960D02*
X546015Y-1250436D01*
X546015Y-1250436D02*
X536491Y-1231389D01*
X536491Y-1231389D02*
X526967Y-1193293D01*
X526967Y-1193293D02*
X526967Y-1145674D01*
X526967Y-1145674D02*
X536491Y-1107579D01*
X536491Y-1107579D02*
X546015Y-1088531D01*
X546015Y-1088531D02*
X555539Y-1079008D01*
X555539Y-1079008D02*
X574586Y-1069484D01*
X765062Y-1069484D02*
X784110Y-1069484D01*
X784110Y-1069484D02*
X803158Y-1079008D01*
X803158Y-1079008D02*
X812682Y-1088531D01*
X812682Y-1088531D02*
X822205Y-1107579D01*
X822205Y-1107579D02*
X831729Y-1145674D01*
X831729Y-1145674D02*
X831729Y-1193293D01*
X831729Y-1193293D02*
X822205Y-1231389D01*
X822205Y-1231389D02*
X812682Y-1250436D01*
X812682Y-1250436D02*
X803158Y-1259960D01*
X803158Y-1259960D02*
X784110Y-1269484D01*
X784110Y-1269484D02*
X765062Y-1269484D01*
X765062Y-1269484D02*
X746015Y-1259960D01*
X746015Y-1259960D02*
X736491Y-1250436D01*
X736491Y-1250436D02*
X726967Y-1231389D01*
X726967Y-1231389D02*
X717443Y-1193293D01*
X717443Y-1193293D02*
X717443Y-1145674D01*
X717443Y-1145674D02*
X726967Y-1107579D01*
X726967Y-1107579D02*
X736491Y-1088531D01*
X736491Y-1088531D02*
X746015Y-1079008D01*
X746015Y-1079008D02*
X765062Y-1069484D01*
X955539Y-1069484D02*
X974586Y-1069484D01*
X974586Y-1069484D02*
X993634Y-1079008D01*
X993634Y-1079008D02*
X1003158Y-1088531D01*
X1003158Y-1088531D02*
X1012682Y-1107579D01*
X1012682Y-1107579D02*
X1022205Y-1145674D01*
X1022205Y-1145674D02*
X1022205Y-1193293D01*
X1022205Y-1193293D02*
X1012682Y-1231389D01*
X1012682Y-1231389D02*
X1003158Y-1250436D01*
X1003158Y-1250436D02*
X993634Y-1259960D01*
X993634Y-1259960D02*
X974586Y-1269484D01*
X974586Y-1269484D02*
X955539Y-1269484D01*
X955539Y-1269484D02*
X936491Y-1259960D01*
X936491Y-1259960D02*
X926967Y-1250436D01*
X926967Y-1250436D02*
X917443Y-1231389D01*
X917443Y-1231389D02*
X907920Y-1193293D01*
X907920Y-1193293D02*
X907920Y-1145674D01*
X907920Y-1145674D02*
X917443Y-1107579D01*
X917443Y-1107579D02*
X926967Y-1088531D01*
X926967Y-1088531D02*
X936491Y-1079008D01*
X936491Y-1079008D02*
X955539Y-1069484D01*
X1107920Y-1269484D02*
X1107920Y-1136150D01*
X1107920Y-1155198D02*
X1117444Y-1145674D01*
X1117444Y-1145674D02*
X1136491Y-1136150D01*
X1136491Y-1136150D02*
X1165063Y-1136150D01*
X1165063Y-1136150D02*
X1184110Y-1145674D01*
X1184110Y-1145674D02*
X1193634Y-1164722D01*
X1193634Y-1164722D02*
X1193634Y-1269484D01*
X1193634Y-1164722D02*
X1203158Y-1145674D01*
X1203158Y-1145674D02*
X1222205Y-1136150D01*
X1222205Y-1136150D02*
X1250777Y-1136150D01*
X1250777Y-1136150D02*
X1269825Y-1145674D01*
X1269825Y-1145674D02*
X1279348Y-1164722D01*
X1279348Y-1164722D02*
X1279348Y-1269484D01*
X1374586Y-1269484D02*
X1374586Y-1136150D01*
X1374586Y-1155198D02*
X1384110Y-1145674D01*
X1384110Y-1145674D02*
X1403158Y-1136150D01*
X1403158Y-1136150D02*
X1431729Y-1136150D01*
X1431729Y-1136150D02*
X1450777Y-1145674D01*
X1450777Y-1145674D02*
X1460301Y-1164722D01*
X1460301Y-1164722D02*
X1460301Y-1269484D01*
X1460301Y-1164722D02*
X1469824Y-1145674D01*
X1469824Y-1145674D02*
X1488872Y-1136150D01*
X1488872Y-1136150D02*
X1517443Y-1136150D01*
X1517443Y-1136150D02*
X1536491Y-1145674D01*
X1536491Y-1145674D02*
X1546015Y-1164722D01*
X1546015Y-1164722D02*
X1546015Y-1269484D01*
X1936491Y-1059960D02*
X1765063Y-1317103D01*
X2193634Y-1069484D02*
X2212682Y-1069484D01*
X2212682Y-1069484D02*
X2231729Y-1079008D01*
X2231729Y-1079008D02*
X2241253Y-1088531D01*
X2241253Y-1088531D02*
X2250777Y-1107579D01*
X2250777Y-1107579D02*
X2260301Y-1145674D01*
X2260301Y-1145674D02*
X2260301Y-1193293D01*
X2260301Y-1193293D02*
X2250777Y-1231389D01*
X2250777Y-1231389D02*
X2241253Y-1250436D01*
X2241253Y-1250436D02*
X2231729Y-1259960D01*
X2231729Y-1259960D02*
X2212682Y-1269484D01*
X2212682Y-1269484D02*
X2193634Y-1269484D01*
X2193634Y-1269484D02*
X2174587Y-1259960D01*
X2174587Y-1259960D02*
X2165063Y-1250436D01*
X2165063Y-1250436D02*
X2155539Y-1231389D01*
X2155539Y-1231389D02*
X2146015Y-1193293D01*
X2146015Y-1193293D02*
X2146015Y-1145674D01*
X2146015Y-1145674D02*
X2155539Y-1107579D01*
X2155539Y-1107579D02*
X2165063Y-1088531D01*
X2165063Y-1088531D02*
X2174587Y-1079008D01*
X2174587Y-1079008D02*
X2193634Y-1069484D01*
X2346015Y-1250436D02*
X2355539Y-1259960D01*
X2355539Y-1259960D02*
X2346015Y-1269484D01*
X2346015Y-1269484D02*
X2336491Y-1259960D01*
X2336491Y-1259960D02*
X2346015Y-1250436D01*
X2346015Y-1250436D02*
X2346015Y-1269484D01*
X2479348Y-1069484D02*
X2498396Y-1069484D01*
X2498396Y-1069484D02*
X2517444Y-1079008D01*
X2517444Y-1079008D02*
X2526968Y-1088531D01*
X2526968Y-1088531D02*
X2536491Y-1107579D01*
X2536491Y-1107579D02*
X2546015Y-1145674D01*
X2546015Y-1145674D02*
X2546015Y-1193293D01*
X2546015Y-1193293D02*
X2536491Y-1231389D01*
X2536491Y-1231389D02*
X2526968Y-1250436D01*
X2526968Y-1250436D02*
X2517444Y-1259960D01*
X2517444Y-1259960D02*
X2498396Y-1269484D01*
X2498396Y-1269484D02*
X2479348Y-1269484D01*
X2479348Y-1269484D02*
X2460301Y-1259960D01*
X2460301Y-1259960D02*
X2450777Y-1250436D01*
X2450777Y-1250436D02*
X2441253Y-1231389D01*
X2441253Y-1231389D02*
X2431729Y-1193293D01*
X2431729Y-1193293D02*
X2431729Y-1145674D01*
X2431729Y-1145674D02*
X2441253Y-1107579D01*
X2441253Y-1107579D02*
X2450777Y-1088531D01*
X2450777Y-1088531D02*
X2460301Y-1079008D01*
X2460301Y-1079008D02*
X2479348Y-1069484D01*
X2612682Y-1069484D02*
X2736491Y-1069484D01*
X2736491Y-1069484D02*
X2669825Y-1145674D01*
X2669825Y-1145674D02*
X2698396Y-1145674D01*
X2698396Y-1145674D02*
X2717444Y-1155198D01*
X2717444Y-1155198D02*
X2726968Y-1164722D01*
X2726968Y-1164722D02*
X2736491Y-1183770D01*
X2736491Y-1183770D02*
X2736491Y-1231389D01*
X2736491Y-1231389D02*
X2726968Y-1250436D01*
X2726968Y-1250436D02*
X2717444Y-1259960D01*
X2717444Y-1259960D02*
X2698396Y-1269484D01*
X2698396Y-1269484D02*
X2641253Y-1269484D01*
X2641253Y-1269484D02*
X2622206Y-1259960D01*
X2622206Y-1259960D02*
X2612682Y-1250436D01*
X2831729Y-1269484D02*
X2869825Y-1269484D01*
X2869825Y-1269484D02*
X2888872Y-1259960D01*
X2888872Y-1259960D02*
X2898396Y-1250436D01*
X2898396Y-1250436D02*
X2917444Y-1221865D01*
X2917444Y-1221865D02*
X2926967Y-1183770D01*
X2926967Y-1183770D02*
X2926967Y-1107579D01*
X2926967Y-1107579D02*
X2917444Y-1088531D01*
X2917444Y-1088531D02*
X2907920Y-1079008D01*
X2907920Y-1079008D02*
X2888872Y-1069484D01*
X2888872Y-1069484D02*
X2850777Y-1069484D01*
X2850777Y-1069484D02*
X2831729Y-1079008D01*
X2831729Y-1079008D02*
X2822206Y-1088531D01*
X2822206Y-1088531D02*
X2812682Y-1107579D01*
X2812682Y-1107579D02*
X2812682Y-1155198D01*
X2812682Y-1155198D02*
X2822206Y-1174246D01*
X2822206Y-1174246D02*
X2831729Y-1183770D01*
X2831729Y-1183770D02*
X2850777Y-1193293D01*
X2850777Y-1193293D02*
X2888872Y-1193293D01*
X2888872Y-1193293D02*
X2907920Y-1183770D01*
X2907920Y-1183770D02*
X2917444Y-1174246D01*
X2917444Y-1174246D02*
X2926967Y-1155198D01*
X3098396Y-1136150D02*
X3098396Y-1269484D01*
X3050777Y-1059960D02*
X3003158Y-1202817D01*
X3003158Y-1202817D02*
X3126967Y-1202817D01*
X3193634Y-1069484D02*
X3193634Y-1107579D01*
X3269825Y-1069484D02*
X3269825Y-1107579D01*
X3565063Y-1345674D02*
X3555539Y-1336150D01*
X3555539Y-1336150D02*
X3536491Y-1307579D01*
X3536491Y-1307579D02*
X3526968Y-1288531D01*
X3526968Y-1288531D02*
X3517444Y-1259960D01*
X3517444Y-1259960D02*
X3507920Y-1212341D01*
X3507920Y-1212341D02*
X3507920Y-1174246D01*
X3507920Y-1174246D02*
X3517444Y-1126627D01*
X3517444Y-1126627D02*
X3526968Y-1098055D01*
X3526968Y-1098055D02*
X3536491Y-1079008D01*
X3536491Y-1079008D02*
X3555539Y-1050436D01*
X3555539Y-1050436D02*
X3565063Y-1040912D01*
X3726968Y-1136150D02*
X3726968Y-1269484D01*
X3679348Y-1059960D02*
X3631729Y-1202817D01*
X3631729Y-1202817D02*
X3755539Y-1202817D01*
X3860301Y-1155198D02*
X3841253Y-1145674D01*
X3841253Y-1145674D02*
X3831729Y-1136150D01*
X3831729Y-1136150D02*
X3822206Y-1117103D01*
X3822206Y-1117103D02*
X3822206Y-1107579D01*
X3822206Y-1107579D02*
X3831729Y-1088531D01*
X3831729Y-1088531D02*
X3841253Y-1079008D01*
X3841253Y-1079008D02*
X3860301Y-1069484D01*
X3860301Y-1069484D02*
X3898396Y-1069484D01*
X3898396Y-1069484D02*
X3917444Y-1079008D01*
X3917444Y-1079008D02*
X3926968Y-1088531D01*
X3926968Y-1088531D02*
X3936491Y-1107579D01*
X3936491Y-1107579D02*
X3936491Y-1117103D01*
X3936491Y-1117103D02*
X3926968Y-1136150D01*
X3926968Y-1136150D02*
X3917444Y-1145674D01*
X3917444Y-1145674D02*
X3898396Y-1155198D01*
X3898396Y-1155198D02*
X3860301Y-1155198D01*
X3860301Y-1155198D02*
X3841253Y-1164722D01*
X3841253Y-1164722D02*
X3831729Y-1174246D01*
X3831729Y-1174246D02*
X3822206Y-1193293D01*
X3822206Y-1193293D02*
X3822206Y-1231389D01*
X3822206Y-1231389D02*
X3831729Y-1250436D01*
X3831729Y-1250436D02*
X3841253Y-1259960D01*
X3841253Y-1259960D02*
X3860301Y-1269484D01*
X3860301Y-1269484D02*
X3898396Y-1269484D01*
X3898396Y-1269484D02*
X3917444Y-1259960D01*
X3917444Y-1259960D02*
X3926968Y-1250436D01*
X3926968Y-1250436D02*
X3936491Y-1231389D01*
X3936491Y-1231389D02*
X3936491Y-1193293D01*
X3936491Y-1193293D02*
X3926968Y-1174246D01*
X3926968Y-1174246D02*
X3917444Y-1164722D01*
X3917444Y-1164722D02*
X3898396Y-1155198D01*
X4174587Y-1269484D02*
X4174587Y-1069484D01*
X4260301Y-1269484D02*
X4260301Y-1164722D01*
X4260301Y-1164722D02*
X4250777Y-1145674D01*
X4250777Y-1145674D02*
X4231730Y-1136150D01*
X4231730Y-1136150D02*
X4203158Y-1136150D01*
X4203158Y-1136150D02*
X4184110Y-1145674D01*
X4184110Y-1145674D02*
X4174587Y-1155198D01*
X4384111Y-1269484D02*
X4365063Y-1259960D01*
X4365063Y-1259960D02*
X4355539Y-1250436D01*
X4355539Y-1250436D02*
X4346015Y-1231389D01*
X4346015Y-1231389D02*
X4346015Y-1174246D01*
X4346015Y-1174246D02*
X4355539Y-1155198D01*
X4355539Y-1155198D02*
X4365063Y-1145674D01*
X4365063Y-1145674D02*
X4384111Y-1136150D01*
X4384111Y-1136150D02*
X4412682Y-1136150D01*
X4412682Y-1136150D02*
X4431730Y-1145674D01*
X4431730Y-1145674D02*
X4441253Y-1155198D01*
X4441253Y-1155198D02*
X4450777Y-1174246D01*
X4450777Y-1174246D02*
X4450777Y-1231389D01*
X4450777Y-1231389D02*
X4441253Y-1250436D01*
X4441253Y-1250436D02*
X4431730Y-1259960D01*
X4431730Y-1259960D02*
X4412682Y-1269484D01*
X4412682Y-1269484D02*
X4384111Y-1269484D01*
X4565063Y-1269484D02*
X4546015Y-1259960D01*
X4546015Y-1259960D02*
X4536492Y-1240912D01*
X4536492Y-1240912D02*
X4536492Y-1069484D01*
X4717444Y-1259960D02*
X4698396Y-1269484D01*
X4698396Y-1269484D02*
X4660301Y-1269484D01*
X4660301Y-1269484D02*
X4641253Y-1259960D01*
X4641253Y-1259960D02*
X4631730Y-1240912D01*
X4631730Y-1240912D02*
X4631730Y-1164722D01*
X4631730Y-1164722D02*
X4641253Y-1145674D01*
X4641253Y-1145674D02*
X4660301Y-1136150D01*
X4660301Y-1136150D02*
X4698396Y-1136150D01*
X4698396Y-1136150D02*
X4717444Y-1145674D01*
X4717444Y-1145674D02*
X4726968Y-1164722D01*
X4726968Y-1164722D02*
X4726968Y-1183770D01*
X4726968Y-1183770D02*
X4631730Y-1202817D01*
X4803158Y-1259960D02*
X4822206Y-1269484D01*
X4822206Y-1269484D02*
X4860301Y-1269484D01*
X4860301Y-1269484D02*
X4879349Y-1259960D01*
X4879349Y-1259960D02*
X4888873Y-1240912D01*
X4888873Y-1240912D02*
X4888873Y-1231389D01*
X4888873Y-1231389D02*
X4879349Y-1212341D01*
X4879349Y-1212341D02*
X4860301Y-1202817D01*
X4860301Y-1202817D02*
X4831730Y-1202817D01*
X4831730Y-1202817D02*
X4812682Y-1193293D01*
X4812682Y-1193293D02*
X4803158Y-1174246D01*
X4803158Y-1174246D02*
X4803158Y-1164722D01*
X4803158Y-1164722D02*
X4812682Y-1145674D01*
X4812682Y-1145674D02*
X4831730Y-1136150D01*
X4831730Y-1136150D02*
X4860301Y-1136150D01*
X4860301Y-1136150D02*
X4879349Y-1145674D01*
X4955539Y-1345674D02*
X4965063Y-1336150D01*
X4965063Y-1336150D02*
X4984111Y-1307579D01*
X4984111Y-1307579D02*
X4993634Y-1288531D01*
X4993634Y-1288531D02*
X5003158Y-1259960D01*
X5003158Y-1259960D02*
X5012682Y-1212341D01*
X5012682Y-1212341D02*
X5012682Y-1174246D01*
X5012682Y-1174246D02*
X5003158Y-1126627D01*
X5003158Y-1126627D02*
X4993634Y-1098055D01*
X4993634Y-1098055D02*
X4984111Y-1079008D01*
X4984111Y-1079008D02*
X4965063Y-1050436D01*
X4965063Y-1050436D02*
X4955539Y-1040912D01*
D13*
X-27573Y-1484427D02*
X-27573Y-1399573D01*
X-112427Y-1399573D01*
X-112427Y-1484427D01*
X-27573Y-1484427D01*
D11*
X355539Y-1533484D02*
X241253Y-1533484D01*
X298396Y-1533484D02*
X298396Y-1333484D01*
X298396Y-1333484D02*
X279348Y-1362055D01*
X279348Y-1362055D02*
X260301Y-1381103D01*
X260301Y-1381103D02*
X241253Y-1390627D01*
X441253Y-1514436D02*
X450777Y-1523960D01*
X450777Y-1523960D02*
X441253Y-1533484D01*
X441253Y-1533484D02*
X431729Y-1523960D01*
X431729Y-1523960D02*
X441253Y-1514436D01*
X441253Y-1514436D02*
X441253Y-1533484D01*
X526967Y-1352531D02*
X536491Y-1343008D01*
X536491Y-1343008D02*
X555539Y-1333484D01*
X555539Y-1333484D02*
X603158Y-1333484D01*
X603158Y-1333484D02*
X622205Y-1343008D01*
X622205Y-1343008D02*
X631729Y-1352531D01*
X631729Y-1352531D02*
X641253Y-1371579D01*
X641253Y-1371579D02*
X641253Y-1390627D01*
X641253Y-1390627D02*
X631729Y-1419198D01*
X631729Y-1419198D02*
X517443Y-1533484D01*
X517443Y-1533484D02*
X641253Y-1533484D01*
X765062Y-1333484D02*
X784110Y-1333484D01*
X784110Y-1333484D02*
X803158Y-1343008D01*
X803158Y-1343008D02*
X812682Y-1352531D01*
X812682Y-1352531D02*
X822205Y-1371579D01*
X822205Y-1371579D02*
X831729Y-1409674D01*
X831729Y-1409674D02*
X831729Y-1457293D01*
X831729Y-1457293D02*
X822205Y-1495388D01*
X822205Y-1495388D02*
X812682Y-1514436D01*
X812682Y-1514436D02*
X803158Y-1523960D01*
X803158Y-1523960D02*
X784110Y-1533484D01*
X784110Y-1533484D02*
X765062Y-1533484D01*
X765062Y-1533484D02*
X746015Y-1523960D01*
X746015Y-1523960D02*
X736491Y-1514436D01*
X736491Y-1514436D02*
X726967Y-1495388D01*
X726967Y-1495388D02*
X717443Y-1457293D01*
X717443Y-1457293D02*
X717443Y-1409674D01*
X717443Y-1409674D02*
X726967Y-1371579D01*
X726967Y-1371579D02*
X736491Y-1352531D01*
X736491Y-1352531D02*
X746015Y-1343008D01*
X746015Y-1343008D02*
X765062Y-1333484D01*
X955539Y-1333484D02*
X974586Y-1333484D01*
X974586Y-1333484D02*
X993634Y-1343008D01*
X993634Y-1343008D02*
X1003158Y-1352531D01*
X1003158Y-1352531D02*
X1012682Y-1371579D01*
X1012682Y-1371579D02*
X1022205Y-1409674D01*
X1022205Y-1409674D02*
X1022205Y-1457293D01*
X1022205Y-1457293D02*
X1012682Y-1495388D01*
X1012682Y-1495388D02*
X1003158Y-1514436D01*
X1003158Y-1514436D02*
X993634Y-1523960D01*
X993634Y-1523960D02*
X974586Y-1533484D01*
X974586Y-1533484D02*
X955539Y-1533484D01*
X955539Y-1533484D02*
X936491Y-1523960D01*
X936491Y-1523960D02*
X926967Y-1514436D01*
X926967Y-1514436D02*
X917443Y-1495388D01*
X917443Y-1495388D02*
X907920Y-1457293D01*
X907920Y-1457293D02*
X907920Y-1409674D01*
X907920Y-1409674D02*
X917443Y-1371579D01*
X917443Y-1371579D02*
X926967Y-1352531D01*
X926967Y-1352531D02*
X936491Y-1343008D01*
X936491Y-1343008D02*
X955539Y-1333484D01*
X1107920Y-1533484D02*
X1107920Y-1400150D01*
X1107920Y-1419198D02*
X1117444Y-1409674D01*
X1117444Y-1409674D02*
X1136491Y-1400150D01*
X1136491Y-1400150D02*
X1165063Y-1400150D01*
X1165063Y-1400150D02*
X1184110Y-1409674D01*
X1184110Y-1409674D02*
X1193634Y-1428722D01*
X1193634Y-1428722D02*
X1193634Y-1533484D01*
X1193634Y-1428722D02*
X1203158Y-1409674D01*
X1203158Y-1409674D02*
X1222205Y-1400150D01*
X1222205Y-1400150D02*
X1250777Y-1400150D01*
X1250777Y-1400150D02*
X1269825Y-1409674D01*
X1269825Y-1409674D02*
X1279348Y-1428722D01*
X1279348Y-1428722D02*
X1279348Y-1533484D01*
X1374586Y-1533484D02*
X1374586Y-1400150D01*
X1374586Y-1419198D02*
X1384110Y-1409674D01*
X1384110Y-1409674D02*
X1403158Y-1400150D01*
X1403158Y-1400150D02*
X1431729Y-1400150D01*
X1431729Y-1400150D02*
X1450777Y-1409674D01*
X1450777Y-1409674D02*
X1460301Y-1428722D01*
X1460301Y-1428722D02*
X1460301Y-1533484D01*
X1460301Y-1428722D02*
X1469824Y-1409674D01*
X1469824Y-1409674D02*
X1488872Y-1400150D01*
X1488872Y-1400150D02*
X1517443Y-1400150D01*
X1517443Y-1400150D02*
X1536491Y-1409674D01*
X1536491Y-1409674D02*
X1546015Y-1428722D01*
X1546015Y-1428722D02*
X1546015Y-1533484D01*
X1936491Y-1323960D02*
X1765063Y-1581103D01*
X2193634Y-1333484D02*
X2212682Y-1333484D01*
X2212682Y-1333484D02*
X2231729Y-1343008D01*
X2231729Y-1343008D02*
X2241253Y-1352531D01*
X2241253Y-1352531D02*
X2250777Y-1371579D01*
X2250777Y-1371579D02*
X2260301Y-1409674D01*
X2260301Y-1409674D02*
X2260301Y-1457293D01*
X2260301Y-1457293D02*
X2250777Y-1495388D01*
X2250777Y-1495388D02*
X2241253Y-1514436D01*
X2241253Y-1514436D02*
X2231729Y-1523960D01*
X2231729Y-1523960D02*
X2212682Y-1533484D01*
X2212682Y-1533484D02*
X2193634Y-1533484D01*
X2193634Y-1533484D02*
X2174587Y-1523960D01*
X2174587Y-1523960D02*
X2165063Y-1514436D01*
X2165063Y-1514436D02*
X2155539Y-1495388D01*
X2155539Y-1495388D02*
X2146015Y-1457293D01*
X2146015Y-1457293D02*
X2146015Y-1409674D01*
X2146015Y-1409674D02*
X2155539Y-1371579D01*
X2155539Y-1371579D02*
X2165063Y-1352531D01*
X2165063Y-1352531D02*
X2174587Y-1343008D01*
X2174587Y-1343008D02*
X2193634Y-1333484D01*
X2346015Y-1514436D02*
X2355539Y-1523960D01*
X2355539Y-1523960D02*
X2346015Y-1533484D01*
X2346015Y-1533484D02*
X2336491Y-1523960D01*
X2336491Y-1523960D02*
X2346015Y-1514436D01*
X2346015Y-1514436D02*
X2346015Y-1533484D01*
X2479348Y-1333484D02*
X2498396Y-1333484D01*
X2498396Y-1333484D02*
X2517444Y-1343008D01*
X2517444Y-1343008D02*
X2526968Y-1352531D01*
X2526968Y-1352531D02*
X2536491Y-1371579D01*
X2536491Y-1371579D02*
X2546015Y-1409674D01*
X2546015Y-1409674D02*
X2546015Y-1457293D01*
X2546015Y-1457293D02*
X2536491Y-1495388D01*
X2536491Y-1495388D02*
X2526968Y-1514436D01*
X2526968Y-1514436D02*
X2517444Y-1523960D01*
X2517444Y-1523960D02*
X2498396Y-1533484D01*
X2498396Y-1533484D02*
X2479348Y-1533484D01*
X2479348Y-1533484D02*
X2460301Y-1523960D01*
X2460301Y-1523960D02*
X2450777Y-1514436D01*
X2450777Y-1514436D02*
X2441253Y-1495388D01*
X2441253Y-1495388D02*
X2431729Y-1457293D01*
X2431729Y-1457293D02*
X2431729Y-1409674D01*
X2431729Y-1409674D02*
X2441253Y-1371579D01*
X2441253Y-1371579D02*
X2450777Y-1352531D01*
X2450777Y-1352531D02*
X2460301Y-1343008D01*
X2460301Y-1343008D02*
X2479348Y-1333484D01*
X2717444Y-1400150D02*
X2717444Y-1533484D01*
X2669825Y-1323960D02*
X2622206Y-1466817D01*
X2622206Y-1466817D02*
X2746015Y-1466817D01*
X2803158Y-1333484D02*
X2936491Y-1333484D01*
X2936491Y-1333484D02*
X2850777Y-1533484D01*
X3003158Y-1352531D02*
X3012682Y-1343008D01*
X3012682Y-1343008D02*
X3031729Y-1333484D01*
X3031729Y-1333484D02*
X3079348Y-1333484D01*
X3079348Y-1333484D02*
X3098396Y-1343008D01*
X3098396Y-1343008D02*
X3107920Y-1352531D01*
X3107920Y-1352531D02*
X3117444Y-1371579D01*
X3117444Y-1371579D02*
X3117444Y-1390627D01*
X3117444Y-1390627D02*
X3107920Y-1419198D01*
X3107920Y-1419198D02*
X2993634Y-1533484D01*
X2993634Y-1533484D02*
X3117444Y-1533484D01*
X3193634Y-1333484D02*
X3193634Y-1371579D01*
X3269825Y-1333484D02*
X3269825Y-1371579D01*
X3565063Y-1609674D02*
X3555539Y-1600150D01*
X3555539Y-1600150D02*
X3536491Y-1571579D01*
X3536491Y-1571579D02*
X3526968Y-1552531D01*
X3526968Y-1552531D02*
X3517444Y-1523960D01*
X3517444Y-1523960D02*
X3507920Y-1476341D01*
X3507920Y-1476341D02*
X3507920Y-1438246D01*
X3507920Y-1438246D02*
X3517444Y-1390627D01*
X3517444Y-1390627D02*
X3526968Y-1362055D01*
X3526968Y-1362055D02*
X3536491Y-1343008D01*
X3536491Y-1343008D02*
X3555539Y-1314436D01*
X3555539Y-1314436D02*
X3565063Y-1304912D01*
X3631729Y-1352531D02*
X3641253Y-1343008D01*
X3641253Y-1343008D02*
X3660301Y-1333484D01*
X3660301Y-1333484D02*
X3707920Y-1333484D01*
X3707920Y-1333484D02*
X3726968Y-1343008D01*
X3726968Y-1343008D02*
X3736491Y-1352531D01*
X3736491Y-1352531D02*
X3746015Y-1371579D01*
X3746015Y-1371579D02*
X3746015Y-1390627D01*
X3746015Y-1390627D02*
X3736491Y-1419198D01*
X3736491Y-1419198D02*
X3622206Y-1533484D01*
X3622206Y-1533484D02*
X3746015Y-1533484D01*
X3917444Y-1333484D02*
X3879348Y-1333484D01*
X3879348Y-1333484D02*
X3860301Y-1343008D01*
X3860301Y-1343008D02*
X3850777Y-1352531D01*
X3850777Y-1352531D02*
X3831729Y-1381103D01*
X3831729Y-1381103D02*
X3822206Y-1419198D01*
X3822206Y-1419198D02*
X3822206Y-1495388D01*
X3822206Y-1495388D02*
X3831729Y-1514436D01*
X3831729Y-1514436D02*
X3841253Y-1523960D01*
X3841253Y-1523960D02*
X3860301Y-1533484D01*
X3860301Y-1533484D02*
X3898396Y-1533484D01*
X3898396Y-1533484D02*
X3917444Y-1523960D01*
X3917444Y-1523960D02*
X3926968Y-1514436D01*
X3926968Y-1514436D02*
X3936491Y-1495388D01*
X3936491Y-1495388D02*
X3936491Y-1447769D01*
X3936491Y-1447769D02*
X3926968Y-1428722D01*
X3926968Y-1428722D02*
X3917444Y-1419198D01*
X3917444Y-1419198D02*
X3898396Y-1409674D01*
X3898396Y-1409674D02*
X3860301Y-1409674D01*
X3860301Y-1409674D02*
X3841253Y-1419198D01*
X3841253Y-1419198D02*
X3831729Y-1428722D01*
X3831729Y-1428722D02*
X3822206Y-1447769D01*
X4174587Y-1533484D02*
X4174587Y-1333484D01*
X4260301Y-1533484D02*
X4260301Y-1428722D01*
X4260301Y-1428722D02*
X4250777Y-1409674D01*
X4250777Y-1409674D02*
X4231730Y-1400150D01*
X4231730Y-1400150D02*
X4203158Y-1400150D01*
X4203158Y-1400150D02*
X4184110Y-1409674D01*
X4184110Y-1409674D02*
X4174587Y-1419198D01*
X4384111Y-1533484D02*
X4365063Y-1523960D01*
X4365063Y-1523960D02*
X4355539Y-1514436D01*
X4355539Y-1514436D02*
X4346015Y-1495388D01*
X4346015Y-1495388D02*
X4346015Y-1438246D01*
X4346015Y-1438246D02*
X4355539Y-1419198D01*
X4355539Y-1419198D02*
X4365063Y-1409674D01*
X4365063Y-1409674D02*
X4384111Y-1400150D01*
X4384111Y-1400150D02*
X4412682Y-1400150D01*
X4412682Y-1400150D02*
X4431730Y-1409674D01*
X4431730Y-1409674D02*
X4441253Y-1419198D01*
X4441253Y-1419198D02*
X4450777Y-1438246D01*
X4450777Y-1438246D02*
X4450777Y-1495388D01*
X4450777Y-1495388D02*
X4441253Y-1514436D01*
X4441253Y-1514436D02*
X4431730Y-1523960D01*
X4431730Y-1523960D02*
X4412682Y-1533484D01*
X4412682Y-1533484D02*
X4384111Y-1533484D01*
X4565063Y-1533484D02*
X4546015Y-1523960D01*
X4546015Y-1523960D02*
X4536492Y-1504912D01*
X4536492Y-1504912D02*
X4536492Y-1333484D01*
X4717444Y-1523960D02*
X4698396Y-1533484D01*
X4698396Y-1533484D02*
X4660301Y-1533484D01*
X4660301Y-1533484D02*
X4641253Y-1523960D01*
X4641253Y-1523960D02*
X4631730Y-1504912D01*
X4631730Y-1504912D02*
X4631730Y-1428722D01*
X4631730Y-1428722D02*
X4641253Y-1409674D01*
X4641253Y-1409674D02*
X4660301Y-1400150D01*
X4660301Y-1400150D02*
X4698396Y-1400150D01*
X4698396Y-1400150D02*
X4717444Y-1409674D01*
X4717444Y-1409674D02*
X4726968Y-1428722D01*
X4726968Y-1428722D02*
X4726968Y-1447769D01*
X4726968Y-1447769D02*
X4631730Y-1466817D01*
X4803158Y-1523960D02*
X4822206Y-1533484D01*
X4822206Y-1533484D02*
X4860301Y-1533484D01*
X4860301Y-1533484D02*
X4879349Y-1523960D01*
X4879349Y-1523960D02*
X4888873Y-1504912D01*
X4888873Y-1504912D02*
X4888873Y-1495388D01*
X4888873Y-1495388D02*
X4879349Y-1476341D01*
X4879349Y-1476341D02*
X4860301Y-1466817D01*
X4860301Y-1466817D02*
X4831730Y-1466817D01*
X4831730Y-1466817D02*
X4812682Y-1457293D01*
X4812682Y-1457293D02*
X4803158Y-1438246D01*
X4803158Y-1438246D02*
X4803158Y-1428722D01*
X4803158Y-1428722D02*
X4812682Y-1409674D01*
X4812682Y-1409674D02*
X4831730Y-1400150D01*
X4831730Y-1400150D02*
X4860301Y-1400150D01*
X4860301Y-1400150D02*
X4879349Y-1409674D01*
X4955539Y-1609674D02*
X4965063Y-1600150D01*
X4965063Y-1600150D02*
X4984111Y-1571579D01*
X4984111Y-1571579D02*
X4993634Y-1552531D01*
X4993634Y-1552531D02*
X5003158Y-1523960D01*
X5003158Y-1523960D02*
X5012682Y-1476341D01*
X5012682Y-1476341D02*
X5012682Y-1438246D01*
X5012682Y-1438246D02*
X5003158Y-1390627D01*
X5003158Y-1390627D02*
X4993634Y-1362055D01*
X4993634Y-1362055D02*
X4984111Y-1343008D01*
X4984111Y-1343008D02*
X4965063Y-1314436D01*
X4965063Y-1314436D02*
X4955539Y-1304912D01*
M02*
