G04 #@! TF.GenerationSoftware,KiCad,Pcbnew,8.0.3*
G04 #@! TF.CreationDate,2024-06-11T23:45:29+02:00*
G04 #@! TF.ProjectId,project,70726f6a-6563-4742-9e6b-696361645f70,rev?*
G04 #@! TF.SameCoordinates,PX5b8d800PY6acfc00*
G04 #@! TF.FileFunction,Soldermask,Top*
G04 #@! TF.FilePolarity,Negative*
%FSLAX46Y46*%
G04 Gerber Fmt 4.6, Leading zero omitted, Abs format (unit mm)*
G04 Created by KiCad (PCBNEW 8.0.3) date 2024-06-11 23:45:29*
%MOMM*%
%LPD*%
G01*
G04 APERTURE LIST*
G04 Aperture macros list*
%AMRoundRect*
0 Rectangle with rounded corners*
0 $1 Rounding radius*
0 $2 $3 $4 $5 $6 $7 $8 $9 X,Y pos of 4 corners*
0 Add a 4 corners polygon primitive as box body*
4,1,4,$2,$3,$4,$5,$6,$7,$8,$9,$2,$3,0*
0 Add four circle primitives for the rounded corners*
1,1,$1+$1,$2,$3*
1,1,$1+$1,$4,$5*
1,1,$1+$1,$6,$7*
1,1,$1+$1,$8,$9*
0 Add four rect primitives between the rounded corners*
20,1,$1+$1,$2,$3,$4,$5,0*
20,1,$1+$1,$4,$5,$6,$7,0*
20,1,$1+$1,$6,$7,$8,$9,0*
20,1,$1+$1,$8,$9,$2,$3,0*%
G04 Aperture macros list end*
%ADD10RoundRect,0.200000X2.000000X1.250000X-2.000000X1.250000X-2.000000X-1.250000X2.000000X-1.250000X0*%
%ADD11C,6.200000*%
%ADD12RoundRect,0.200000X0.900000X-0.622500X0.900000X0.622500X-0.900000X0.622500X-0.900000X-0.622500X0*%
%ADD13C,1.400000*%
%ADD14RoundRect,0.200000X-0.850000X-0.850000X0.850000X-0.850000X0.850000X0.850000X-0.850000X0.850000X0*%
%ADD15O,2.100000X2.100000*%
%ADD16RoundRect,0.200000X-0.572500X-0.750000X0.572500X-0.750000X0.572500X0.750000X-0.572500X0.750000X0*%
%ADD17C,2.180000*%
%ADD18RoundRect,0.200000X0.800000X-0.800000X0.800000X0.800000X-0.800000X0.800000X-0.800000X-0.800000X0*%
%ADD19O,2.000000X2.000000*%
%ADD20RoundRect,0.200000X0.500000X-0.335000X0.500000X0.335000X-0.500000X0.335000X-0.500000X-0.335000X0*%
%ADD21RoundRect,0.200000X-1.800000X0.900000X-1.800000X-0.900000X1.800000X-0.900000X1.800000X0.900000X0*%
%ADD22O,4.000000X2.200000*%
%ADD23RoundRect,0.200000X0.900000X1.800000X-0.900000X1.800000X-0.900000X-1.800000X0.900000X-1.800000X0*%
%ADD24O,2.200000X4.000000*%
%ADD25RoundRect,0.200000X-0.900000X-1.800000X0.900000X-1.800000X0.900000X1.800000X-0.900000X1.800000X0*%
%ADD26RoundRect,0.200000X0.950000X0.400000X-0.950000X0.400000X-0.950000X-0.400000X0.950000X-0.400000X0*%
%ADD27RoundRect,0.200000X-0.400000X0.950000X-0.400000X-0.950000X0.400000X-0.950000X0.400000X0.950000X0*%
%ADD28RoundRect,0.200000X-0.622500X-0.900000X0.622500X-0.900000X0.622500X0.900000X-0.622500X0.900000X0*%
%ADD29RoundRect,0.200000X-0.750000X0.572500X-0.750000X-0.572500X0.750000X-0.572500X0.750000X0.572500X0*%
%ADD30RoundRect,0.200000X-0.500000X0.422500X-0.500000X-0.422500X0.500000X-0.422500X0.500000X0.422500X0*%
%ADD31RoundRect,0.200000X-0.850000X0.850000X-0.850000X-0.850000X0.850000X-0.850000X0.850000X0.850000X0*%
G04 APERTURE END LIST*
D10*
X81450000Y15750000D03*
X87550000Y15750000D03*
D11*
X37000000Y3500000D03*
X95000000Y3500000D03*
X95000000Y52500000D03*
D12*
X34750000Y31315000D03*
X34750000Y34500000D03*
X84250000Y35815000D03*
X84250000Y39000000D03*
D13*
X91500000Y46000000D03*
X95150000Y47750000D03*
X38750000Y51250000D03*
X33750000Y51000000D03*
D14*
X88200000Y31650000D03*
D15*
X90740000Y31650000D03*
X88200000Y29110000D03*
X90740000Y29110000D03*
X88200000Y26570000D03*
X90740000Y26570000D03*
X88200000Y24030000D03*
X90740000Y24030000D03*
D12*
X66300000Y35715000D03*
X66300000Y38900000D03*
X69600000Y35700000D03*
X69600000Y38885000D03*
X72800000Y35715000D03*
X72800000Y38900000D03*
D16*
X28495000Y25450000D03*
X30580000Y25450000D03*
X27495000Y13050000D03*
X29580000Y13050000D03*
X27495000Y9000000D03*
X29580000Y9000000D03*
X43707500Y12750000D03*
X45792500Y12750000D03*
D17*
X37960000Y29450000D03*
X78600000Y29450000D03*
X37960000Y44690000D03*
X78600000Y44690000D03*
D18*
X40500000Y29450000D03*
D19*
X43040000Y29450000D03*
X45580000Y29450000D03*
X48120000Y29450000D03*
X50660000Y29450000D03*
X53200000Y29450000D03*
X55740000Y29450000D03*
X58280000Y29450000D03*
X60820000Y29450000D03*
X63360000Y29450000D03*
X65900000Y29450000D03*
X68440000Y29450000D03*
X70980000Y29450000D03*
X73520000Y29450000D03*
X76060000Y29450000D03*
X76060000Y44690000D03*
X73520000Y44690000D03*
X70980000Y44690000D03*
X68440000Y44690000D03*
X65900000Y44690000D03*
X63360000Y44690000D03*
X60820000Y44690000D03*
X58280000Y44690000D03*
X55740000Y44690000D03*
X53200000Y44690000D03*
X50660000Y44690000D03*
X48120000Y44690000D03*
X45580000Y44690000D03*
X43040000Y44690000D03*
X40500000Y44690000D03*
D20*
X33850000Y42570000D03*
X33850000Y44320000D03*
D21*
X8415994Y50216604D03*
D22*
X8415994Y46716604D03*
X8415994Y43216604D03*
X8415994Y39716604D03*
D21*
X8415994Y32436604D03*
D22*
X8415994Y28936604D03*
X8415994Y25436604D03*
X8415994Y21936604D03*
D21*
X8415994Y14656604D03*
D22*
X8415994Y11156604D03*
X8415994Y7656604D03*
X8415994Y4156604D03*
D23*
X26700000Y47450000D03*
D24*
X23200000Y47450000D03*
X19700000Y47450000D03*
X16200000Y47450000D03*
D25*
X48750000Y8500000D03*
D24*
X52250000Y8500000D03*
X55750000Y8500000D03*
X59250000Y8500000D03*
X62750000Y8500000D03*
X66250000Y8500000D03*
D25*
X72250000Y8500000D03*
D24*
X75750000Y8500000D03*
X79250000Y8500000D03*
X82750000Y8500000D03*
D26*
X22385994Y36566604D03*
X22385994Y38466604D03*
X19385994Y37516604D03*
X22385994Y31644938D03*
X22385994Y33544938D03*
X19385994Y32594938D03*
X22385994Y25453272D03*
X22385994Y27353272D03*
X19385994Y26403272D03*
X22385994Y19261606D03*
X22385994Y21161606D03*
X19385994Y20211606D03*
X22385994Y13069940D03*
X22385994Y14969940D03*
X19385994Y14019940D03*
X22385994Y6878274D03*
X22385994Y8778274D03*
X19385994Y7828274D03*
D27*
X41450000Y12500000D03*
X39550000Y12500000D03*
X40500000Y9500000D03*
X89200000Y43500000D03*
X87300000Y43500000D03*
X88250000Y40500000D03*
X95700000Y43500000D03*
X93800000Y43500000D03*
X94750000Y40500000D03*
D28*
X25907500Y36750000D03*
X29092500Y36750000D03*
X25907500Y32750000D03*
X29092500Y32750000D03*
X27907500Y19290000D03*
X31092500Y19290000D03*
D12*
X76180000Y20407500D03*
X76180000Y23592500D03*
D29*
X88250000Y38080000D03*
X88250000Y35995000D03*
D16*
X87207500Y46000000D03*
X89292500Y46000000D03*
D29*
X94750000Y38080000D03*
X94750000Y35995000D03*
D16*
X93707500Y46000000D03*
X95792500Y46000000D03*
D30*
X33750000Y48212500D03*
X33750000Y46287500D03*
D31*
X41802500Y51230000D03*
D15*
X41802500Y53770000D03*
X44342500Y51230000D03*
X44342500Y53770000D03*
X46882500Y51230000D03*
X46882500Y53770000D03*
X49422500Y51230000D03*
X49422500Y53770000D03*
X51962500Y51230000D03*
X51962500Y53770000D03*
X54502500Y51230000D03*
X54502500Y53770000D03*
X57042500Y51230000D03*
X57042500Y53770000D03*
X59582500Y51230000D03*
X59582500Y53770000D03*
X62122500Y51230000D03*
X62122500Y53770000D03*
X64662500Y51230000D03*
X64662500Y53770000D03*
X67202500Y51230000D03*
X67202500Y53770000D03*
X69742500Y51230000D03*
X69742500Y53770000D03*
X72282500Y51230000D03*
X72282500Y53770000D03*
X74822500Y51230000D03*
X74822500Y53770000D03*
X77362500Y51230000D03*
X77362500Y53770000D03*
X79902500Y51230000D03*
X79902500Y53770000D03*
X82442500Y51230000D03*
X82442500Y53770000D03*
X84982500Y51230000D03*
X84982500Y53770000D03*
X87522500Y51230000D03*
X87522500Y53770000D03*
X90062500Y51230000D03*
X90062500Y53770000D03*
M02*
