%TF.GenerationSoftware,KiCad,Pcbnew,8.0.3*%
%TF.CreationDate,2024-06-11T23:45:37+02:00*%
%TF.ProjectId,project,70726f6a-6563-4742-9e6b-696361645f70,rev?*%
%TF.SameCoordinates,PX5b8d800PY6acfc00*%
%TF.FileFunction,Drillmap*%
%TF.FilePolarity,Positive*%
%FSLAX45Y45*%
G04 Gerber Fmt 4.5, Leading zero omitted, Abs format (unit mm)*
G04 Created by KiCad (PCBNEW 8.0.3) date 2024-06-11 23:45:37*
%MOMM*%
%LPD*%
G01*
G04 APERTURE LIST*
%ADD10C,0.150000*%
%ADD11C,0.200000*%
%ADD12C,0.178000*%
%ADD13C,0.275000*%
G04 APERTURE END LIST*
D10*
X9500000Y0D02*
X3700000Y0D01*
X9850000Y350000D02*
G75*
G02*
X9500000Y0I-350000J0D01*
G01*
X9500000Y5600000D02*
G75*
G02*
X9850000Y5250000I0J-350000D01*
G01*
D11*
X0Y5600000D02*
X0Y0D01*
X0Y0D02*
X3700000Y0D01*
D10*
X0Y5600000D02*
X9500000Y5600000D01*
X9850000Y5250000D02*
X9850000Y350000D01*
D11*
D12*
X3707000Y4558000D02*
X3885000Y4380000D01*
X3885000Y4558000D02*
X3707000Y4380000D01*
X3707000Y3034000D02*
X3885000Y2856000D01*
X3885000Y3034000D02*
X3707000Y2856000D01*
X7771000Y4558000D02*
X7949000Y4380000D01*
X7949000Y4558000D02*
X7771000Y4380000D01*
X7771000Y3034000D02*
X7949000Y2856000D01*
X7949000Y3034000D02*
X7771000Y2856000D01*
D13*
X3837500Y350000D02*
G75*
G02*
X3562500Y350000I-137500J0D01*
G01*
X3562500Y350000D02*
G75*
G02*
X3837500Y350000I137500J0D01*
G01*
X9637500Y5250000D02*
G75*
G02*
X9362500Y5250000I-137500J0D01*
G01*
X9362500Y5250000D02*
G75*
G02*
X9637500Y5250000I137500J0D01*
G01*
X9637500Y350000D02*
G75*
G02*
X9362500Y350000I-137500J0D01*
G01*
X9362500Y350000D02*
G75*
G02*
X9637500Y350000I137500J0D01*
G01*
D11*
X250777Y-321484D02*
X250777Y-121484D01*
X250777Y-121484D02*
X298396Y-121484D01*
X298396Y-121484D02*
X326967Y-131008D01*
X326967Y-131008D02*
X346015Y-150055D01*
X346015Y-150055D02*
X355539Y-169103D01*
X355539Y-169103D02*
X365062Y-207198D01*
X365062Y-207198D02*
X365062Y-235769D01*
X365062Y-235769D02*
X355539Y-273865D01*
X355539Y-273865D02*
X346015Y-292912D01*
X346015Y-292912D02*
X326967Y-311960D01*
X326967Y-311960D02*
X298396Y-321484D01*
X298396Y-321484D02*
X250777Y-321484D01*
X450777Y-321484D02*
X450777Y-188150D01*
X450777Y-226246D02*
X460301Y-207198D01*
X460301Y-207198D02*
X469824Y-197674D01*
X469824Y-197674D02*
X488872Y-188150D01*
X488872Y-188150D02*
X507920Y-188150D01*
X574586Y-321484D02*
X574586Y-188150D01*
X574586Y-121484D02*
X565063Y-131008D01*
X565063Y-131008D02*
X574586Y-140531D01*
X574586Y-140531D02*
X584110Y-131008D01*
X584110Y-131008D02*
X574586Y-121484D01*
X574586Y-121484D02*
X574586Y-140531D01*
X698396Y-321484D02*
X679348Y-311960D01*
X679348Y-311960D02*
X669824Y-292912D01*
X669824Y-292912D02*
X669824Y-121484D01*
X803158Y-321484D02*
X784110Y-311960D01*
X784110Y-311960D02*
X774586Y-292912D01*
X774586Y-292912D02*
X774586Y-121484D01*
X1031729Y-321484D02*
X1031729Y-121484D01*
X1031729Y-121484D02*
X1098396Y-264341D01*
X1098396Y-264341D02*
X1165063Y-121484D01*
X1165063Y-121484D02*
X1165063Y-321484D01*
X1346015Y-321484D02*
X1346015Y-216722D01*
X1346015Y-216722D02*
X1336491Y-197674D01*
X1336491Y-197674D02*
X1317444Y-188150D01*
X1317444Y-188150D02*
X1279348Y-188150D01*
X1279348Y-188150D02*
X1260301Y-197674D01*
X1346015Y-311960D02*
X1326967Y-321484D01*
X1326967Y-321484D02*
X1279348Y-321484D01*
X1279348Y-321484D02*
X1260301Y-311960D01*
X1260301Y-311960D02*
X1250777Y-292912D01*
X1250777Y-292912D02*
X1250777Y-273865D01*
X1250777Y-273865D02*
X1260301Y-254817D01*
X1260301Y-254817D02*
X1279348Y-245293D01*
X1279348Y-245293D02*
X1326967Y-245293D01*
X1326967Y-245293D02*
X1346015Y-235769D01*
X1441253Y-188150D02*
X1441253Y-388150D01*
X1441253Y-197674D02*
X1460301Y-188150D01*
X1460301Y-188150D02*
X1498396Y-188150D01*
X1498396Y-188150D02*
X1517443Y-197674D01*
X1517443Y-197674D02*
X1526967Y-207198D01*
X1526967Y-207198D02*
X1536491Y-226246D01*
X1536491Y-226246D02*
X1536491Y-283389D01*
X1536491Y-283389D02*
X1526967Y-302436D01*
X1526967Y-302436D02*
X1517443Y-311960D01*
X1517443Y-311960D02*
X1498396Y-321484D01*
X1498396Y-321484D02*
X1460301Y-321484D01*
X1460301Y-321484D02*
X1441253Y-311960D01*
X1622205Y-302436D02*
X1631729Y-311960D01*
X1631729Y-311960D02*
X1622205Y-321484D01*
X1622205Y-321484D02*
X1612682Y-311960D01*
X1612682Y-311960D02*
X1622205Y-302436D01*
X1622205Y-302436D02*
X1622205Y-321484D01*
X1622205Y-197674D02*
X1631729Y-207198D01*
X1631729Y-207198D02*
X1622205Y-216722D01*
X1622205Y-216722D02*
X1612682Y-207198D01*
X1612682Y-207198D02*
X1622205Y-197674D01*
X1622205Y-197674D02*
X1622205Y-216722D01*
D12*
X-188000Y-561000D02*
X-10000Y-739000D01*
X-10000Y-561000D02*
X-188000Y-739000D01*
D11*
X355539Y-741484D02*
X241253Y-741484D01*
X298396Y-741484D02*
X298396Y-541484D01*
X298396Y-541484D02*
X279348Y-570055D01*
X279348Y-570055D02*
X260301Y-589103D01*
X260301Y-589103D02*
X241253Y-598627D01*
X441253Y-722436D02*
X450777Y-731960D01*
X450777Y-731960D02*
X441253Y-741484D01*
X441253Y-741484D02*
X431729Y-731960D01*
X431729Y-731960D02*
X441253Y-722436D01*
X441253Y-722436D02*
X441253Y-741484D01*
X517443Y-541484D02*
X650777Y-541484D01*
X650777Y-541484D02*
X565063Y-741484D01*
X755539Y-627198D02*
X736491Y-617674D01*
X736491Y-617674D02*
X726967Y-608150D01*
X726967Y-608150D02*
X717443Y-589103D01*
X717443Y-589103D02*
X717443Y-579579D01*
X717443Y-579579D02*
X726967Y-560531D01*
X726967Y-560531D02*
X736491Y-551008D01*
X736491Y-551008D02*
X755539Y-541484D01*
X755539Y-541484D02*
X793634Y-541484D01*
X793634Y-541484D02*
X812682Y-551008D01*
X812682Y-551008D02*
X822205Y-560531D01*
X822205Y-560531D02*
X831729Y-579579D01*
X831729Y-579579D02*
X831729Y-589103D01*
X831729Y-589103D02*
X822205Y-608150D01*
X822205Y-608150D02*
X812682Y-617674D01*
X812682Y-617674D02*
X793634Y-627198D01*
X793634Y-627198D02*
X755539Y-627198D01*
X755539Y-627198D02*
X736491Y-636722D01*
X736491Y-636722D02*
X726967Y-646246D01*
X726967Y-646246D02*
X717443Y-665293D01*
X717443Y-665293D02*
X717443Y-703388D01*
X717443Y-703388D02*
X726967Y-722436D01*
X726967Y-722436D02*
X736491Y-731960D01*
X736491Y-731960D02*
X755539Y-741484D01*
X755539Y-741484D02*
X793634Y-741484D01*
X793634Y-741484D02*
X812682Y-731960D01*
X812682Y-731960D02*
X822205Y-722436D01*
X822205Y-722436D02*
X831729Y-703388D01*
X831729Y-703388D02*
X831729Y-665293D01*
X831729Y-665293D02*
X822205Y-646246D01*
X822205Y-646246D02*
X812682Y-636722D01*
X812682Y-636722D02*
X793634Y-627198D01*
X955539Y-541484D02*
X974586Y-541484D01*
X974586Y-541484D02*
X993634Y-551008D01*
X993634Y-551008D02*
X1003158Y-560531D01*
X1003158Y-560531D02*
X1012682Y-579579D01*
X1012682Y-579579D02*
X1022205Y-617674D01*
X1022205Y-617674D02*
X1022205Y-665293D01*
X1022205Y-665293D02*
X1012682Y-703388D01*
X1012682Y-703388D02*
X1003158Y-722436D01*
X1003158Y-722436D02*
X993634Y-731960D01*
X993634Y-731960D02*
X974586Y-741484D01*
X974586Y-741484D02*
X955539Y-741484D01*
X955539Y-741484D02*
X936491Y-731960D01*
X936491Y-731960D02*
X926967Y-722436D01*
X926967Y-722436D02*
X917443Y-703388D01*
X917443Y-703388D02*
X907920Y-665293D01*
X907920Y-665293D02*
X907920Y-617674D01*
X907920Y-617674D02*
X917443Y-579579D01*
X917443Y-579579D02*
X926967Y-560531D01*
X926967Y-560531D02*
X936491Y-551008D01*
X936491Y-551008D02*
X955539Y-541484D01*
X1107920Y-741484D02*
X1107920Y-608150D01*
X1107920Y-627198D02*
X1117444Y-617674D01*
X1117444Y-617674D02*
X1136491Y-608150D01*
X1136491Y-608150D02*
X1165063Y-608150D01*
X1165063Y-608150D02*
X1184110Y-617674D01*
X1184110Y-617674D02*
X1193634Y-636722D01*
X1193634Y-636722D02*
X1193634Y-741484D01*
X1193634Y-636722D02*
X1203158Y-617674D01*
X1203158Y-617674D02*
X1222205Y-608150D01*
X1222205Y-608150D02*
X1250777Y-608150D01*
X1250777Y-608150D02*
X1269825Y-617674D01*
X1269825Y-617674D02*
X1279348Y-636722D01*
X1279348Y-636722D02*
X1279348Y-741484D01*
X1374586Y-741484D02*
X1374586Y-608150D01*
X1374586Y-627198D02*
X1384110Y-617674D01*
X1384110Y-617674D02*
X1403158Y-608150D01*
X1403158Y-608150D02*
X1431729Y-608150D01*
X1431729Y-608150D02*
X1450777Y-617674D01*
X1450777Y-617674D02*
X1460301Y-636722D01*
X1460301Y-636722D02*
X1460301Y-741484D01*
X1460301Y-636722D02*
X1469824Y-617674D01*
X1469824Y-617674D02*
X1488872Y-608150D01*
X1488872Y-608150D02*
X1517443Y-608150D01*
X1517443Y-608150D02*
X1536491Y-617674D01*
X1536491Y-617674D02*
X1546015Y-636722D01*
X1546015Y-636722D02*
X1546015Y-741484D01*
X1936491Y-531960D02*
X1765063Y-789103D01*
X2193634Y-541484D02*
X2212682Y-541484D01*
X2212682Y-541484D02*
X2231729Y-551008D01*
X2231729Y-551008D02*
X2241253Y-560531D01*
X2241253Y-560531D02*
X2250777Y-579579D01*
X2250777Y-579579D02*
X2260301Y-617674D01*
X2260301Y-617674D02*
X2260301Y-665293D01*
X2260301Y-665293D02*
X2250777Y-703388D01*
X2250777Y-703388D02*
X2241253Y-722436D01*
X2241253Y-722436D02*
X2231729Y-731960D01*
X2231729Y-731960D02*
X2212682Y-741484D01*
X2212682Y-741484D02*
X2193634Y-741484D01*
X2193634Y-741484D02*
X2174587Y-731960D01*
X2174587Y-731960D02*
X2165063Y-722436D01*
X2165063Y-722436D02*
X2155539Y-703388D01*
X2155539Y-703388D02*
X2146015Y-665293D01*
X2146015Y-665293D02*
X2146015Y-617674D01*
X2146015Y-617674D02*
X2155539Y-579579D01*
X2155539Y-579579D02*
X2165063Y-560531D01*
X2165063Y-560531D02*
X2174587Y-551008D01*
X2174587Y-551008D02*
X2193634Y-541484D01*
X2346015Y-722436D02*
X2355539Y-731960D01*
X2355539Y-731960D02*
X2346015Y-741484D01*
X2346015Y-741484D02*
X2336491Y-731960D01*
X2336491Y-731960D02*
X2346015Y-722436D01*
X2346015Y-722436D02*
X2346015Y-741484D01*
X2479348Y-541484D02*
X2498396Y-541484D01*
X2498396Y-541484D02*
X2517444Y-551008D01*
X2517444Y-551008D02*
X2526968Y-560531D01*
X2526968Y-560531D02*
X2536491Y-579579D01*
X2536491Y-579579D02*
X2546015Y-617674D01*
X2546015Y-617674D02*
X2546015Y-665293D01*
X2546015Y-665293D02*
X2536491Y-703388D01*
X2536491Y-703388D02*
X2526968Y-722436D01*
X2526968Y-722436D02*
X2517444Y-731960D01*
X2517444Y-731960D02*
X2498396Y-741484D01*
X2498396Y-741484D02*
X2479348Y-741484D01*
X2479348Y-741484D02*
X2460301Y-731960D01*
X2460301Y-731960D02*
X2450777Y-722436D01*
X2450777Y-722436D02*
X2441253Y-703388D01*
X2441253Y-703388D02*
X2431729Y-665293D01*
X2431729Y-665293D02*
X2431729Y-617674D01*
X2431729Y-617674D02*
X2441253Y-579579D01*
X2441253Y-579579D02*
X2450777Y-560531D01*
X2450777Y-560531D02*
X2460301Y-551008D01*
X2460301Y-551008D02*
X2479348Y-541484D01*
X2612682Y-541484D02*
X2746015Y-541484D01*
X2746015Y-541484D02*
X2660301Y-741484D01*
X2860301Y-541484D02*
X2879348Y-541484D01*
X2879348Y-541484D02*
X2898396Y-551008D01*
X2898396Y-551008D02*
X2907920Y-560531D01*
X2907920Y-560531D02*
X2917444Y-579579D01*
X2917444Y-579579D02*
X2926967Y-617674D01*
X2926967Y-617674D02*
X2926967Y-665293D01*
X2926967Y-665293D02*
X2917444Y-703388D01*
X2917444Y-703388D02*
X2907920Y-722436D01*
X2907920Y-722436D02*
X2898396Y-731960D01*
X2898396Y-731960D02*
X2879348Y-741484D01*
X2879348Y-741484D02*
X2860301Y-741484D01*
X2860301Y-741484D02*
X2841253Y-731960D01*
X2841253Y-731960D02*
X2831729Y-722436D01*
X2831729Y-722436D02*
X2822206Y-703388D01*
X2822206Y-703388D02*
X2812682Y-665293D01*
X2812682Y-665293D02*
X2812682Y-617674D01*
X2812682Y-617674D02*
X2822206Y-579579D01*
X2822206Y-579579D02*
X2831729Y-560531D01*
X2831729Y-560531D02*
X2841253Y-551008D01*
X2841253Y-551008D02*
X2860301Y-541484D01*
X3117444Y-741484D02*
X3003158Y-741484D01*
X3060301Y-741484D02*
X3060301Y-541484D01*
X3060301Y-541484D02*
X3041253Y-570055D01*
X3041253Y-570055D02*
X3022206Y-589103D01*
X3022206Y-589103D02*
X3003158Y-598627D01*
X3193634Y-541484D02*
X3193634Y-579579D01*
X3269825Y-541484D02*
X3269825Y-579579D01*
X3565063Y-817674D02*
X3555539Y-808150D01*
X3555539Y-808150D02*
X3536491Y-779579D01*
X3536491Y-779579D02*
X3526968Y-760531D01*
X3526968Y-760531D02*
X3517444Y-731960D01*
X3517444Y-731960D02*
X3507920Y-684341D01*
X3507920Y-684341D02*
X3507920Y-646246D01*
X3507920Y-646246D02*
X3517444Y-598627D01*
X3517444Y-598627D02*
X3526968Y-570055D01*
X3526968Y-570055D02*
X3536491Y-551008D01*
X3536491Y-551008D02*
X3555539Y-522436D01*
X3555539Y-522436D02*
X3565063Y-512912D01*
X3726968Y-608150D02*
X3726968Y-741484D01*
X3679348Y-531960D02*
X3631729Y-674817D01*
X3631729Y-674817D02*
X3755539Y-674817D01*
X3984110Y-741484D02*
X3984110Y-541484D01*
X4069825Y-741484D02*
X4069825Y-636722D01*
X4069825Y-636722D02*
X4060301Y-617674D01*
X4060301Y-617674D02*
X4041253Y-608150D01*
X4041253Y-608150D02*
X4012682Y-608150D01*
X4012682Y-608150D02*
X3993634Y-617674D01*
X3993634Y-617674D02*
X3984110Y-627198D01*
X4193634Y-741484D02*
X4174587Y-731960D01*
X4174587Y-731960D02*
X4165063Y-722436D01*
X4165063Y-722436D02*
X4155539Y-703388D01*
X4155539Y-703388D02*
X4155539Y-646246D01*
X4155539Y-646246D02*
X4165063Y-627198D01*
X4165063Y-627198D02*
X4174587Y-617674D01*
X4174587Y-617674D02*
X4193634Y-608150D01*
X4193634Y-608150D02*
X4222206Y-608150D01*
X4222206Y-608150D02*
X4241253Y-617674D01*
X4241253Y-617674D02*
X4250777Y-627198D01*
X4250777Y-627198D02*
X4260301Y-646246D01*
X4260301Y-646246D02*
X4260301Y-703388D01*
X4260301Y-703388D02*
X4250777Y-722436D01*
X4250777Y-722436D02*
X4241253Y-731960D01*
X4241253Y-731960D02*
X4222206Y-741484D01*
X4222206Y-741484D02*
X4193634Y-741484D01*
X4374587Y-741484D02*
X4355539Y-731960D01*
X4355539Y-731960D02*
X4346015Y-712912D01*
X4346015Y-712912D02*
X4346015Y-541484D01*
X4526968Y-731960D02*
X4507920Y-741484D01*
X4507920Y-741484D02*
X4469825Y-741484D01*
X4469825Y-741484D02*
X4450777Y-731960D01*
X4450777Y-731960D02*
X4441253Y-712912D01*
X4441253Y-712912D02*
X4441253Y-636722D01*
X4441253Y-636722D02*
X4450777Y-617674D01*
X4450777Y-617674D02*
X4469825Y-608150D01*
X4469825Y-608150D02*
X4507920Y-608150D01*
X4507920Y-608150D02*
X4526968Y-617674D01*
X4526968Y-617674D02*
X4536492Y-636722D01*
X4536492Y-636722D02*
X4536492Y-655770D01*
X4536492Y-655770D02*
X4441253Y-674817D01*
X4612682Y-731960D02*
X4631730Y-741484D01*
X4631730Y-741484D02*
X4669825Y-741484D01*
X4669825Y-741484D02*
X4688873Y-731960D01*
X4688873Y-731960D02*
X4698396Y-712912D01*
X4698396Y-712912D02*
X4698396Y-703388D01*
X4698396Y-703388D02*
X4688873Y-684341D01*
X4688873Y-684341D02*
X4669825Y-674817D01*
X4669825Y-674817D02*
X4641253Y-674817D01*
X4641253Y-674817D02*
X4622206Y-665293D01*
X4622206Y-665293D02*
X4612682Y-646246D01*
X4612682Y-646246D02*
X4612682Y-636722D01*
X4612682Y-636722D02*
X4622206Y-617674D01*
X4622206Y-617674D02*
X4641253Y-608150D01*
X4641253Y-608150D02*
X4669825Y-608150D01*
X4669825Y-608150D02*
X4688873Y-617674D01*
X4765063Y-817674D02*
X4774587Y-808150D01*
X4774587Y-808150D02*
X4793634Y-779579D01*
X4793634Y-779579D02*
X4803158Y-760531D01*
X4803158Y-760531D02*
X4812682Y-731960D01*
X4812682Y-731960D02*
X4822206Y-684341D01*
X4822206Y-684341D02*
X4822206Y-646246D01*
X4822206Y-646246D02*
X4812682Y-598627D01*
X4812682Y-598627D02*
X4803158Y-570055D01*
X4803158Y-570055D02*
X4793634Y-551008D01*
X4793634Y-551008D02*
X4774587Y-522436D01*
X4774587Y-522436D02*
X4765063Y-512912D01*
X5126968Y-817674D02*
X5117444Y-808150D01*
X5117444Y-808150D02*
X5098396Y-779579D01*
X5098396Y-779579D02*
X5088873Y-760531D01*
X5088873Y-760531D02*
X5079349Y-731960D01*
X5079349Y-731960D02*
X5069825Y-684341D01*
X5069825Y-684341D02*
X5069825Y-646246D01*
X5069825Y-646246D02*
X5079349Y-598627D01*
X5079349Y-598627D02*
X5088873Y-570055D01*
X5088873Y-570055D02*
X5098396Y-551008D01*
X5098396Y-551008D02*
X5117444Y-522436D01*
X5117444Y-522436D02*
X5126968Y-512912D01*
X5203158Y-608150D02*
X5203158Y-741484D01*
X5203158Y-627198D02*
X5212682Y-617674D01*
X5212682Y-617674D02*
X5231730Y-608150D01*
X5231730Y-608150D02*
X5260301Y-608150D01*
X5260301Y-608150D02*
X5279349Y-617674D01*
X5279349Y-617674D02*
X5288873Y-636722D01*
X5288873Y-636722D02*
X5288873Y-741484D01*
X5412682Y-741484D02*
X5393634Y-731960D01*
X5393634Y-731960D02*
X5384111Y-722436D01*
X5384111Y-722436D02*
X5374587Y-703388D01*
X5374587Y-703388D02*
X5374587Y-646246D01*
X5374587Y-646246D02*
X5384111Y-627198D01*
X5384111Y-627198D02*
X5393634Y-617674D01*
X5393634Y-617674D02*
X5412682Y-608150D01*
X5412682Y-608150D02*
X5441254Y-608150D01*
X5441254Y-608150D02*
X5460301Y-617674D01*
X5460301Y-617674D02*
X5469825Y-627198D01*
X5469825Y-627198D02*
X5479349Y-646246D01*
X5479349Y-646246D02*
X5479349Y-703388D01*
X5479349Y-703388D02*
X5469825Y-722436D01*
X5469825Y-722436D02*
X5460301Y-731960D01*
X5460301Y-731960D02*
X5441254Y-741484D01*
X5441254Y-741484D02*
X5412682Y-741484D01*
X5536492Y-608150D02*
X5612682Y-608150D01*
X5565063Y-541484D02*
X5565063Y-712912D01*
X5565063Y-712912D02*
X5574587Y-731960D01*
X5574587Y-731960D02*
X5593634Y-741484D01*
X5593634Y-741484D02*
X5612682Y-741484D01*
X5831730Y-608150D02*
X5831730Y-808150D01*
X5831730Y-617674D02*
X5850777Y-608150D01*
X5850777Y-608150D02*
X5888873Y-608150D01*
X5888873Y-608150D02*
X5907920Y-617674D01*
X5907920Y-617674D02*
X5917444Y-627198D01*
X5917444Y-627198D02*
X5926968Y-646246D01*
X5926968Y-646246D02*
X5926968Y-703388D01*
X5926968Y-703388D02*
X5917444Y-722436D01*
X5917444Y-722436D02*
X5907920Y-731960D01*
X5907920Y-731960D02*
X5888873Y-741484D01*
X5888873Y-741484D02*
X5850777Y-741484D01*
X5850777Y-741484D02*
X5831730Y-731960D01*
X6041253Y-741484D02*
X6022206Y-731960D01*
X6022206Y-731960D02*
X6012682Y-712912D01*
X6012682Y-712912D02*
X6012682Y-541484D01*
X6203158Y-741484D02*
X6203158Y-636722D01*
X6203158Y-636722D02*
X6193634Y-617674D01*
X6193634Y-617674D02*
X6174587Y-608150D01*
X6174587Y-608150D02*
X6136492Y-608150D01*
X6136492Y-608150D02*
X6117444Y-617674D01*
X6203158Y-731960D02*
X6184111Y-741484D01*
X6184111Y-741484D02*
X6136492Y-741484D01*
X6136492Y-741484D02*
X6117444Y-731960D01*
X6117444Y-731960D02*
X6107920Y-712912D01*
X6107920Y-712912D02*
X6107920Y-693865D01*
X6107920Y-693865D02*
X6117444Y-674817D01*
X6117444Y-674817D02*
X6136492Y-665293D01*
X6136492Y-665293D02*
X6184111Y-665293D01*
X6184111Y-665293D02*
X6203158Y-655770D01*
X6269825Y-608150D02*
X6346015Y-608150D01*
X6298396Y-541484D02*
X6298396Y-712912D01*
X6298396Y-712912D02*
X6307920Y-731960D01*
X6307920Y-731960D02*
X6326968Y-741484D01*
X6326968Y-741484D02*
X6346015Y-741484D01*
X6488873Y-731960D02*
X6469825Y-741484D01*
X6469825Y-741484D02*
X6431730Y-741484D01*
X6431730Y-741484D02*
X6412682Y-731960D01*
X6412682Y-731960D02*
X6403158Y-712912D01*
X6403158Y-712912D02*
X6403158Y-636722D01*
X6403158Y-636722D02*
X6412682Y-617674D01*
X6412682Y-617674D02*
X6431730Y-608150D01*
X6431730Y-608150D02*
X6469825Y-608150D01*
X6469825Y-608150D02*
X6488873Y-617674D01*
X6488873Y-617674D02*
X6498396Y-636722D01*
X6498396Y-636722D02*
X6498396Y-655770D01*
X6498396Y-655770D02*
X6403158Y-674817D01*
X6669825Y-741484D02*
X6669825Y-541484D01*
X6669825Y-731960D02*
X6650777Y-741484D01*
X6650777Y-741484D02*
X6612682Y-741484D01*
X6612682Y-741484D02*
X6593634Y-731960D01*
X6593634Y-731960D02*
X6584111Y-722436D01*
X6584111Y-722436D02*
X6574587Y-703388D01*
X6574587Y-703388D02*
X6574587Y-646246D01*
X6574587Y-646246D02*
X6584111Y-627198D01*
X6584111Y-627198D02*
X6593634Y-617674D01*
X6593634Y-617674D02*
X6612682Y-608150D01*
X6612682Y-608150D02*
X6650777Y-608150D01*
X6650777Y-608150D02*
X6669825Y-617674D01*
X6746015Y-817674D02*
X6755539Y-808150D01*
X6755539Y-808150D02*
X6774587Y-779579D01*
X6774587Y-779579D02*
X6784111Y-760531D01*
X6784111Y-760531D02*
X6793634Y-731960D01*
X6793634Y-731960D02*
X6803158Y-684341D01*
X6803158Y-684341D02*
X6803158Y-646246D01*
X6803158Y-646246D02*
X6793634Y-598627D01*
X6793634Y-598627D02*
X6784111Y-570055D01*
X6784111Y-570055D02*
X6774587Y-551008D01*
X6774587Y-551008D02*
X6755539Y-522436D01*
X6755539Y-522436D02*
X6746015Y-512912D01*
X-10000Y-948000D02*
G75*
G02*
X-210000Y-948000I-100000J0D01*
G01*
X-210000Y-948000D02*
G75*
G02*
X-10000Y-948000I100000J0D01*
G01*
X241253Y-858531D02*
X250777Y-849008D01*
X250777Y-849008D02*
X269824Y-839484D01*
X269824Y-839484D02*
X317444Y-839484D01*
X317444Y-839484D02*
X336491Y-849008D01*
X336491Y-849008D02*
X346015Y-858531D01*
X346015Y-858531D02*
X355539Y-877579D01*
X355539Y-877579D02*
X355539Y-896627D01*
X355539Y-896627D02*
X346015Y-925198D01*
X346015Y-925198D02*
X231729Y-1039484D01*
X231729Y-1039484D02*
X355539Y-1039484D01*
X441253Y-1020436D02*
X450777Y-1029960D01*
X450777Y-1029960D02*
X441253Y-1039484D01*
X441253Y-1039484D02*
X431729Y-1029960D01*
X431729Y-1029960D02*
X441253Y-1020436D01*
X441253Y-1020436D02*
X441253Y-1039484D01*
X517443Y-839484D02*
X650777Y-839484D01*
X650777Y-839484D02*
X565063Y-1039484D01*
X822205Y-839484D02*
X726967Y-839484D01*
X726967Y-839484D02*
X717443Y-934722D01*
X717443Y-934722D02*
X726967Y-925198D01*
X726967Y-925198D02*
X746015Y-915674D01*
X746015Y-915674D02*
X793634Y-915674D01*
X793634Y-915674D02*
X812682Y-925198D01*
X812682Y-925198D02*
X822205Y-934722D01*
X822205Y-934722D02*
X831729Y-953769D01*
X831729Y-953769D02*
X831729Y-1001388D01*
X831729Y-1001388D02*
X822205Y-1020436D01*
X822205Y-1020436D02*
X812682Y-1029960D01*
X812682Y-1029960D02*
X793634Y-1039484D01*
X793634Y-1039484D02*
X746015Y-1039484D01*
X746015Y-1039484D02*
X726967Y-1029960D01*
X726967Y-1029960D02*
X717443Y-1020436D01*
X955539Y-839484D02*
X974586Y-839484D01*
X974586Y-839484D02*
X993634Y-849008D01*
X993634Y-849008D02*
X1003158Y-858531D01*
X1003158Y-858531D02*
X1012682Y-877579D01*
X1012682Y-877579D02*
X1022205Y-915674D01*
X1022205Y-915674D02*
X1022205Y-963293D01*
X1022205Y-963293D02*
X1012682Y-1001388D01*
X1012682Y-1001388D02*
X1003158Y-1020436D01*
X1003158Y-1020436D02*
X993634Y-1029960D01*
X993634Y-1029960D02*
X974586Y-1039484D01*
X974586Y-1039484D02*
X955539Y-1039484D01*
X955539Y-1039484D02*
X936491Y-1029960D01*
X936491Y-1029960D02*
X926967Y-1020436D01*
X926967Y-1020436D02*
X917443Y-1001388D01*
X917443Y-1001388D02*
X907920Y-963293D01*
X907920Y-963293D02*
X907920Y-915674D01*
X907920Y-915674D02*
X917443Y-877579D01*
X917443Y-877579D02*
X926967Y-858531D01*
X926967Y-858531D02*
X936491Y-849008D01*
X936491Y-849008D02*
X955539Y-839484D01*
X1107920Y-1039484D02*
X1107920Y-906150D01*
X1107920Y-925198D02*
X1117444Y-915674D01*
X1117444Y-915674D02*
X1136491Y-906150D01*
X1136491Y-906150D02*
X1165063Y-906150D01*
X1165063Y-906150D02*
X1184110Y-915674D01*
X1184110Y-915674D02*
X1193634Y-934722D01*
X1193634Y-934722D02*
X1193634Y-1039484D01*
X1193634Y-934722D02*
X1203158Y-915674D01*
X1203158Y-915674D02*
X1222205Y-906150D01*
X1222205Y-906150D02*
X1250777Y-906150D01*
X1250777Y-906150D02*
X1269825Y-915674D01*
X1269825Y-915674D02*
X1279348Y-934722D01*
X1279348Y-934722D02*
X1279348Y-1039484D01*
X1374586Y-1039484D02*
X1374586Y-906150D01*
X1374586Y-925198D02*
X1384110Y-915674D01*
X1384110Y-915674D02*
X1403158Y-906150D01*
X1403158Y-906150D02*
X1431729Y-906150D01*
X1431729Y-906150D02*
X1450777Y-915674D01*
X1450777Y-915674D02*
X1460301Y-934722D01*
X1460301Y-934722D02*
X1460301Y-1039484D01*
X1460301Y-934722D02*
X1469824Y-915674D01*
X1469824Y-915674D02*
X1488872Y-906150D01*
X1488872Y-906150D02*
X1517443Y-906150D01*
X1517443Y-906150D02*
X1536491Y-915674D01*
X1536491Y-915674D02*
X1546015Y-934722D01*
X1546015Y-934722D02*
X1546015Y-1039484D01*
X1936491Y-829960D02*
X1765063Y-1087103D01*
X2193634Y-839484D02*
X2212682Y-839484D01*
X2212682Y-839484D02*
X2231729Y-849008D01*
X2231729Y-849008D02*
X2241253Y-858531D01*
X2241253Y-858531D02*
X2250777Y-877579D01*
X2250777Y-877579D02*
X2260301Y-915674D01*
X2260301Y-915674D02*
X2260301Y-963293D01*
X2260301Y-963293D02*
X2250777Y-1001388D01*
X2250777Y-1001388D02*
X2241253Y-1020436D01*
X2241253Y-1020436D02*
X2231729Y-1029960D01*
X2231729Y-1029960D02*
X2212682Y-1039484D01*
X2212682Y-1039484D02*
X2193634Y-1039484D01*
X2193634Y-1039484D02*
X2174587Y-1029960D01*
X2174587Y-1029960D02*
X2165063Y-1020436D01*
X2165063Y-1020436D02*
X2155539Y-1001388D01*
X2155539Y-1001388D02*
X2146015Y-963293D01*
X2146015Y-963293D02*
X2146015Y-915674D01*
X2146015Y-915674D02*
X2155539Y-877579D01*
X2155539Y-877579D02*
X2165063Y-858531D01*
X2165063Y-858531D02*
X2174587Y-849008D01*
X2174587Y-849008D02*
X2193634Y-839484D01*
X2346015Y-1020436D02*
X2355539Y-1029960D01*
X2355539Y-1029960D02*
X2346015Y-1039484D01*
X2346015Y-1039484D02*
X2336491Y-1029960D01*
X2336491Y-1029960D02*
X2346015Y-1020436D01*
X2346015Y-1020436D02*
X2346015Y-1039484D01*
X2546015Y-1039484D02*
X2431729Y-1039484D01*
X2488872Y-1039484D02*
X2488872Y-839484D01*
X2488872Y-839484D02*
X2469825Y-868055D01*
X2469825Y-868055D02*
X2450777Y-887103D01*
X2450777Y-887103D02*
X2431729Y-896627D01*
X2669825Y-839484D02*
X2688872Y-839484D01*
X2688872Y-839484D02*
X2707920Y-849008D01*
X2707920Y-849008D02*
X2717444Y-858531D01*
X2717444Y-858531D02*
X2726968Y-877579D01*
X2726968Y-877579D02*
X2736491Y-915674D01*
X2736491Y-915674D02*
X2736491Y-963293D01*
X2736491Y-963293D02*
X2726968Y-1001388D01*
X2726968Y-1001388D02*
X2717444Y-1020436D01*
X2717444Y-1020436D02*
X2707920Y-1029960D01*
X2707920Y-1029960D02*
X2688872Y-1039484D01*
X2688872Y-1039484D02*
X2669825Y-1039484D01*
X2669825Y-1039484D02*
X2650777Y-1029960D01*
X2650777Y-1029960D02*
X2641253Y-1020436D01*
X2641253Y-1020436D02*
X2631729Y-1001388D01*
X2631729Y-1001388D02*
X2622206Y-963293D01*
X2622206Y-963293D02*
X2622206Y-915674D01*
X2622206Y-915674D02*
X2631729Y-877579D01*
X2631729Y-877579D02*
X2641253Y-858531D01*
X2641253Y-858531D02*
X2650777Y-849008D01*
X2650777Y-849008D02*
X2669825Y-839484D01*
X2850777Y-925198D02*
X2831729Y-915674D01*
X2831729Y-915674D02*
X2822206Y-906150D01*
X2822206Y-906150D02*
X2812682Y-887103D01*
X2812682Y-887103D02*
X2812682Y-877579D01*
X2812682Y-877579D02*
X2822206Y-858531D01*
X2822206Y-858531D02*
X2831729Y-849008D01*
X2831729Y-849008D02*
X2850777Y-839484D01*
X2850777Y-839484D02*
X2888872Y-839484D01*
X2888872Y-839484D02*
X2907920Y-849008D01*
X2907920Y-849008D02*
X2917444Y-858531D01*
X2917444Y-858531D02*
X2926967Y-877579D01*
X2926967Y-877579D02*
X2926967Y-887103D01*
X2926967Y-887103D02*
X2917444Y-906150D01*
X2917444Y-906150D02*
X2907920Y-915674D01*
X2907920Y-915674D02*
X2888872Y-925198D01*
X2888872Y-925198D02*
X2850777Y-925198D01*
X2850777Y-925198D02*
X2831729Y-934722D01*
X2831729Y-934722D02*
X2822206Y-944246D01*
X2822206Y-944246D02*
X2812682Y-963293D01*
X2812682Y-963293D02*
X2812682Y-1001388D01*
X2812682Y-1001388D02*
X2822206Y-1020436D01*
X2822206Y-1020436D02*
X2831729Y-1029960D01*
X2831729Y-1029960D02*
X2850777Y-1039484D01*
X2850777Y-1039484D02*
X2888872Y-1039484D01*
X2888872Y-1039484D02*
X2907920Y-1029960D01*
X2907920Y-1029960D02*
X2917444Y-1020436D01*
X2917444Y-1020436D02*
X2926967Y-1001388D01*
X2926967Y-1001388D02*
X2926967Y-963293D01*
X2926967Y-963293D02*
X2917444Y-944246D01*
X2917444Y-944246D02*
X2907920Y-934722D01*
X2907920Y-934722D02*
X2888872Y-925198D01*
X2993634Y-839484D02*
X3117444Y-839484D01*
X3117444Y-839484D02*
X3050777Y-915674D01*
X3050777Y-915674D02*
X3079348Y-915674D01*
X3079348Y-915674D02*
X3098396Y-925198D01*
X3098396Y-925198D02*
X3107920Y-934722D01*
X3107920Y-934722D02*
X3117444Y-953769D01*
X3117444Y-953769D02*
X3117444Y-1001388D01*
X3117444Y-1001388D02*
X3107920Y-1020436D01*
X3107920Y-1020436D02*
X3098396Y-1029960D01*
X3098396Y-1029960D02*
X3079348Y-1039484D01*
X3079348Y-1039484D02*
X3022206Y-1039484D01*
X3022206Y-1039484D02*
X3003158Y-1029960D01*
X3003158Y-1029960D02*
X2993634Y-1020436D01*
X3193634Y-839484D02*
X3193634Y-877579D01*
X3269825Y-839484D02*
X3269825Y-877579D01*
X3565063Y-1115674D02*
X3555539Y-1106150D01*
X3555539Y-1106150D02*
X3536491Y-1077579D01*
X3536491Y-1077579D02*
X3526968Y-1058531D01*
X3526968Y-1058531D02*
X3517444Y-1029960D01*
X3517444Y-1029960D02*
X3507920Y-982341D01*
X3507920Y-982341D02*
X3507920Y-944246D01*
X3507920Y-944246D02*
X3517444Y-896627D01*
X3517444Y-896627D02*
X3526968Y-868055D01*
X3526968Y-868055D02*
X3536491Y-849008D01*
X3536491Y-849008D02*
X3555539Y-820436D01*
X3555539Y-820436D02*
X3565063Y-810912D01*
X3622206Y-839484D02*
X3746015Y-839484D01*
X3746015Y-839484D02*
X3679348Y-915674D01*
X3679348Y-915674D02*
X3707920Y-915674D01*
X3707920Y-915674D02*
X3726968Y-925198D01*
X3726968Y-925198D02*
X3736491Y-934722D01*
X3736491Y-934722D02*
X3746015Y-953769D01*
X3746015Y-953769D02*
X3746015Y-1001388D01*
X3746015Y-1001388D02*
X3736491Y-1020436D01*
X3736491Y-1020436D02*
X3726968Y-1029960D01*
X3726968Y-1029960D02*
X3707920Y-1039484D01*
X3707920Y-1039484D02*
X3650777Y-1039484D01*
X3650777Y-1039484D02*
X3631729Y-1029960D01*
X3631729Y-1029960D02*
X3622206Y-1020436D01*
X3984110Y-1039484D02*
X3984110Y-839484D01*
X4069825Y-1039484D02*
X4069825Y-934722D01*
X4069825Y-934722D02*
X4060301Y-915674D01*
X4060301Y-915674D02*
X4041253Y-906150D01*
X4041253Y-906150D02*
X4012682Y-906150D01*
X4012682Y-906150D02*
X3993634Y-915674D01*
X3993634Y-915674D02*
X3984110Y-925198D01*
X4193634Y-1039484D02*
X4174587Y-1029960D01*
X4174587Y-1029960D02*
X4165063Y-1020436D01*
X4165063Y-1020436D02*
X4155539Y-1001388D01*
X4155539Y-1001388D02*
X4155539Y-944246D01*
X4155539Y-944246D02*
X4165063Y-925198D01*
X4165063Y-925198D02*
X4174587Y-915674D01*
X4174587Y-915674D02*
X4193634Y-906150D01*
X4193634Y-906150D02*
X4222206Y-906150D01*
X4222206Y-906150D02*
X4241253Y-915674D01*
X4241253Y-915674D02*
X4250777Y-925198D01*
X4250777Y-925198D02*
X4260301Y-944246D01*
X4260301Y-944246D02*
X4260301Y-1001388D01*
X4260301Y-1001388D02*
X4250777Y-1020436D01*
X4250777Y-1020436D02*
X4241253Y-1029960D01*
X4241253Y-1029960D02*
X4222206Y-1039484D01*
X4222206Y-1039484D02*
X4193634Y-1039484D01*
X4374587Y-1039484D02*
X4355539Y-1029960D01*
X4355539Y-1029960D02*
X4346015Y-1010912D01*
X4346015Y-1010912D02*
X4346015Y-839484D01*
X4526968Y-1029960D02*
X4507920Y-1039484D01*
X4507920Y-1039484D02*
X4469825Y-1039484D01*
X4469825Y-1039484D02*
X4450777Y-1029960D01*
X4450777Y-1029960D02*
X4441253Y-1010912D01*
X4441253Y-1010912D02*
X4441253Y-934722D01*
X4441253Y-934722D02*
X4450777Y-915674D01*
X4450777Y-915674D02*
X4469825Y-906150D01*
X4469825Y-906150D02*
X4507920Y-906150D01*
X4507920Y-906150D02*
X4526968Y-915674D01*
X4526968Y-915674D02*
X4536492Y-934722D01*
X4536492Y-934722D02*
X4536492Y-953769D01*
X4536492Y-953769D02*
X4441253Y-972817D01*
X4612682Y-1029960D02*
X4631730Y-1039484D01*
X4631730Y-1039484D02*
X4669825Y-1039484D01*
X4669825Y-1039484D02*
X4688873Y-1029960D01*
X4688873Y-1029960D02*
X4698396Y-1010912D01*
X4698396Y-1010912D02*
X4698396Y-1001388D01*
X4698396Y-1001388D02*
X4688873Y-982341D01*
X4688873Y-982341D02*
X4669825Y-972817D01*
X4669825Y-972817D02*
X4641253Y-972817D01*
X4641253Y-972817D02*
X4622206Y-963293D01*
X4622206Y-963293D02*
X4612682Y-944246D01*
X4612682Y-944246D02*
X4612682Y-934722D01*
X4612682Y-934722D02*
X4622206Y-915674D01*
X4622206Y-915674D02*
X4641253Y-906150D01*
X4641253Y-906150D02*
X4669825Y-906150D01*
X4669825Y-906150D02*
X4688873Y-915674D01*
X4765063Y-1115674D02*
X4774587Y-1106150D01*
X4774587Y-1106150D02*
X4793634Y-1077579D01*
X4793634Y-1077579D02*
X4803158Y-1058531D01*
X4803158Y-1058531D02*
X4812682Y-1029960D01*
X4812682Y-1029960D02*
X4822206Y-982341D01*
X4822206Y-982341D02*
X4822206Y-944246D01*
X4822206Y-944246D02*
X4812682Y-896627D01*
X4812682Y-896627D02*
X4803158Y-868055D01*
X4803158Y-868055D02*
X4793634Y-849008D01*
X4793634Y-849008D02*
X4774587Y-820436D01*
X4774587Y-820436D02*
X4765063Y-810912D01*
X5126968Y-1115674D02*
X5117444Y-1106150D01*
X5117444Y-1106150D02*
X5098396Y-1077579D01*
X5098396Y-1077579D02*
X5088873Y-1058531D01*
X5088873Y-1058531D02*
X5079349Y-1029960D01*
X5079349Y-1029960D02*
X5069825Y-982341D01*
X5069825Y-982341D02*
X5069825Y-944246D01*
X5069825Y-944246D02*
X5079349Y-896627D01*
X5079349Y-896627D02*
X5088873Y-868055D01*
X5088873Y-868055D02*
X5098396Y-849008D01*
X5098396Y-849008D02*
X5117444Y-820436D01*
X5117444Y-820436D02*
X5126968Y-810912D01*
X5203158Y-906150D02*
X5203158Y-1039484D01*
X5203158Y-925198D02*
X5212682Y-915674D01*
X5212682Y-915674D02*
X5231730Y-906150D01*
X5231730Y-906150D02*
X5260301Y-906150D01*
X5260301Y-906150D02*
X5279349Y-915674D01*
X5279349Y-915674D02*
X5288873Y-934722D01*
X5288873Y-934722D02*
X5288873Y-1039484D01*
X5412682Y-1039484D02*
X5393634Y-1029960D01*
X5393634Y-1029960D02*
X5384111Y-1020436D01*
X5384111Y-1020436D02*
X5374587Y-1001388D01*
X5374587Y-1001388D02*
X5374587Y-944246D01*
X5374587Y-944246D02*
X5384111Y-925198D01*
X5384111Y-925198D02*
X5393634Y-915674D01*
X5393634Y-915674D02*
X5412682Y-906150D01*
X5412682Y-906150D02*
X5441254Y-906150D01*
X5441254Y-906150D02*
X5460301Y-915674D01*
X5460301Y-915674D02*
X5469825Y-925198D01*
X5469825Y-925198D02*
X5479349Y-944246D01*
X5479349Y-944246D02*
X5479349Y-1001388D01*
X5479349Y-1001388D02*
X5469825Y-1020436D01*
X5469825Y-1020436D02*
X5460301Y-1029960D01*
X5460301Y-1029960D02*
X5441254Y-1039484D01*
X5441254Y-1039484D02*
X5412682Y-1039484D01*
X5536492Y-906150D02*
X5612682Y-906150D01*
X5565063Y-839484D02*
X5565063Y-1010912D01*
X5565063Y-1010912D02*
X5574587Y-1029960D01*
X5574587Y-1029960D02*
X5593634Y-1039484D01*
X5593634Y-1039484D02*
X5612682Y-1039484D01*
X5831730Y-906150D02*
X5831730Y-1106150D01*
X5831730Y-915674D02*
X5850777Y-906150D01*
X5850777Y-906150D02*
X5888873Y-906150D01*
X5888873Y-906150D02*
X5907920Y-915674D01*
X5907920Y-915674D02*
X5917444Y-925198D01*
X5917444Y-925198D02*
X5926968Y-944246D01*
X5926968Y-944246D02*
X5926968Y-1001388D01*
X5926968Y-1001388D02*
X5917444Y-1020436D01*
X5917444Y-1020436D02*
X5907920Y-1029960D01*
X5907920Y-1029960D02*
X5888873Y-1039484D01*
X5888873Y-1039484D02*
X5850777Y-1039484D01*
X5850777Y-1039484D02*
X5831730Y-1029960D01*
X6041253Y-1039484D02*
X6022206Y-1029960D01*
X6022206Y-1029960D02*
X6012682Y-1010912D01*
X6012682Y-1010912D02*
X6012682Y-839484D01*
X6203158Y-1039484D02*
X6203158Y-934722D01*
X6203158Y-934722D02*
X6193634Y-915674D01*
X6193634Y-915674D02*
X6174587Y-906150D01*
X6174587Y-906150D02*
X6136492Y-906150D01*
X6136492Y-906150D02*
X6117444Y-915674D01*
X6203158Y-1029960D02*
X6184111Y-1039484D01*
X6184111Y-1039484D02*
X6136492Y-1039484D01*
X6136492Y-1039484D02*
X6117444Y-1029960D01*
X6117444Y-1029960D02*
X6107920Y-1010912D01*
X6107920Y-1010912D02*
X6107920Y-991865D01*
X6107920Y-991865D02*
X6117444Y-972817D01*
X6117444Y-972817D02*
X6136492Y-963293D01*
X6136492Y-963293D02*
X6184111Y-963293D01*
X6184111Y-963293D02*
X6203158Y-953769D01*
X6269825Y-906150D02*
X6346015Y-906150D01*
X6298396Y-839484D02*
X6298396Y-1010912D01*
X6298396Y-1010912D02*
X6307920Y-1029960D01*
X6307920Y-1029960D02*
X6326968Y-1039484D01*
X6326968Y-1039484D02*
X6346015Y-1039484D01*
X6488873Y-1029960D02*
X6469825Y-1039484D01*
X6469825Y-1039484D02*
X6431730Y-1039484D01*
X6431730Y-1039484D02*
X6412682Y-1029960D01*
X6412682Y-1029960D02*
X6403158Y-1010912D01*
X6403158Y-1010912D02*
X6403158Y-934722D01*
X6403158Y-934722D02*
X6412682Y-915674D01*
X6412682Y-915674D02*
X6431730Y-906150D01*
X6431730Y-906150D02*
X6469825Y-906150D01*
X6469825Y-906150D02*
X6488873Y-915674D01*
X6488873Y-915674D02*
X6498396Y-934722D01*
X6498396Y-934722D02*
X6498396Y-953769D01*
X6498396Y-953769D02*
X6403158Y-972817D01*
X6669825Y-1039484D02*
X6669825Y-839484D01*
X6669825Y-1029960D02*
X6650777Y-1039484D01*
X6650777Y-1039484D02*
X6612682Y-1039484D01*
X6612682Y-1039484D02*
X6593634Y-1029960D01*
X6593634Y-1029960D02*
X6584111Y-1020436D01*
X6584111Y-1020436D02*
X6574587Y-1001388D01*
X6574587Y-1001388D02*
X6574587Y-944246D01*
X6574587Y-944246D02*
X6584111Y-925198D01*
X6584111Y-925198D02*
X6593634Y-915674D01*
X6593634Y-915674D02*
X6612682Y-906150D01*
X6612682Y-906150D02*
X6650777Y-906150D01*
X6650777Y-906150D02*
X6669825Y-915674D01*
X6746015Y-1115674D02*
X6755539Y-1106150D01*
X6755539Y-1106150D02*
X6774587Y-1077579D01*
X6774587Y-1077579D02*
X6784111Y-1058531D01*
X6784111Y-1058531D02*
X6793634Y-1029960D01*
X6793634Y-1029960D02*
X6803158Y-982341D01*
X6803158Y-982341D02*
X6803158Y-944246D01*
X6803158Y-944246D02*
X6793634Y-896627D01*
X6793634Y-896627D02*
X6784111Y-868055D01*
X6784111Y-868055D02*
X6774587Y-849008D01*
X6774587Y-849008D02*
X6755539Y-820436D01*
X6755539Y-820436D02*
X6746015Y-810912D01*
M02*
